{"glyphs":{" ":{"ha":1389,"x_min":0,"x_max":0,"o":""},"ー":{"ha":1389,"x_min":206,"x_max":1183,"o":"m 694 525 q 901 500 817 525 q 1038 435 985 475 q 1122 351 1092 396 q 1165 266 1153 306 q 1181 201 1178 226 q 1183 176 1183 176 q 1162 95 1183 124 q 1113 54 1140 67 q 1065 39 1086 42 q 1043 36 1043 36 q 947 36 1043 36 q 694 36 851 36 q 442 36 538 36 q 346 36 346 36 q 324 39 346 36 q 276 54 303 42 q 227 95 249 67 q 206 176 206 124 q 208 201 206 176 q 224 266 211 226 q 267 351 236 306 q 351 435 297 396 q 488 500 404 475 q 694 525 572 525 m 408 290 q 429 319 425 300 q 424 353 433 338 q 395 374 414 369 q 361 368 376 378 q 297 307 318 342 q 267 240 275 272 q 260 184 260 207 q 260 160 260 161 q 276 129 261 142 q 310 119 292 117 q 340 136 328 122 q 350 169 353 150 q 351 192 350 171 q 365 242 353 214 q 408 290 376 269 z "},"ぁ":{"ha":1389,"x_min":260,"x_max":1129,"o":"m 1128 279 q 1127 273 1128 276 q 1126 269 1126 269 q 1128 258 1128 264 q 1129 246 1129 253 q 1122 133 1129 192 q 1082 24 1114 75 q 1000 -37 1053 -25 q 900 -21 947 -49 q 840 56 854 6 q 847 154 825 107 q 756 154 796 154 q 700 154 715 154 q 767 107 740 142 q 796 29 794 72 q 789 -72 796 -7 q 751 -206 782 -136 q 678 -278 729 -257 q 575 -276 626 -299 q 502 -201 522 -253 q 504 -99 482 -150 q 521 -41 515 -74 q 526 24 526 -8 q 552 106 525 69 q 621 154 579 142 q 506 154 572 154 q 383 154 439 154 q 365 156 383 154 q 322 169 346 158 q 278 206 297 181 q 260 279 260 232 q 262 301 260 279 q 276 359 264 324 q 314 434 288 394 q 388 509 340 474 q 510 567 436 544 q 693 589 585 589 q 876 567 801 589 q 999 509 951 544 q 1074 434 1047 474 q 1112 359 1100 394 q 1126 301 1124 324 q 1128 279 1128 279 m 440 381 q 458 406 454 389 q 453 436 463 422 q 428 454 444 450 q 397 449 411 458 q 340 394 360 425 q 314 335 321 364 q 308 286 307 306 q 308 264 308 267 q 322 237 310 247 q 351 228 335 226 q 379 243 368 231 q 389 272 390 256 q 390 293 389 274 q 401 338 390 313 q 440 381 411 363 z "},"あ":{"ha":1389,"x_min":115,"x_max":1275,"o":"m 1272 471 q 1272 463 1272 467 q 1271 458 1271 458 q 1275 426 1275 444 q 1264 276 1275 354 q 1211 129 1253 197 q 1144 66 1186 88 q 1057 45 1103 44 q 968 71 1011 46 q 906 134 928 94 q 882 219 883 174 q 900 306 881 264 q 776 306 831 306 q 703 306 722 306 q 792 243 757 289 q 829 138 828 197 q 827 56 831 106 q 810 -54 824 6 q 771 -176 797 -114 q 713 -249 751 -222 q 628 -283 675 -276 q 535 -269 581 -289 q 462 -211 489 -250 q 428 -125 435 -172 q 442 -33 422 -78 q 463 43 456 0 q 471 131 471 86 q 506 240 469 192 q 597 306 542 288 q 444 306 532 306 q 281 306 356 306 q 256 308 281 306 q 198 326 231 311 q 140 374 165 340 q 115 471 115 408 q 119 501 115 471 q 138 578 122 531 q 188 677 153 625 q 286 776 222 729 q 449 853 350 824 q 693 883 549 883 q 938 853 838 883 q 1101 776 1038 824 q 1199 677 1164 729 q 1250 578 1235 625 q 1269 501 1265 531 q 1272 471 1272 471 m 356 606 q 380 640 375 618 q 372 681 385 661 q 339 704 361 700 q 299 697 317 708 q 223 624 249 665 q 188 544 197 583 q 179 479 179 506 q 179 451 179 453 q 198 414 181 428 q 238 403 215 400 q 275 422 261 406 q 286 461 289 439 q 288 490 286 464 q 303 549 289 515 q 356 606 317 582 z "},"ぃ":{"ha":1389,"x_min":325,"x_max":1144,"o":"m 521 -3 q 503 -10 521 -3 q 459 -18 486 -17 q 403 -6 432 -19 q 354 50 375 8 q 346 71 354 50 q 331 128 338 92 q 330 213 325 165 q 360 313 335 260 q 442 420 386 365 q 594 525 499 475 q 767 590 690 575 q 903 597 844 606 q 1003 565 961 588 q 1071 516 1044 542 q 1110 472 1097 490 q 1122 453 1122 453 q 1140 380 1144 411 q 1118 328 1135 349 q 1086 296 1101 307 q 1071 285 1071 285 q 976 235 1028 261 q 883 188 925 210 q 897 126 897 157 l 897 -153 q 858 -248 897 -208 q 763 -287 819 -287 q 667 -248 707 -287 q 628 -153 628 -208 l 628 53 q 521 -3 574 24 m 397 264 q 372 189 375 225 q 377 124 369 153 q 394 78 385 96 q 404 58 403 60 q 428 41 413 44 q 460 47 444 38 q 477 73 474 57 q 471 103 481 89 q 462 122 469 104 q 452 167 454 139 q 467 224 450 194 q 471 254 475 239 q 453 278 467 269 q 422 282 439 286 q 397 264 406 278 z "},"い":{"ha":1389,"x_min":201,"x_max":1294,"o":"m 464 96 q 440 87 464 96 q 381 76 417 78 q 308 92 346 74 q 240 165 269 110 q 229 193 240 165 q 210 269 218 221 q 208 381 201 318 q 250 516 215 444 q 359 660 285 588 q 561 800 433 733 q 791 887 689 867 q 972 894 893 907 q 1106 852 1050 882 q 1197 788 1161 822 q 1249 728 1232 753 q 1265 703 1265 703 q 1288 606 1294 647 q 1260 535 1282 564 q 1217 493 1238 507 q 1196 479 1196 479 q 1070 413 1138 449 q 946 349 1003 378 q 965 268 965 310 l 965 -104 q 941 -195 965 -154 q 876 -260 917 -236 q 786 -283 836 -283 q 695 -260 736 -283 q 630 -195 654 -236 q 606 -104 606 -154 l 606 169 q 533 131 569 150 q 464 96 496 113 m 297 451 q 265 352 268 400 q 271 265 261 304 q 293 203 281 226 q 307 178 306 181 q 340 154 319 158 q 381 163 361 150 q 404 197 400 175 q 396 236 408 218 q 384 262 394 239 q 370 321 374 285 q 390 396 367 357 q 396 437 401 415 q 371 469 390 458 q 331 475 353 481 q 297 451 308 469 z "},"ぅ":{"ha":1389,"x_min":261,"x_max":1129,"o":"m 408 -83 q 311 -48 353 -86 q 268 46 269 -10 l 261 219 q 261 228 261 224 q 261 238 261 233 q 294 356 264 307 q 368 439 324 406 q 464 491 413 472 q 563 519 515 510 l 563 531 q 602 626 563 586 q 697 665 642 665 q 792 626 753 665 q 832 531 832 586 l 832 519 q 913 496 871 511 q 994 457 956 481 q 995 457 994 457 q 996 457 996 457 q 1006 450 1001 454 q 1017 443 1011 446 q 1019 441 1018 442 q 1022 439 1021 440 q 1030 433 1026 436 q 1038 426 1033 429 q 1043 421 1042 425 q 1053 413 1049 417 q 1061 404 1057 408 q 1065 400 1064 403 q 1068 396 1067 397 q 1072 390 1069 393 q 1078 385 1075 388 q 1086 374 1083 376 q 1090 368 1088 371 q 1093 363 1092 365 q 1100 350 1094 358 q 1104 340 1103 344 q 1115 311 1111 328 q 1118 303 1118 306 q 1124 283 1121 294 q 1125 275 1124 278 q 1126 265 1126 269 q 1128 254 1126 260 q 1128 253 1128 253 q 1128 253 1128 253 q 1129 239 1129 246 q 1129 225 1129 232 q 1128 209 1129 218 q 1126 200 1126 200 q 1013 -222 1125 -33 q 930 -283 985 -269 q 828 -268 875 -296 q 767 -185 781 -240 q 781 -83 753 -131 q 849 101 832 1 q 825 101 849 101 q 766 101 801 101 q 696 101 731 101 q 621 101 658 101 q 559 101 583 101 q 535 101 535 101 l 538 57 q 501 -40 539 0 q 408 -83 464 -81 m 399 394 q 342 340 361 371 q 317 281 324 310 q 310 231 310 251 q 310 210 310 211 q 324 183 311 193 q 354 175 338 172 q 381 189 371 176 q 390 218 392 201 q 391 239 390 219 q 403 283 392 258 q 442 326 414 308 q 460 351 456 336 q 454 382 464 367 q 430 401 446 397 q 399 394 414 404 z "},"う":{"ha":1389,"x_min":117,"x_max":1274,"o":"m 313 -12 q 221 8 263 -14 q 153 71 179 31 q 125 160 128 111 l 117 392 q 117 403 117 397 q 118 415 117 408 q 161 574 122 508 q 260 684 200 640 q 388 753 319 728 q 518 792 456 779 l 518 806 q 542 896 518 856 q 608 960 567 936 q 699 985 649 985 q 788 960 747 985 q 853 896 829 936 q 878 806 878 856 l 878 790 q 986 760 931 781 q 1094 708 1042 740 q 1096 708 1096 708 q 1097 708 1096 708 q 1110 699 1103 703 q 1124 690 1117 694 q 1132 685 1126 688 q 1142 676 1138 681 q 1153 668 1147 672 q 1160 661 1156 664 q 1172 650 1167 656 q 1183 638 1178 644 q 1189 633 1186 636 q 1193 628 1192 631 q 1199 619 1196 624 q 1206 611 1203 615 q 1211 604 1208 608 q 1217 597 1214 600 q 1221 590 1219 593 q 1225 582 1222 586 q 1231 574 1228 578 q 1235 565 1233 569 q 1240 553 1238 561 q 1249 534 1246 543 q 1257 514 1253 525 q 1260 503 1257 508 q 1263 490 1261 497 q 1265 476 1264 483 q 1267 472 1267 475 q 1268 467 1267 469 q 1270 452 1269 460 q 1272 438 1271 444 q 1272 436 1272 436 q 1272 436 1272 436 q 1274 417 1274 426 q 1274 399 1274 408 q 1272 377 1274 389 q 1271 365 1271 365 q 1232 69 1269 208 q 1118 -196 1194 -69 q 1051 -262 1093 -239 q 962 -284 1010 -285 q 872 -258 914 -283 q 808 -192 831 -233 q 785 -103 785 -150 q 810 -12 785 -56 q 900 233 876 100 q 868 233 900 233 q 789 233 836 233 q 696 233 742 233 q 597 233 647 233 q 515 233 547 233 q 482 233 482 233 l 485 174 q 464 83 486 125 q 401 15 442 42 q 313 -12 361 -11 m 301 625 q 226 553 251 594 q 191 474 200 513 q 182 408 182 435 q 182 379 182 382 q 201 344 183 357 q 240 332 218 331 q 277 351 263 333 q 289 390 292 368 q 290 418 289 392 q 306 478 292 444 q 358 535 319 511 q 382 567 378 546 q 375 608 386 589 q 342 633 364 628 q 301 625 319 638 z "},"ぇ":{"ha":1389,"x_min":261,"x_max":1129,"o":"m 385 144 q 366 147 385 144 q 323 160 347 149 q 280 197 299 171 q 261 268 261 222 q 263 290 261 268 q 277 348 265 313 q 315 424 289 383 q 390 499 342 464 q 512 557 438 535 q 694 579 586 579 q 878 557 803 579 q 1001 499 953 535 q 1075 424 1049 464 q 1113 348 1101 383 q 1127 290 1125 313 q 1129 268 1129 268 q 1110 197 1129 222 q 1067 160 1092 171 q 1023 147 1042 149 q 1004 144 1004 144 q 919 144 964 144 q 832 144 875 144 l 832 -14 l 969 -14 q 1065 -53 1025 -14 q 1104 -149 1104 -92 q 1065 -244 1104 -204 q 969 -283 1025 -283 l 435 -283 q 340 -244 379 -283 q 300 -149 300 -204 q 340 -53 300 -92 q 435 -14 379 -14 l 563 -14 l 563 144 q 472 144 519 144 q 385 144 425 144 m 399 439 q 342 384 361 415 q 315 324 322 353 q 309 275 308 294 q 310 254 310 256 q 324 227 311 238 q 353 218 336 217 q 381 233 369 219 q 389 263 392 246 q 390 283 389 264 q 402 328 392 303 q 442 371 413 353 q 460 395 456 379 q 454 426 464 411 q 430 444 446 440 q 399 439 414 447 z "},"え":{"ha":1389,"x_min":117,"x_max":1274,"o":"m 282 292 q 257 294 282 292 q 199 312 232 297 q 142 360 167 326 q 117 457 117 394 q 120 487 117 457 q 139 564 124 517 q 189 664 154 611 q 288 764 224 717 q 451 841 351 811 q 694 871 550 871 q 939 841 839 871 q 1102 764 1039 811 q 1201 664 1165 717 q 1251 564 1236 611 q 1270 487 1267 517 q 1274 457 1274 457 q 1249 360 1274 394 q 1191 312 1224 326 q 1133 294 1158 297 q 1108 292 1108 292 q 994 292 1056 292 q 878 292 933 292 l 878 81 l 1061 81 q 1152 56 1111 81 q 1217 -9 1193 32 q 1242 -99 1242 -50 q 1217 -190 1242 -149 q 1152 -255 1193 -231 q 1061 -279 1111 -279 l 349 -279 q 259 -255 300 -279 q 194 -190 218 -231 q 169 -99 169 -149 q 194 -9 169 -50 q 259 56 218 32 q 349 81 300 81 l 519 81 l 519 292 q 399 292 463 292 q 282 292 336 292 m 300 683 q 224 612 250 653 q 190 532 199 571 q 181 467 181 493 q 181 438 181 440 q 200 402 183 415 q 239 390 217 389 q 275 409 261 392 q 288 449 289 426 q 289 476 288 450 q 305 536 290 503 q 357 593 319 569 q 381 626 375 604 q 374 667 386 647 q 341 691 363 686 q 300 683 319 696 z "},"ぉ":{"ha":1389,"x_min":261,"x_max":1129,"o":"m 385 99 q 366 101 385 99 q 323 114 347 103 q 280 151 299 125 q 261 224 261 176 q 289 347 261 296 q 360 431 317 397 q 456 485 404 465 q 556 516 507 506 q 639 529 604 526 l 639 531 q 678 626 639 586 q 774 665 718 665 q 869 626 831 665 q 908 531 908 586 l 908 496 q 1014 442 964 476 q 1097 355 1064 408 q 1129 224 1129 301 q 1110 151 1129 176 q 1067 114 1092 125 q 1023 101 1042 103 q 1004 99 1004 99 q 960 99 983 99 q 914 99 938 99 l 914 -154 q 875 -250 914 -211 q 779 -289 836 -289 q 688 -252 726 -289 q 646 -162 649 -215 q 479 -268 572 -224 q 376 -273 429 -292 q 300 -204 324 -254 q 294 -101 276 -154 q 364 -25 313 -49 q 456 30 414 -1 q 533 99 497 61 q 458 99 496 99 q 385 99 419 99 m 399 393 q 342 339 361 369 q 315 279 322 308 q 309 231 308 250 q 310 208 310 211 q 324 181 311 192 q 353 172 336 171 q 381 188 369 175 q 389 217 392 200 q 390 238 389 218 q 402 282 392 257 q 442 325 413 307 q 460 350 456 333 q 454 381 464 367 q 430 399 446 394 q 399 393 414 403 z "},"お":{"ha":1389,"x_min":117,"x_max":1274,"o":"m 282 231 q 257 233 282 231 q 199 251 232 236 q 142 299 167 265 q 117 396 117 333 q 153 560 117 492 q 249 674 190 629 q 376 747 308 719 q 509 787 444 774 q 621 806 574 800 q 645 896 621 856 q 710 960 669 936 q 800 985 750 985 q 891 960 850 985 q 956 896 932 936 q 981 806 981 856 l 981 760 q 1120 689 1053 733 q 1231 572 1188 644 q 1274 396 1274 500 q 1249 299 1274 333 q 1191 251 1224 265 q 1133 233 1158 236 q 1108 231 1108 231 q 1050 231 1081 231 q 988 231 1019 231 l 988 -107 q 963 -198 988 -157 q 899 -262 939 -239 q 808 -286 858 -286 q 721 -264 761 -286 q 656 -203 681 -242 q 629 -118 632 -165 q 524 -194 579 -160 q 407 -258 468 -229 q 315 -276 363 -281 q 228 -244 268 -271 q 168 -174 189 -218 q 151 -81 147 -128 q 182 6 156 -33 q 253 67 208 44 q 479 231 386 129 q 378 231 429 231 q 282 231 326 231 m 300 624 q 224 551 250 592 q 190 471 199 510 q 181 406 181 432 q 181 376 181 379 q 200 341 183 354 q 239 329 217 328 q 275 348 261 331 q 288 388 289 365 q 289 415 288 389 q 305 475 290 442 q 357 532 319 508 q 381 565 375 543 q 374 606 386 586 q 341 630 363 625 q 300 624 319 635 z "},"か":{"ha":1389,"x_min":115,"x_max":1274,"o":"m 847 797 q 965 767 903 788 q 1087 714 1028 747 q 1192 629 1146 681 q 1258 504 1238 578 q 1274 432 1274 469 q 1254 207 1274 322 q 1199 -16 1235 92 q 1115 -208 1164 -124 q 1050 -275 1092 -251 q 961 -299 1008 -299 q 871 -276 914 -300 q 804 -211 828 -253 q 779 -122 781 -169 q 803 -32 778 -75 q 856 90 832 19 q 894 235 881 160 q 803 235 846 235 q 733 235 761 235 q 689 12 719 122 q 610 -196 658 -99 q 549 -266 589 -240 q 461 -296 508 -292 q 369 -278 414 -300 q 299 -216 325 -256 q 270 -129 274 -176 q 288 -37 267 -82 q 371 235 347 86 q 324 235 347 235 q 281 235 301 235 q 256 238 281 235 q 198 255 231 240 q 140 303 165 269 q 115 400 115 338 q 149 558 115 492 q 237 669 182 624 q 356 742 292 714 q 482 785 419 769 l 492 836 q 531 921 500 885 q 606 974 561 957 q 699 982 650 990 q 808 917 767 969 q 847 797 850 864 m 356 536 q 380 569 375 547 q 372 610 385 592 q 339 633 361 628 q 299 628 317 639 q 223 555 249 596 q 188 475 197 514 q 179 410 179 436 q 179 381 179 383 q 198 344 181 358 q 238 333 215 331 q 275 353 261 336 q 286 392 289 369 q 288 420 286 394 q 303 478 289 446 q 356 536 317 511 z "},"が":{"ha":1389,"x_min":115,"x_max":1274,"o":"m 1147 963 q 1237 926 1200 963 q 1274 836 1274 889 q 1237 747 1274 783 q 1147 710 1200 710 q 1105 717 1125 710 q 1068 739 1085 725 q 1031 717 1051 725 q 989 710 1011 710 q 899 747 936 710 q 863 836 863 783 q 899 926 863 889 q 989 963 936 963 q 1068 935 1033 963 q 1147 963 1103 963 m 1138 679 q 1210 604 1179 647 q 1258 504 1242 561 q 1274 432 1274 469 q 1254 207 1274 322 q 1199 -16 1235 92 q 1115 -208 1164 -124 q 1050 -275 1092 -251 q 961 -299 1008 -299 q 871 -276 914 -300 q 804 -211 828 -253 q 779 -122 781 -169 q 803 -32 778 -75 q 856 90 832 19 q 894 235 881 160 q 803 235 846 235 q 733 235 761 235 q 689 12 719 122 q 610 -196 658 -99 q 549 -266 589 -240 q 461 -296 508 -292 q 369 -278 414 -300 q 299 -216 325 -256 q 269 -129 272 -176 q 288 -37 265 -82 q 371 235 347 86 q 324 235 347 235 q 281 235 301 235 q 256 238 281 235 q 198 255 231 240 q 140 303 165 269 q 115 400 115 338 q 149 558 115 492 q 237 669 182 624 q 356 742 292 714 q 482 785 419 769 l 492 836 q 531 921 500 885 q 606 974 561 957 q 699 982 650 990 q 783 943 747 974 q 835 871 818 913 q 831 836 831 854 q 852 756 831 792 q 909 699 874 721 q 989 678 944 678 q 1030 685 1010 678 q 1068 703 1050 692 q 1138 679 1103 681 m 356 536 q 380 569 375 547 q 372 610 385 592 q 339 633 361 628 q 299 628 317 639 q 223 555 249 596 q 188 475 197 514 q 179 410 179 436 q 179 381 179 383 q 198 344 181 358 q 238 333 215 331 q 275 353 261 336 q 286 392 289 369 q 288 420 286 394 q 303 478 289 446 q 356 536 317 511 z "},"き":{"ha":1389,"x_min":117,"x_max":1274,"o":"m 885 796 q 1015 755 947 782 q 1142 683 1083 728 q 1238 569 1201 638 q 1274 406 1274 501 q 1249 309 1274 343 q 1191 260 1224 275 q 1133 243 1158 246 q 1108 240 1108 240 q 993 240 1056 240 q 875 240 931 240 l 875 207 l 989 207 q 1080 183 1039 207 q 1145 117 1121 158 q 1169 26 1169 76 q 1145 -63 1169 -22 q 1080 -128 1121 -104 q 989 -153 1039 -153 l 872 -153 q 810 -258 860 -215 q 694 -300 761 -300 q 580 -258 629 -300 q 518 -153 531 -215 l 390 -153 q 301 -128 342 -153 q 235 -63 260 -104 q 211 26 211 -22 q 235 117 211 76 q 301 183 260 158 q 390 207 342 207 l 515 207 l 515 240 q 397 240 458 240 q 282 240 335 240 q 257 243 282 240 q 199 260 232 246 q 142 309 167 275 q 117 406 117 343 q 156 575 117 506 q 257 690 194 644 q 390 761 319 735 q 525 800 461 788 l 525 806 q 569 924 525 874 q 678 983 614 974 q 685 985 678 983 q 699 986 692 986 q 739 982 719 986 q 843 920 801 969 q 885 806 885 871 l 885 796 m 357 542 q 381 575 375 553 q 374 615 386 597 q 341 640 363 635 q 300 633 319 644 q 224 560 250 601 q 190 481 199 519 q 181 415 181 442 q 181 386 181 389 q 200 350 183 364 q 239 339 217 336 q 275 358 261 342 q 288 397 289 375 q 289 426 288 400 q 305 484 290 451 q 357 542 319 517 z "},"ぎ":{"ha":1389,"x_min":117,"x_max":1274,"o":"m 1138 963 q 1226 926 1189 963 q 1264 836 1264 889 q 1226 747 1264 783 q 1138 710 1189 710 q 1058 739 1092 710 q 979 710 1022 710 q 889 747 926 710 q 851 836 851 783 q 889 926 851 889 q 979 963 926 963 q 1058 935 1024 963 q 1138 963 1090 963 m 1147 679 q 1238 567 1203 633 q 1274 406 1274 500 q 1249 309 1274 343 q 1191 260 1224 275 q 1133 243 1158 246 q 1108 240 1108 240 q 993 240 1056 240 q 875 240 931 240 l 875 207 l 989 207 q 1080 183 1039 207 q 1145 117 1121 158 q 1169 26 1169 76 q 1145 -63 1169 -22 q 1080 -128 1121 -104 q 989 -153 1039 -153 l 872 -153 q 810 -258 860 -215 q 694 -300 761 -300 q 580 -258 629 -300 q 518 -153 531 -215 l 390 -153 q 301 -128 342 -153 q 235 -63 260 -104 q 211 26 211 -22 q 235 117 211 76 q 301 183 260 158 q 390 207 342 207 l 515 207 l 515 240 q 397 240 458 240 q 282 240 335 240 q 257 243 282 240 q 199 260 232 246 q 142 309 167 275 q 117 406 117 343 q 156 575 117 506 q 257 690 194 644 q 390 761 319 735 q 525 800 461 788 l 525 806 q 569 924 525 874 q 678 983 614 974 q 685 985 678 983 q 699 986 692 986 q 739 982 719 986 q 844 919 804 969 q 821 836 821 881 q 842 756 821 792 q 900 699 864 721 q 979 678 936 678 q 1019 685 1000 678 q 1058 703 1039 692 q 1096 685 1076 692 q 1138 678 1115 678 q 1142 678 1139 678 q 1147 679 1144 679 m 357 542 q 381 575 375 553 q 374 615 386 597 q 341 640 363 635 q 300 633 319 644 q 224 560 250 601 q 190 481 199 519 q 181 415 181 442 q 181 386 181 389 q 200 350 183 364 q 239 339 217 336 q 275 358 261 342 q 288 397 289 375 q 289 426 288 400 q 305 484 290 451 q 357 542 319 517 z "},"く":{"ha":1389,"x_min":128,"x_max":1278,"o":"m 722 890 q 944 863 853 890 q 1097 794 1036 836 q 1194 704 1158 751 q 1247 615 1229 657 q 1270 545 1265 572 q 1275 518 1275 518 q 1277 500 1276 508 q 1278 482 1278 492 q 1273 350 1278 426 q 1254 186 1268 274 q 1215 8 1240 99 q 1146 -167 1189 -82 q 1135 -187 1140 -178 q 1125 -206 1131 -196 q 1058 -272 1100 -249 q 969 -295 1017 -294 q 879 -271 922 -296 q 813 -204 836 -246 q 790 -115 790 -162 q 814 -25 789 -68 q 824 -9 819 -18 q 832 10 828 0 q 880 155 861 74 q 908 318 899 236 q 879 318 908 318 q 807 318 850 318 q 722 318 764 318 q 628 318 675 318 q 551 318 582 318 q 519 318 519 318 q 506 232 514 275 q 485 150 497 189 q 433 72 469 103 q 351 32 397 42 q 257 38 304 22 q 180 88 211 53 q 138 170 149 124 q 144 264 128 217 q 161 344 154 294 q 171 447 168 394 q 169 460 171 447 q 167 482 167 472 q 175 563 167 525 q 200 638 179 604 q 216 663 200 638 q 268 726 232 689 q 365 801 304 764 q 513 865 425 839 q 722 890 601 890 m 394 626 q 417 660 413 639 q 411 700 422 681 q 377 724 399 719 q 338 717 356 729 q 260 644 288 686 q 219 564 232 603 q 204 499 207 525 q 201 469 201 472 q 220 433 203 447 q 260 422 238 419 q 295 441 282 425 q 307 479 308 457 q 313 508 307 481 q 338 569 319 535 q 394 626 356 603 z "},"ぐ":{"ha":1389,"x_min":128,"x_max":1278,"o":"m 1151 963 q 1240 926 1203 963 q 1278 836 1278 889 q 1240 747 1278 783 q 1151 710 1203 710 q 1072 739 1106 710 q 993 710 1036 710 q 903 747 940 710 q 865 836 865 783 q 903 926 865 889 q 993 963 940 963 q 1072 935 1038 963 q 1151 963 1104 963 m 1213 690 q 1254 613 1238 656 q 1275 518 1271 569 q 1277 500 1276 508 q 1278 482 1278 492 q 1273 350 1278 426 q 1254 186 1268 274 q 1215 8 1240 99 q 1146 -167 1189 -82 q 1135 -187 1140 -178 q 1125 -206 1131 -196 q 1058 -272 1100 -249 q 969 -295 1017 -294 q 879 -271 922 -296 q 813 -204 836 -246 q 790 -115 790 -162 q 814 -25 789 -68 q 824 -9 819 -18 q 832 10 828 0 q 880 155 861 74 q 908 318 899 236 q 879 318 908 318 q 807 318 850 318 q 722 318 764 318 q 628 318 675 318 q 551 318 582 318 q 519 318 519 318 q 506 232 514 275 q 485 150 497 189 q 433 72 469 103 q 351 32 397 42 q 257 38 304 22 q 180 88 211 53 q 138 170 149 124 q 144 264 128 217 q 161 344 154 294 q 171 447 168 394 q 169 460 171 447 q 167 482 167 472 q 175 563 167 525 q 200 638 179 604 q 216 663 200 638 q 268 726 232 689 q 365 801 304 764 q 513 865 425 839 q 722 890 601 890 q 774 888 747 890 q 821 882 801 885 q 840 879 840 879 q 837 858 839 869 q 835 836 835 847 q 856 756 835 792 q 914 699 878 721 q 993 678 950 678 q 1033 685 1014 678 q 1072 703 1053 692 q 1110 685 1090 692 q 1151 678 1129 678 q 1213 690 1183 678 m 394 626 q 418 660 414 639 q 411 700 422 681 q 377 724 399 719 q 338 717 356 729 q 260 644 288 686 q 219 564 232 603 q 204 499 207 525 q 201 469 201 472 q 220 433 203 447 q 260 422 238 419 q 295 441 282 425 q 307 479 308 457 q 313 508 307 481 q 338 569 319 535 q 394 626 356 603 z "},"け":{"ha":1389,"x_min":89,"x_max":1314,"o":"m 736 818 q 980 788 881 818 q 1143 711 1079 758 q 1242 612 1207 664 q 1292 513 1276 560 q 1310 435 1307 465 q 1314 406 1314 406 q 1296 324 1314 356 q 1255 276 1278 293 q 1214 253 1232 260 q 1196 246 1196 246 q 1139 238 1171 238 q 1092 238 1117 238 q 1040 238 1067 238 q 1019 31 1036 146 q 963 -186 1003 -83 q 907 -261 944 -232 q 823 -298 869 -290 q 731 -287 776 -306 q 654 -232 683 -269 q 617 -147 625 -194 q 628 -54 610 -100 q 662 74 649 -3 q 681 238 675 150 q 593 238 646 238 q 481 238 540 238 q 465 172 474 204 q 447 111 457 140 q 398 32 433 64 q 316 -11 363 0 q 222 -8 269 -22 q 143 41 175 6 q 100 123 111 76 q 104 217 89 169 q 149 407 129 300 q 164 515 149 465 q 183 786 183 658 q 208 876 183 836 q 273 941 232 917 q 363 965 314 965 q 451 942 411 965 q 515 881 490 919 q 542 794 539 842 q 572 800 542 794 q 647 812 603 806 q 736 818 692 818 m 367 815 q 393 847 386 825 q 389 888 400 868 q 356 913 378 907 q 315 910 335 919 q 239 820 264 882 q 219 678 214 758 q 238 642 221 656 q 276 629 254 628 q 314 647 300 631 q 326 686 328 664 q 333 761 325 722 q 367 815 340 800 z "},"げ":{"ha":1389,"x_min":89,"x_max":1314,"o":"m 1154 963 q 1243 926 1206 963 q 1281 836 1281 889 q 1243 747 1281 783 q 1154 710 1206 710 q 1111 717 1131 710 q 1075 739 1092 725 q 1039 717 1058 725 q 996 710 1019 710 q 907 747 944 710 q 869 836 869 783 q 907 926 869 889 q 996 963 944 963 q 1075 935 1040 963 q 1154 963 1110 963 m 1183 681 q 1277 567 1240 635 q 1314 406 1314 500 q 1296 324 1314 356 q 1255 276 1278 293 q 1214 253 1232 260 q 1196 246 1196 246 q 1139 238 1171 238 q 1092 238 1117 238 q 1040 238 1067 238 q 1019 31 1036 146 q 963 -186 1003 -83 q 907 -261 944 -232 q 823 -298 869 -290 q 731 -287 776 -306 q 654 -232 683 -269 q 617 -147 625 -194 q 628 -54 610 -100 q 662 74 649 -3 q 681 238 675 150 q 593 238 646 238 q 481 238 540 238 q 465 172 474 204 q 447 111 457 140 q 398 32 433 64 q 316 -11 363 0 q 222 -8 269 -22 q 143 41 175 6 q 100 123 111 76 q 104 217 89 169 q 149 407 129 300 q 164 515 149 465 q 183 786 183 658 q 208 876 183 836 q 273 941 232 917 q 363 965 314 965 q 451 942 411 965 q 515 881 490 919 q 542 794 539 842 q 572 800 542 794 q 647 812 603 806 q 736 818 692 818 q 781 816 757 818 q 823 812 806 814 q 840 810 840 810 q 894 715 850 753 q 996 678 938 678 q 1036 685 1017 678 q 1075 703 1056 692 q 1114 685 1094 692 q 1154 678 1133 678 q 1169 678 1161 678 q 1183 681 1176 679 m 367 815 q 393 847 386 825 q 389 888 400 868 q 356 913 378 907 q 315 910 335 919 q 239 820 264 882 q 219 678 214 758 q 238 642 221 656 q 276 629 254 628 q 314 647 300 631 q 326 686 328 664 q 333 761 325 722 q 367 815 340 800 z "},"こ":{"ha":1389,"x_min":117,"x_max":1274,"o":"m 694 886 q 927 859 831 886 q 1087 788 1024 832 q 1188 697 1150 744 q 1243 605 1225 649 q 1267 534 1261 561 q 1272 507 1272 507 q 1274 494 1274 500 q 1274 482 1274 489 q 1262 277 1274 390 q 1216 43 1250 164 q 1117 -189 1182 -78 q 1051 -253 1093 -229 q 961 -278 1008 -278 l 408 -278 q 317 -253 358 -278 q 252 -188 276 -229 q 228 -97 228 -147 q 252 -7 228 -47 q 317 58 276 33 q 408 82 358 82 q 738 82 629 82 q 847 82 847 82 q 882 194 868 138 q 903 307 896 251 q 871 307 903 307 q 790 307 839 307 q 694 307 742 307 q 478 307 571 307 q 333 307 385 307 q 282 307 282 307 q 257 310 282 307 q 199 327 232 313 q 142 376 167 342 q 117 472 117 410 q 120 502 117 472 q 139 579 124 532 q 189 679 154 626 q 288 779 224 732 q 451 856 351 826 q 694 886 550 886 m 357 608 q 381 642 375 619 q 374 682 386 664 q 341 706 363 700 q 300 699 319 711 q 224 626 250 667 q 190 547 199 586 q 181 482 181 508 q 181 453 181 456 q 200 417 183 431 q 239 406 217 403 q 275 425 261 408 q 288 464 289 442 q 289 492 288 467 q 305 551 290 518 q 357 608 319 583 z "},"ご":{"ha":1389,"x_min":117,"x_max":1274,"o":"m 1142 963 q 1231 926 1194 963 q 1268 836 1268 889 q 1231 747 1268 783 q 1142 710 1194 710 q 1063 739 1096 710 q 983 710 1026 710 q 893 747 931 710 q 856 836 856 783 q 893 926 856 889 q 983 963 931 963 q 1063 935 1028 963 q 1142 963 1094 963 m 1201 690 q 1248 609 1229 654 q 1272 507 1267 564 q 1273 494 1272 500 q 1274 482 1274 489 q 1262 277 1274 390 q 1216 43 1250 164 q 1117 -189 1182 -78 q 1051 -253 1093 -229 q 961 -278 1010 -278 l 408 -278 q 317 -253 358 -278 q 252 -188 276 -229 q 228 -97 228 -147 q 252 -7 228 -47 q 317 58 276 33 q 408 82 358 82 q 738 82 629 82 q 847 82 847 82 q 882 194 868 138 q 903 307 896 251 q 871 307 903 307 q 790 307 839 307 q 694 307 742 307 q 478 307 571 307 q 333 307 385 307 q 282 307 282 307 q 257 310 282 307 q 199 327 232 313 q 142 376 167 342 q 117 472 117 410 q 120 502 117 472 q 139 579 124 532 q 189 679 154 626 q 288 779 224 732 q 451 856 351 826 q 694 886 550 886 q 754 883 722 886 q 808 876 786 879 q 829 872 829 872 q 825 836 825 856 q 847 756 825 792 q 903 699 868 721 q 983 678 939 678 q 1024 685 1004 678 q 1063 703 1044 692 q 1100 685 1081 692 q 1142 678 1119 678 q 1201 690 1172 678 m 357 608 q 381 642 375 619 q 374 682 386 664 q 341 706 363 700 q 300 699 319 711 q 224 626 250 667 q 190 547 199 586 q 181 482 181 508 q 181 453 181 456 q 200 417 183 431 q 239 406 217 403 q 275 425 261 408 q 288 464 289 442 q 289 492 288 467 q 305 551 290 518 q 357 608 319 583 z "},"さ":{"ha":1389,"x_min":117,"x_max":1274,"o":"m 1167 667 q 1167 666 1167 667 q 1167 665 1167 665 q 1244 558 1214 621 q 1274 411 1274 496 q 1253 323 1274 356 q 1205 274 1232 290 q 1157 252 1178 257 q 1136 247 1136 247 q 1032 -192 1113 -15 q 972 -264 1011 -236 q 886 -297 933 -292 q 794 -281 839 -301 q 722 -221 750 -260 q 690 -135 694 -182 q 706 -43 685 -89 q 749 86 732 14 q 775 246 765 158 q 747 246 775 246 q 694 246 718 246 q 659 246 679 246 q 639 246 639 246 l 639 111 q 615 20 639 61 q 549 -45 590 -21 q 460 -69 508 -69 q 370 -45 411 -69 q 305 20 329 -21 q 281 111 281 61 l 281 246 q 256 249 281 246 q 199 267 231 253 q 142 316 167 282 q 117 411 117 350 q 161 588 117 517 q 272 706 206 660 l 272 803 q 297 893 272 853 q 362 958 321 933 q 453 982 403 982 q 574 935 522 982 q 631 819 625 889 q 653 822 631 819 q 694 824 676 824 q 747 822 719 824 q 795 817 775 819 q 815 814 815 814 l 815 817 q 844 906 818 867 q 913 967 871 944 q 1004 986 954 989 q 1092 957 1053 983 q 1154 889 1132 931 q 1174 797 1176 847 l 1167 667 m 357 546 q 381 580 375 558 q 374 621 386 601 q 341 644 363 639 q 300 638 319 649 q 224 565 250 606 q 190 485 199 524 q 181 420 181 446 q 181 392 181 394 q 200 356 183 369 q 239 343 217 342 q 275 362 261 344 q 288 401 289 379 q 289 429 288 403 q 305 489 290 456 q 357 546 319 522 z "},"ざ":{"ha":1389,"x_min":110,"x_max":1279,"o":"m 1153 968 q 1242 931 1206 968 q 1279 842 1279 894 q 1242 752 1279 789 q 1153 715 1206 715 q 1110 723 1131 715 q 1074 743 1089 731 q 1037 723 1057 731 q 993 715 1017 715 q 904 752 942 715 q 867 842 867 789 q 904 931 867 894 q 993 968 942 968 q 1037 960 1017 968 q 1074 940 1057 953 q 1110 960 1089 953 q 1153 968 1131 968 m 1160 667 q 1160 666 1160 667 q 1160 665 1160 665 q 1237 558 1207 621 q 1267 411 1267 496 q 1246 323 1267 356 q 1198 274 1225 290 q 1150 252 1171 257 q 1129 247 1129 247 q 1025 -192 1106 -15 q 967 -264 1006 -236 q 881 -297 928 -292 q 788 -281 833 -301 q 715 -221 742 -260 q 683 -135 688 -182 q 699 -43 678 -89 q 742 86 725 14 q 768 246 758 158 q 740 246 768 246 q 688 246 711 246 q 652 246 672 246 q 632 246 632 246 l 632 111 q 608 20 632 61 q 543 -45 583 -21 q 453 -69 503 -69 q 363 -45 403 -69 q 298 20 322 -21 q 274 111 274 61 l 274 246 q 249 249 274 246 q 192 267 224 253 q 135 316 160 282 q 110 411 110 350 q 154 588 110 517 q 265 706 199 660 l 265 803 q 290 893 265 853 q 355 958 314 933 q 446 982 396 982 q 566 935 515 982 q 624 819 617 889 q 647 822 624 819 q 688 824 669 824 q 741 822 713 824 q 789 817 769 819 q 808 814 808 814 l 808 817 q 829 891 811 857 q 878 949 847 925 q 847 900 858 928 q 835 842 835 872 q 856 762 835 797 q 914 705 878 726 q 993 683 950 683 q 1035 690 1015 683 q 1074 707 1056 697 q 1111 690 1092 697 q 1153 683 1131 683 q 1161 685 1158 683 l 1160 667 m 350 546 q 374 580 369 558 q 367 621 379 601 q 333 644 356 639 q 293 638 311 649 q 217 565 243 606 q 183 485 192 524 q 174 420 174 446 q 174 392 174 394 q 192 356 175 369 q 232 343 210 342 q 269 362 256 344 q 281 401 283 379 q 282 429 281 403 q 297 489 283 456 q 350 546 311 522 z "},"し":{"ha":1389,"x_min":78,"x_max":1301,"o":"m 228 310 q 206 313 228 310 q 154 330 183 315 q 102 378 125 344 q 78 475 79 413 q 80 505 78 475 q 93 582 82 535 q 131 681 104 629 q 203 781 157 733 q 323 858 250 828 q 501 888 396 888 q 680 858 607 888 q 799 781 753 828 q 872 681 846 733 q 910 582 899 629 q 923 505 921 535 q 925 475 925 475 q 901 378 924 413 q 851 330 879 344 q 803 313 824 315 q 782 310 782 310 q 745 310 782 310 q 644 310 708 310 q 501 310 581 310 q 363 310 425 310 q 265 310 301 310 q 228 310 228 310 m 254 721 q 180 645 204 689 q 148 559 156 601 q 141 488 140 517 q 142 456 142 458 q 161 419 144 433 q 200 407 178 406 q 236 426 222 408 q 249 465 250 443 q 248 485 249 467 q 251 531 247 504 q 269 585 256 558 q 311 631 282 613 q 335 664 331 642 q 329 704 340 686 q 294 728 317 722 q 254 721 272 733 m 1156 586 q 1238 542 1204 575 q 1287 465 1272 510 q 1290 371 1301 419 q 1153 24 1249 186 q 925 -250 1057 -139 q 840 -290 886 -282 q 748 -282 793 -297 q 671 -228 703 -267 q 632 -140 639 -189 q 642 -47 625 -92 q 540 -81 594 -81 l 313 -81 q 222 -56 263 -81 q 156 9 181 -32 q 132 100 132 50 q 156 190 132 150 q 222 255 181 231 q 313 279 263 279 l 540 279 q 630 255 589 279 q 695 190 671 231 q 719 100 719 150 q 708 39 719 69 q 852 221 792 114 q 940 451 913 328 q 984 534 951 500 q 1063 583 1017 568 q 1156 586 1108 597 z "},"じ":{"ha":1389,"x_min":78,"x_max":1301,"o":"m 228 310 q 206 313 228 310 q 154 330 183 315 q 102 378 125 344 q 78 475 79 413 q 80 505 78 475 q 93 582 82 535 q 131 681 104 629 q 203 781 157 733 q 323 858 250 828 q 501 888 396 888 q 680 858 607 888 q 799 781 753 828 q 872 681 846 733 q 910 582 899 629 q 923 505 921 535 q 925 475 925 475 q 901 378 924 413 q 851 330 879 344 q 803 313 824 315 q 782 310 782 310 q 745 310 782 310 q 644 310 708 310 q 501 310 581 310 q 363 310 425 310 q 265 310 301 310 q 228 310 228 310 m 254 721 q 180 645 204 689 q 148 559 156 601 q 141 488 140 517 q 142 456 142 458 q 161 419 144 433 q 200 407 178 406 q 236 426 222 408 q 249 465 250 443 q 248 485 249 467 q 251 531 247 504 q 269 585 256 558 q 311 631 282 613 q 335 664 331 642 q 329 704 340 686 q 294 728 317 722 q 254 721 272 733 m 1156 586 q 1238 542 1204 575 q 1287 465 1272 510 q 1290 371 1301 419 q 1153 24 1249 186 q 925 -250 1057 -139 q 840 -290 886 -282 q 748 -282 793 -297 q 671 -228 703 -267 q 632 -140 639 -189 q 642 -47 625 -92 q 540 -81 594 -81 l 313 -81 q 222 -56 263 -81 q 156 9 181 -32 q 132 100 132 50 q 156 190 132 150 q 222 255 181 231 q 313 279 263 279 l 540 279 q 630 255 589 279 q 695 190 671 231 q 719 100 719 150 q 708 39 719 69 q 852 221 792 114 q 940 451 913 328 q 984 534 951 500 q 1063 583 1017 568 q 1156 586 1108 597 m 1168 968 q 1257 931 1219 968 q 1294 842 1294 894 q 1257 752 1294 789 q 1168 715 1219 715 q 1124 723 1144 715 q 1089 743 1104 731 q 1052 723 1072 731 q 1010 715 1032 715 q 919 752 957 715 q 882 842 882 789 q 919 931 882 894 q 1010 968 957 968 q 1052 960 1032 968 q 1089 940 1072 953 q 1124 960 1104 953 q 1168 968 1144 968 z "},"す":{"ha":1389,"x_min":117,"x_max":1274,"o":"m 282 313 q 257 315 282 313 q 199 333 232 318 q 142 381 167 347 q 117 478 117 415 q 120 508 117 478 q 139 585 124 538 q 189 685 154 632 q 288 785 224 738 q 451 862 351 832 q 694 892 550 892 q 939 862 839 892 q 1102 785 1039 832 q 1201 685 1165 738 q 1251 585 1236 632 q 1270 508 1267 538 q 1274 478 1274 478 q 1262 417 1274 443 q 1239 375 1250 390 q 1228 360 1228 360 q 1006 114 1132 235 q 1049 77 1026 94 q 1097 47 1072 60 q 1165 -17 1140 24 q 1191 -106 1189 -58 q 1169 -197 1193 -153 q 1104 -265 1144 -240 q 1017 -291 1064 -289 q 925 -269 969 -293 q 729 -115 817 -208 q 499 -264 615 -199 q 408 -288 456 -289 q 319 -263 360 -287 q 253 -196 278 -239 q 229 -106 228 -153 q 254 -17 231 -58 q 321 49 278 25 q 510 169 415 101 q 690 313 604 238 q 634 313 678 313 q 530 313 590 313 q 404 313 469 313 q 282 313 339 313 m 300 704 q 224 632 250 672 q 190 553 199 592 q 181 488 181 514 q 181 458 181 461 q 200 422 183 436 q 239 411 217 408 q 275 431 261 414 q 288 469 289 447 q 289 498 288 472 q 305 556 290 524 q 357 614 319 589 q 381 647 375 625 q 374 688 386 669 q 341 711 363 706 q 300 704 319 717 z "},"ず":{"ha":1389,"x_min":117,"x_max":1274,"o":"m 1132 968 q 1221 931 1183 968 q 1258 842 1258 894 q 1221 752 1258 789 q 1132 715 1183 715 q 1088 723 1108 715 q 1053 743 1068 731 q 1016 723 1036 731 q 974 715 996 715 q 884 752 921 715 q 847 842 847 789 q 884 931 847 894 q 974 968 921 968 q 1016 960 996 968 q 1053 940 1036 953 q 1088 960 1068 953 q 1132 968 1108 968 m 1132 683 q 1199 699 1165 683 q 1253 602 1233 657 q 1274 478 1274 547 q 1262 417 1274 443 q 1239 375 1250 390 q 1228 360 1228 360 q 1006 114 1132 235 q 1049 77 1026 94 q 1097 47 1072 60 q 1165 -17 1140 24 q 1191 -106 1189 -58 q 1169 -197 1193 -153 q 1104 -265 1144 -240 q 1017 -291 1064 -289 q 925 -269 969 -293 q 729 -115 817 -208 q 499 -264 615 -199 q 408 -288 456 -289 q 319 -263 360 -287 q 253 -196 278 -239 q 229 -106 228 -153 q 254 -17 231 -58 q 321 49 278 25 q 510 169 415 101 q 690 313 604 238 q 634 313 678 313 q 530 313 590 313 q 404 313 469 313 q 282 313 339 313 q 257 315 282 313 q 199 333 232 318 q 142 381 167 347 q 117 478 117 415 q 120 508 117 478 q 139 585 124 538 q 189 685 154 632 q 288 785 224 738 q 451 862 351 832 q 694 892 550 892 q 750 889 721 892 q 799 883 779 886 q 819 879 819 879 q 815 842 815 863 q 837 762 815 797 q 894 705 858 726 q 974 683 931 683 q 1014 690 994 683 q 1053 707 1033 697 q 1090 690 1071 697 q 1132 683 1110 683 m 357 614 q 381 647 375 625 q 374 688 386 669 q 341 711 363 706 q 300 704 319 717 q 224 632 250 672 q 190 553 199 592 q 181 488 181 514 q 181 458 181 461 q 200 422 183 436 q 239 411 217 408 q 275 431 261 414 q 288 469 289 447 q 289 498 288 472 q 305 556 290 524 q 357 614 319 589 z "},"せ":{"ha":1389,"x_min":114,"x_max":1279,"o":"m 388 -169 q 385 -164 386 -167 q 383 -160 385 -161 q 383 -160 383 -160 q 385 -162 383 -161 q 388 -169 385 -164 m 692 810 q 916 784 822 810 q 1074 718 1010 758 q 1176 632 1138 678 q 1233 546 1214 586 q 1260 480 1253 506 q 1267 454 1267 454 q 1269 364 1279 411 l 1233 196 q 1190 113 1222 147 q 1112 63 1157 78 q 1019 58 1067 47 q 918 122 957 72 q 878 232 879 171 q 849 232 878 232 q 776 232 819 232 q 692 232 733 232 q 673 232 683 232 q 663 232 663 232 q 672 153 667 192 q 686 79 678 114 q 715 79 686 79 q 792 79 744 79 q 894 79 839 79 q 985 55 944 79 q 1049 -10 1025 31 q 1074 -100 1074 -50 q 1051 -191 1075 -150 q 985 -256 1026 -232 q 896 -281 944 -281 l 606 -281 q 529 -275 572 -281 q 447 -245 486 -269 q 385 -162 407 -221 q 301 232 318 7 q 290 232 296 232 q 279 232 285 232 q 254 235 279 232 q 197 252 229 238 q 139 301 164 267 q 114 397 114 335 q 154 566 114 497 q 254 681 194 635 l 243 786 q 258 879 239 836 q 315 950 278 922 q 403 983 353 978 q 496 969 453 989 q 567 913 539 950 q 601 825 596 875 l 603 804 q 634 807 603 804 q 692 810 665 810 m 354 533 q 378 567 372 544 q 371 607 383 589 q 338 631 360 625 q 297 624 317 636 q 222 551 247 592 q 187 472 196 511 q 178 407 178 433 q 178 378 178 381 q 197 342 181 356 q 236 331 214 328 q 272 350 258 333 q 285 389 286 367 q 286 417 285 392 q 302 476 288 443 q 354 533 317 508 z "},"ぜ":{"ha":1389,"x_min":114,"x_max":1279,"o":"m 388 -169 q 385 -164 386 -167 q 383 -160 385 -161 q 383 -160 383 -160 q 385 -162 383 -161 q 388 -169 385 -164 m 1142 968 q 1231 931 1194 968 q 1268 842 1268 894 q 1231 752 1268 789 q 1142 715 1194 715 q 1099 723 1119 715 q 1063 743 1078 731 q 1026 723 1046 731 q 983 715 1006 715 q 893 752 931 715 q 856 842 856 789 q 893 931 856 894 q 983 968 931 968 q 1026 960 1006 968 q 1063 940 1046 953 q 1099 960 1078 953 q 1142 968 1119 968 m 1124 685 q 1217 588 1178 644 q 1267 454 1256 532 q 1269 364 1279 411 l 1233 196 q 1190 113 1222 147 q 1112 63 1157 78 q 1019 58 1067 47 q 918 122 957 72 q 878 232 879 171 q 849 232 878 232 q 776 232 819 232 q 692 232 733 232 q 673 232 683 232 q 663 232 663 232 q 672 153 667 192 q 686 79 678 114 q 715 79 686 79 q 792 79 744 79 q 894 79 839 79 q 985 55 944 79 q 1049 -10 1025 31 q 1074 -100 1074 -50 q 1051 -191 1075 -150 q 985 -256 1026 -232 q 896 -281 944 -281 l 606 -281 q 529 -275 572 -281 q 447 -245 486 -269 q 385 -162 407 -221 q 301 232 318 7 q 290 232 296 232 q 279 232 285 232 q 254 235 279 232 q 197 252 229 238 q 139 301 164 267 q 114 397 114 335 q 154 566 114 497 q 256 681 194 635 l 243 786 q 258 879 239 836 q 315 950 278 922 q 403 983 353 978 q 496 969 453 989 q 567 913 539 950 q 601 825 596 875 l 603 804 q 634 807 603 804 q 692 810 665 810 q 754 806 722 810 q 809 800 786 803 q 832 797 832 797 q 888 716 847 749 q 983 683 929 683 q 1024 690 1004 683 q 1063 707 1044 697 q 1093 692 1078 699 q 1124 685 1108 686 m 354 533 q 378 567 372 544 q 371 607 383 589 q 338 631 360 625 q 297 624 317 636 q 222 551 247 592 q 187 472 196 511 q 178 407 178 433 q 178 378 178 381 q 197 342 181 356 q 236 331 214 328 q 272 350 258 333 q 285 389 286 367 q 286 417 285 392 q 302 476 288 443 q 354 533 317 508 z "},"そ":{"ha":1389,"x_min":171,"x_max":1290,"o":"m 579 106 q 428 136 503 106 q 294 221 354 167 q 201 346 235 275 q 183 406 192 364 q 172 502 174 447 q 183 615 171 557 q 230 725 196 672 q 325 816 264 778 q 483 867 386 854 q 576 857 542 875 q 628 811 611 839 q 651 762 646 783 q 657 740 657 740 q 661 703 657 740 q 673 606 665 667 q 690 468 681 544 q 701 383 694 429 q 712 303 707 336 q 717 269 717 269 q 703 165 726 200 q 644 118 681 131 q 579 106 608 106 m 274 658 q 272 618 264 639 q 299 588 279 597 q 337 586 317 578 q 365 614 357 594 q 403 662 379 644 q 451 688 426 679 q 493 697 475 696 q 513 699 511 699 q 548 715 533 700 q 561 754 563 731 q 545 792 560 776 q 510 806 531 807 q 479 803 507 806 q 413 786 451 800 q 335 742 374 772 q 274 658 297 713 m 1121 763 q 1209 732 1169 758 q 1269 663 1249 706 q 1286 571 1290 619 q 1239 297 1276 435 q 1140 31 1201 160 q 996 -211 1078 -99 q 923 -270 967 -251 q 832 -285 879 -289 q 744 -251 785 -281 q 685 -178 704 -222 q 672 -86 667 -133 q 706 0 676 -39 q 858 286 800 131 q 928 597 917 442 q 959 686 932 647 q 1029 746 986 725 q 1121 763 1072 767 z "},"ぞ":{"ha":1389,"x_min":158,"x_max":1306,"o":"m 567 106 q 415 136 489 106 q 282 221 342 167 q 189 346 222 275 q 171 406 181 364 q 160 502 161 447 q 171 615 158 557 q 217 725 183 672 q 313 816 251 778 q 471 867 374 854 q 564 857 529 875 q 616 811 599 839 q 639 762 633 783 q 644 740 644 740 q 649 703 644 740 q 660 606 653 667 q 678 468 667 544 q 689 383 683 429 q 699 303 694 336 q 704 269 704 269 q 691 165 714 200 q 633 118 668 131 q 567 106 597 106 m 261 658 q 259 618 251 639 q 286 588 267 597 q 325 586 306 578 q 353 614 344 594 q 390 662 367 644 q 438 688 414 679 q 481 697 463 696 q 500 699 499 699 q 535 715 521 700 q 549 754 550 731 q 533 792 547 776 q 497 806 518 807 q 467 803 494 806 q 400 786 439 800 q 323 742 361 772 q 261 658 285 713 m 1178 968 q 1268 931 1231 968 q 1306 842 1306 894 q 1268 752 1306 789 q 1178 715 1231 715 q 1135 723 1156 715 q 1099 743 1115 731 q 1063 723 1083 731 q 1019 715 1042 715 q 930 752 967 715 q 893 842 893 789 q 930 931 893 894 q 1019 968 967 968 q 1063 960 1042 968 q 1099 940 1083 953 q 1135 960 1115 953 q 1178 968 1156 968 m 1178 683 q 1236 694 1207 683 q 1266 638 1256 669 q 1274 571 1276 606 q 1226 297 1264 435 q 1128 31 1189 160 q 983 -211 1067 -99 q 910 -270 954 -251 q 819 -285 867 -289 q 732 -251 772 -281 q 673 -178 692 -222 q 659 -86 654 -133 q 693 0 664 -39 q 846 286 788 131 q 915 597 904 442 q 928 651 917 625 q 956 697 939 676 q 1019 683 988 683 q 1061 690 1042 683 q 1099 707 1081 697 q 1137 690 1117 697 q 1178 683 1157 683 z "},"た":{"ha":1389,"x_min":114,"x_max":1276,"o":"m 696 886 q 924 860 829 886 q 1083 791 1019 833 q 1184 702 1146 749 q 1241 613 1222 656 q 1265 544 1260 571 q 1271 518 1271 518 q 1274 499 1272 508 q 1276 479 1276 489 q 1264 267 1276 383 q 1217 27 1251 150 q 1117 -207 1183 -96 q 1050 -272 1092 -250 q 961 -294 1008 -294 q 871 -269 914 -294 q 800 -193 822 -242 q 783 -93 778 -144 q 781 -94 782 -93 q 779 -94 781 -94 q 542 -96 635 -96 q 397 -94 450 -96 q 315 -86 343 -92 q 271 -69 286 -81 q 238 -42 256 -58 q 219 -20 228 -31 q 206 3 211 -10 q 153 138 172 67 q 125 276 133 208 q 115 401 117 344 q 115 490 114 457 q 122 533 115 510 q 129 559 122 533 q 156 625 136 585 q 214 710 175 665 q 316 794 253 754 q 472 860 379 835 q 696 886 565 886 m 364 615 q 388 648 383 626 q 382 689 393 669 q 347 713 369 708 q 307 707 325 718 q 231 634 257 675 q 197 554 206 593 q 188 489 188 515 q 188 460 188 463 q 208 424 190 438 q 247 413 225 411 q 283 431 269 414 q 296 471 297 449 q 296 499 294 472 q 311 558 297 525 q 364 615 325 592 m 893 222 q 901 265 897 243 q 907 308 904 286 q 874 308 907 308 q 793 308 842 308 q 696 308 744 308 q 599 308 647 308 q 517 308 550 308 q 485 308 485 308 q 489 286 486 297 q 493 264 492 275 q 626 264 551 264 q 775 265 701 264 q 893 222 843 265 z "},"だ":{"ha":1389,"x_min":114,"x_max":1276,"o":"m 1125 968 q 1215 931 1178 968 q 1251 842 1251 894 q 1215 752 1251 789 q 1125 715 1178 715 q 1083 723 1103 715 q 1046 743 1063 731 q 1009 723 1029 731 q 967 715 989 715 q 877 752 914 715 q 840 842 840 789 q 877 931 840 894 q 967 968 914 968 q 1009 960 989 968 q 1046 940 1029 953 q 1083 960 1063 953 q 1125 968 1103 968 m 1194 700 q 1244 619 1225 664 q 1271 518 1264 575 q 1274 499 1272 508 q 1276 479 1276 489 q 1264 267 1276 383 q 1217 27 1251 150 q 1117 -207 1183 -96 q 1050 -272 1092 -250 q 961 -294 1008 -294 q 871 -269 914 -294 q 800 -193 822 -242 q 783 -93 778 -144 q 781 -94 782 -93 q 779 -94 781 -94 q 542 -96 635 -96 q 397 -94 450 -96 q 315 -86 343 -92 q 271 -69 286 -81 q 238 -42 256 -58 q 219 -20 228 -31 q 206 3 211 -10 q 153 138 172 67 q 125 276 133 208 q 115 401 117 344 q 115 490 114 457 q 122 533 115 510 q 129 559 122 533 q 156 625 136 585 q 214 710 175 665 q 316 794 253 754 q 472 860 379 835 q 696 886 565 886 q 747 883 719 886 q 794 878 775 881 q 813 876 813 876 q 808 842 808 860 q 830 762 808 797 q 887 705 851 726 q 967 683 922 683 q 1008 690 988 683 q 1046 707 1028 697 q 1084 690 1064 697 q 1125 683 1104 683 q 1194 700 1164 683 m 364 615 q 388 648 383 626 q 382 689 393 669 q 347 713 369 708 q 307 707 325 718 q 231 634 257 675 q 197 554 206 593 q 188 489 188 515 q 188 460 188 463 q 208 424 190 438 q 247 413 225 411 q 283 431 269 414 q 296 471 297 449 q 296 499 294 472 q 311 558 297 525 q 364 615 325 592 m 893 222 q 901 265 897 243 q 907 308 904 286 q 874 308 907 308 q 793 308 842 308 q 696 308 744 308 q 599 308 647 308 q 517 308 550 308 q 485 308 485 308 q 489 286 486 297 q 493 264 492 275 q 626 264 551 264 q 775 265 701 264 q 893 222 843 265 z "},"ち":{"ha":1389,"x_min":117,"x_max":1274,"o":"m 694 878 q 939 848 839 878 q 1102 771 1039 818 q 1201 672 1165 724 q 1251 572 1236 619 q 1270 495 1267 525 q 1274 465 1274 465 q 1249 369 1274 403 q 1191 320 1224 335 q 1133 303 1158 306 q 1108 300 1108 300 q 1008 300 1061 300 q 903 300 954 300 q 901 279 901 289 q 901 258 901 269 l 1006 258 q 1096 234 1056 258 q 1160 169 1136 210 q 1185 79 1185 128 q 1160 -12 1185 29 q 1096 -77 1136 -53 q 1006 -101 1056 -101 l 863 -101 q 852 -138 857 -119 q 842 -172 847 -157 q 788 -249 825 -219 q 705 -289 751 -279 q 613 -282 658 -299 q 522 -210 554 -261 q 493 -101 490 -160 l 367 -101 q 276 -77 317 -101 q 212 -12 236 -53 q 188 79 188 29 q 212 169 188 128 q 276 234 236 210 q 367 258 317 258 l 542 258 q 543 279 543 269 q 543 300 543 289 q 412 300 482 300 q 282 300 342 300 q 257 303 282 300 q 199 320 232 306 q 142 369 167 335 q 117 465 117 403 q 120 495 117 465 q 139 572 124 525 q 189 672 154 619 q 288 771 224 724 q 451 848 351 818 q 694 878 550 878 m 357 600 q 381 633 375 611 q 374 674 386 656 q 341 698 363 693 q 300 692 319 703 q 224 619 250 660 q 190 539 199 578 q 181 474 181 500 q 181 444 181 447 q 200 408 183 422 q 239 397 217 394 q 275 417 261 400 q 288 456 289 433 q 289 484 288 458 q 305 543 290 510 q 357 600 319 576 z "},"ぢ":{"ha":1389,"x_min":117,"x_max":1274,"o":"m 1106 968 q 1195 931 1158 968 q 1232 842 1232 894 q 1195 752 1232 789 q 1106 715 1158 715 q 1063 723 1083 715 q 1026 743 1042 731 q 990 723 1010 731 q 947 715 969 715 q 857 752 894 715 q 819 842 819 789 q 857 931 819 894 q 947 968 894 968 q 990 960 969 968 q 1026 940 1010 953 q 1063 960 1042 953 q 1106 968 1083 968 m 1108 300 q 1008 300 1061 300 q 903 300 954 300 q 901 279 901 289 q 901 258 901 269 l 1006 258 q 1096 234 1056 258 q 1160 169 1136 210 q 1185 79 1185 128 q 1160 -12 1185 29 q 1096 -77 1136 -53 q 1006 -101 1056 -101 l 863 -101 q 852 -138 857 -119 q 842 -172 847 -157 q 788 -249 825 -219 q 705 -289 751 -279 q 613 -282 658 -299 q 522 -210 554 -261 q 493 -101 490 -160 l 367 -101 q 276 -77 317 -101 q 212 -12 236 -53 q 188 79 188 29 q 212 169 188 128 q 276 234 236 210 q 367 258 317 258 l 542 258 q 543 279 543 269 q 543 300 543 289 q 412 300 482 300 q 282 300 342 300 q 257 303 282 300 q 199 320 232 306 q 142 369 167 335 q 117 465 117 403 q 120 495 117 465 q 139 572 124 525 q 189 672 154 619 q 288 771 224 724 q 451 848 351 818 q 694 878 550 878 q 737 876 714 878 q 776 873 760 875 q 792 871 792 871 q 789 856 789 864 q 789 842 789 849 q 810 762 789 797 q 867 705 832 726 q 947 683 903 683 q 988 690 968 683 q 1026 707 1008 697 q 1064 690 1044 697 q 1106 683 1083 683 q 1146 689 1126 683 q 1182 704 1165 694 q 1249 601 1224 661 q 1274 465 1274 542 q 1249 369 1274 403 q 1191 320 1224 335 q 1133 303 1158 306 q 1108 300 1108 300 m 357 600 q 381 633 375 611 q 374 674 386 656 q 341 698 363 693 q 300 692 319 703 q 224 619 250 660 q 190 539 199 578 q 181 474 181 500 q 181 444 181 447 q 200 408 183 422 q 239 397 217 394 q 275 417 261 400 q 288 456 289 433 q 289 484 288 458 q 305 543 290 510 q 357 600 319 576 z "},"っ":{"ha":1389,"x_min":253,"x_max":1192,"o":"m 643 281 q 651 215 647 250 q 659 156 656 181 q 663 131 663 131 q 653 53 669 79 q 609 17 636 26 q 560 8 582 8 q 446 31 501 8 q 345 94 390 53 q 275 188 300 135 q 260 245 268 204 q 256 338 253 286 q 280 441 258 390 q 351 530 301 492 q 488 579 400 568 q 556 571 531 585 q 595 537 582 557 q 613 500 608 517 q 617 483 617 483 q 624 424 617 483 q 643 281 632 365 m 510 453 q 535 465 525 453 q 546 494 546 478 q 533 522 544 511 q 507 533 522 533 q 485 531 506 533 q 435 519 464 529 q 376 485 406 508 q 331 422 347 463 q 328 392 324 408 q 349 369 333 376 q 378 369 364 363 q 400 389 393 375 q 440 433 414 419 q 487 450 465 447 q 510 453 508 453 m 1064 511 q 1156 465 1119 507 q 1188 367 1192 422 q 1119 61 1176 214 q 969 -219 1063 -92 q 881 -274 936 -265 q 781 -249 826 -282 q 728 -161 736 -217 q 751 -61 719 -106 q 780 -20 767 -42 q 806 24 793 1 q 729 62 761 31 q 692 139 697 93 l 656 419 q 683 519 649 475 q 772 571 717 564 q 872 544 828 578 q 922 454 915 510 l 926 422 q 979 489 942 464 q 1064 511 1017 514 z "},"つ":{"ha":1389,"x_min":106,"x_max":1356,"o":"m 625 458 q 636 373 631 419 q 647 293 642 326 q 651 260 651 260 q 638 156 661 192 q 580 108 615 121 q 514 96 544 96 q 363 125 436 94 q 229 210 289 156 q 136 335 169 264 q 118 395 128 353 q 107 492 108 438 q 118 604 106 546 q 165 715 131 663 q 260 805 199 767 q 418 856 321 843 q 511 846 476 864 q 563 800 546 828 q 586 751 581 772 q 592 729 592 729 q 596 692 592 729 q 607 594 600 656 q 625 458 614 533 m 447 688 q 483 705 468 689 q 496 743 497 721 q 480 781 494 765 q 444 794 465 796 q 414 792 442 794 q 347 776 386 789 q 270 733 308 763 q 208 649 232 703 q 206 607 199 628 q 233 576 214 586 q 272 575 253 567 q 300 604 292 583 q 338 652 314 635 q 385 677 361 669 q 428 686 410 685 q 447 688 446 688 m 1186 765 q 1274 735 1236 761 q 1334 665 1313 708 q 1351 574 1356 622 q 1304 301 1342 439 q 1205 34 1267 164 q 1061 -208 1143 -96 q 987 -267 1031 -249 q 897 -282 943 -286 q 810 -247 850 -278 q 751 -174 769 -218 q 737 -83 732 -131 q 771 3 742 -36 q 842 115 808 57 q 740 166 783 124 q 690 269 697 208 l 642 644 q 655 738 636 694 q 710 810 674 781 q 797 846 747 839 q 890 833 847 853 q 963 776 933 814 q 999 690 992 739 l 1003 647 q 1074 737 1024 703 q 1186 765 1124 771 z "},"づ":{"ha":1389,"x_min":107,"x_max":1360,"o":"m 626 458 q 637 373 631 419 q 648 293 643 326 q 653 260 653 260 q 640 156 663 192 q 581 108 617 121 q 515 96 544 96 q 365 125 439 94 q 231 210 290 156 q 138 335 171 264 q 119 395 128 353 q 108 492 110 438 q 119 604 107 546 q 166 715 132 663 q 261 805 200 767 q 419 856 322 843 q 512 846 478 864 q 563 800 546 828 q 586 751 581 772 q 592 729 592 729 q 596 692 592 729 q 608 594 600 656 q 626 458 617 533 m 449 688 q 484 705 469 689 q 497 743 499 721 q 481 781 496 765 q 446 794 467 796 q 415 792 443 794 q 349 776 388 789 q 272 733 310 763 q 210 649 233 703 q 208 607 200 628 q 235 576 215 586 q 273 575 253 567 q 301 604 293 583 q 339 652 315 635 q 387 677 363 669 q 429 686 411 685 q 449 688 447 688 m 1211 968 q 1301 931 1264 968 q 1338 842 1338 894 q 1301 752 1338 789 q 1211 715 1264 715 q 1169 723 1189 715 q 1132 743 1149 731 q 1095 723 1115 731 q 1053 715 1075 715 q 963 752 1000 715 q 926 842 926 789 q 963 931 926 894 q 1053 968 1000 968 q 1095 960 1075 968 q 1132 940 1115 953 q 1169 960 1149 953 q 1211 968 1189 968 m 1211 683 q 1301 713 1261 683 q 1353 574 1360 654 q 1306 301 1343 439 q 1206 34 1268 164 q 1063 -208 1144 -96 q 989 -267 1033 -249 q 897 -282 944 -286 q 811 -247 850 -278 q 752 -174 771 -218 q 738 -83 733 -131 q 772 3 743 -36 q 843 115 810 57 q 742 166 785 124 q 692 269 699 208 l 643 644 q 656 738 636 694 q 713 810 675 781 q 799 846 750 839 q 896 831 850 851 q 927 746 899 783 q 999 693 956 708 q 1000 690 999 692 l 1004 647 q 1025 686 1011 667 q 1039 684 1032 685 q 1053 683 1046 683 q 1094 690 1074 683 q 1132 707 1114 697 q 1170 690 1150 697 q 1211 683 1190 683 z "},"て":{"ha":1389,"x_min":117,"x_max":1274,"o":"m 694 881 q 939 851 839 881 q 1102 774 1039 821 q 1201 674 1165 726 q 1251 575 1236 622 q 1270 498 1267 528 q 1274 468 1274 468 q 1249 372 1274 406 q 1191 323 1224 338 q 1133 306 1158 308 q 1108 303 1108 303 q 1057 303 1108 303 q 913 303 1006 303 q 694 303 819 303 q 478 303 571 303 q 333 303 385 303 q 282 303 282 303 q 257 306 282 303 q 199 323 232 308 q 142 372 167 338 q 117 468 117 406 q 120 498 117 468 q 139 575 124 528 q 189 674 154 622 q 288 774 224 726 q 451 851 351 821 q 694 881 550 881 m 357 603 q 381 636 375 614 q 374 678 386 658 q 341 701 363 697 q 300 694 319 706 q 224 622 250 663 q 190 542 199 581 q 181 476 181 503 q 181 447 181 450 q 200 411 183 425 q 239 400 217 397 q 275 419 261 403 q 288 458 289 436 q 289 487 288 461 q 305 546 290 513 q 357 603 319 579 m 1006 261 q 1096 237 1056 261 q 1160 172 1136 213 q 1185 82 1185 131 q 1160 -9 1185 32 q 1096 -74 1136 -50 q 1006 -99 1056 -99 l 858 -99 l 851 -142 q 813 -228 843 -192 q 738 -281 782 -264 q 644 -289 693 -297 q 532 -222 575 -278 q 494 -99 489 -167 l 367 -99 q 276 -74 317 -99 q 212 -9 236 -50 q 188 82 188 32 q 212 172 188 131 q 276 237 236 213 q 367 261 317 261 l 1006 261 z "},"で":{"ha":1389,"x_min":117,"x_max":1274,"o":"m 1006 261 q 1096 237 1056 261 q 1160 172 1136 213 q 1185 82 1185 131 q 1160 -9 1185 32 q 1096 -74 1136 -50 q 1006 -99 1056 -99 l 858 -99 l 851 -142 q 813 -228 843 -192 q 738 -281 782 -264 q 644 -289 693 -297 q 532 -222 575 -278 q 494 -99 489 -167 l 367 -99 q 276 -74 317 -99 q 212 -9 236 -50 q 188 82 188 32 q 212 172 188 131 q 276 237 236 213 q 367 261 317 261 l 1006 261 m 1119 968 q 1209 931 1172 968 q 1246 842 1246 894 q 1209 752 1246 789 q 1119 715 1172 715 q 1077 723 1097 715 q 1040 743 1057 731 q 1003 723 1024 731 q 961 715 983 715 q 872 752 908 715 q 835 842 835 789 q 872 931 835 894 q 961 968 908 968 q 1003 960 983 968 q 1040 940 1024 953 q 1077 960 1057 953 q 1119 968 1097 968 m 1119 683 q 1189 700 1158 683 q 1251 599 1228 657 q 1274 468 1274 542 q 1249 372 1274 406 q 1191 323 1224 338 q 1133 306 1158 308 q 1108 303 1108 303 q 1057 303 1108 303 q 913 303 1006 303 q 694 303 819 303 q 478 303 571 303 q 333 303 385 303 q 282 303 282 303 q 257 306 282 303 q 199 323 232 308 q 142 372 167 338 q 117 468 117 406 q 120 498 117 468 q 139 575 124 528 q 189 674 154 622 q 288 774 224 726 q 451 851 351 821 q 694 881 550 881 q 743 878 717 881 q 788 874 769 876 q 806 872 806 872 q 803 857 804 865 q 803 842 803 849 q 824 762 803 797 q 881 705 846 726 q 961 683 917 683 q 1002 690 982 683 q 1040 707 1022 697 q 1078 690 1058 697 q 1119 683 1099 683 m 357 603 q 381 636 375 614 q 374 678 386 658 q 341 701 363 697 q 300 694 319 706 q 224 622 250 663 q 190 542 199 581 q 181 476 181 503 q 181 447 181 450 q 200 411 183 425 q 239 400 217 397 q 275 419 261 403 q 288 458 289 436 q 289 487 288 461 q 305 546 290 513 q 357 603 319 579 z "},"と":{"ha":1389,"x_min":224,"x_max":1161,"o":"m 1007 351 q 1092 310 1056 342 q 1144 235 1128 279 q 1151 142 1161 190 q 1110 58 1142 93 q 1035 6 1079 22 q 942 -1 990 -11 q 888 8 914 3 q 839 21 863 14 q 831 -51 836 -14 q 819 -119 826 -87 q 811 -144 819 -119 q 783 -200 803 -168 q 726 -257 763 -232 q 633 -282 690 -282 q 603 -278 633 -282 q 526 -260 574 -275 q 427 -208 479 -244 q 328 -108 375 -172 q 253 56 282 -44 q 225 300 224 156 q 257 544 226 444 q 335 706 288 643 q 436 803 383 768 q 536 853 489 839 q 613 871 583 868 q 643 874 643 874 q 728 847 694 872 q 781 790 761 822 q 808 733 800 757 q 817 708 817 708 q 839 547 833 631 q 846 400 844 464 q 909 375 869 389 q 1007 351 949 361 m 710 750 q 698 790 711 772 q 663 810 685 808 q 633 810 660 810 q 568 802 607 811 q 488 768 529 793 q 415 693 447 743 q 408 653 403 675 q 432 618 414 631 q 472 612 450 607 q 506 635 494 617 q 564 686 531 672 q 623 701 597 700 q 650 703 649 703 q 690 714 672 700 q 710 750 708 728 z "},"ど":{"ha":1389,"x_min":224,"x_max":1161,"o":"m 1025 968 q 1115 931 1078 968 q 1153 842 1153 894 q 1115 752 1153 789 q 1025 715 1078 715 q 983 723 1003 715 q 946 743 963 731 q 910 723 931 731 q 867 715 889 715 q 777 752 814 715 q 740 842 740 789 q 777 931 740 894 q 867 968 814 968 q 910 960 889 968 q 946 940 931 953 q 983 960 963 953 q 1025 968 1003 968 m 1007 351 q 1092 310 1056 342 q 1144 235 1128 279 q 1151 142 1161 190 q 1110 58 1142 93 q 1035 6 1079 22 q 942 -1 990 -11 q 888 8 914 3 q 839 21 863 14 q 831 -51 836 -14 q 819 -119 826 -87 q 811 -144 819 -119 q 783 -200 803 -168 q 726 -257 763 -232 q 633 -282 690 -282 q 603 -278 633 -282 q 526 -260 574 -275 q 427 -208 479 -244 q 328 -108 375 -172 q 253 56 282 -44 q 225 300 224 156 q 257 544 226 444 q 335 706 288 643 q 436 803 383 768 q 536 853 489 839 q 613 871 583 868 q 643 874 643 874 q 688 863 667 872 q 710 854 710 854 q 709 848 710 851 q 708 842 708 844 q 740 747 708 789 q 819 692 772 706 q 840 539 835 618 q 846 400 844 460 q 909 375 869 389 q 1007 351 949 361 m 710 750 q 698 790 711 772 q 663 810 685 808 q 633 810 660 810 q 568 802 607 811 q 488 768 529 793 q 415 693 447 743 q 408 653 403 675 q 432 618 414 631 q 472 612 450 607 q 506 635 494 617 q 564 686 531 672 q 623 701 597 700 q 650 703 649 703 q 690 714 672 700 q 710 750 708 728 z "},"な":{"ha":1389,"x_min":117,"x_max":1274,"o":"m 1108 251 q 999 251 1057 251 q 885 251 940 251 q 872 46 883 149 q 828 -160 860 -57 q 778 -239 814 -207 q 697 -281 743 -271 q 603 -278 650 -292 q 524 -227 556 -262 q 481 -146 492 -192 q 486 -53 471 -100 q 517 94 508 18 q 526 251 525 169 q 403 251 468 251 q 282 251 339 251 q 257 254 282 251 q 199 272 232 257 q 142 320 167 286 q 117 417 117 354 q 157 588 117 518 q 261 703 197 658 q 397 774 325 749 q 533 813 469 800 l 535 819 q 567 908 539 869 q 638 966 594 946 q 731 982 681 986 q 846 924 800 975 q 893 806 892 874 q 1022 764 956 792 q 1146 691 1089 736 q 1238 578 1203 646 q 1274 417 1274 511 q 1249 320 1274 354 q 1191 272 1224 286 q 1133 254 1158 257 q 1108 251 1108 251 m 357 553 q 381 586 375 564 q 374 626 386 608 q 341 650 363 644 q 300 644 319 656 q 224 572 250 613 q 190 492 199 531 q 181 426 181 453 q 181 397 181 400 q 200 361 183 375 q 239 350 217 347 q 275 369 261 353 q 288 408 289 386 q 289 437 288 411 q 305 495 290 463 q 357 553 319 528 z "},"に":{"ha":1389,"x_min":117,"x_max":1274,"o":"m 282 314 q 257 317 282 314 q 199 334 232 319 q 142 383 167 349 q 117 479 117 417 q 120 509 117 479 q 139 586 124 539 q 189 686 154 633 q 288 786 224 739 q 451 863 351 833 q 694 893 550 893 q 939 863 839 893 q 1102 786 1039 833 q 1201 686 1165 739 q 1251 586 1236 633 q 1270 509 1267 539 q 1274 479 1274 479 q 1249 383 1274 417 q 1191 334 1224 349 q 1133 317 1158 319 q 1108 314 1108 314 q 1057 314 1108 314 q 913 314 1006 314 q 694 314 819 314 q 478 314 571 314 q 333 314 385 314 q 282 314 282 314 m 300 706 q 224 634 250 675 q 190 554 199 593 q 181 489 181 515 q 181 460 181 463 q 200 424 183 438 q 239 413 217 411 q 275 431 261 414 q 288 471 289 449 q 289 499 288 472 q 305 558 290 525 q 357 615 319 592 q 381 648 375 626 q 374 689 386 669 q 341 713 363 708 q 300 706 319 718 m 354 88 l 1029 88 q 1119 63 1078 88 q 1184 -2 1160 39 q 1208 -93 1208 -43 q 1184 -183 1208 -142 q 1119 -248 1160 -224 q 1029 -272 1078 -272 l 354 -272 q 263 -248 304 -272 q 199 -183 222 -224 q 175 -93 175 -142 q 199 -2 175 -43 q 263 63 222 39 q 354 88 304 88 z "},"ぬ":{"ha":1389,"x_min":111,"x_max":1275,"o":"m 276 313 q 251 315 276 313 q 194 333 226 318 q 136 381 161 347 q 111 478 111 415 q 115 508 111 478 q 133 585 118 538 q 183 685 149 632 q 282 785 218 738 q 445 862 346 832 q 689 892 544 892 q 921 865 825 892 q 1081 794 1017 838 q 1182 703 1144 751 q 1238 611 1219 654 q 1261 541 1256 568 q 1267 514 1267 514 q 1268 438 1275 476 q 1236 365 1261 399 q 1117 224 1183 294 q 978 83 1051 153 q 1015 73 996 78 q 1051 63 1033 68 q 1133 16 1100 50 q 1178 -63 1165 -18 q 1179 -157 1192 -108 q 1133 -238 1167 -206 q 1053 -284 1099 -271 q 960 -285 1008 -297 q 800 -235 878 -262 q 651 -175 722 -208 q 574 -224 613 -200 q 497 -269 536 -247 q 407 -293 454 -294 q 319 -268 360 -292 q 253 -201 278 -244 q 229 -111 228 -158 q 254 -22 231 -64 q 321 43 278 19 q 326 46 321 43 q 303 144 300 92 q 339 242 306 197 q 407 296 367 278 q 489 313 447 314 q 381 313 436 313 q 276 313 325 313 m 689 313 q 599 313 644 313 q 524 313 554 313 q 493 313 493 313 q 592 276 547 310 q 608 264 599 269 q 625 253 617 258 q 660 282 643 267 q 696 313 678 297 q 694 313 696 313 q 689 313 692 313 m 294 704 q 219 632 244 672 q 184 553 193 592 q 175 488 175 514 q 175 458 175 461 q 194 422 178 436 q 233 411 211 408 q 269 431 256 414 q 282 469 283 447 q 283 498 282 472 q 299 556 285 524 q 351 614 314 589 q 375 647 369 625 q 368 688 381 669 q 335 711 357 706 q 294 704 314 717 z "},"ね":{"ha":1389,"x_min":117,"x_max":1274,"o":"m 282 249 q 257 251 282 249 q 199 269 232 254 q 142 317 167 283 q 117 414 117 351 q 155 581 117 511 q 253 695 193 650 q 383 767 314 740 q 517 807 453 793 l 517 817 q 541 907 517 867 q 606 972 565 947 q 696 996 647 996 q 787 972 746 996 q 852 907 828 947 q 876 817 876 867 l 876 806 q 1009 765 940 792 q 1138 694 1078 739 q 1236 580 1199 649 q 1274 414 1274 511 q 1258 341 1274 371 q 1226 296 1242 311 q 1211 281 1211 281 q 1131 190 1172 233 q 1044 108 1089 147 q 1057 104 1050 106 q 1071 101 1064 103 q 1156 61 1119 92 q 1208 -14 1192 31 q 1215 -107 1225 -58 q 1174 -192 1206 -156 q 1099 -244 1143 -228 q 1006 -251 1054 -261 q 849 -201 924 -236 q 783 -267 825 -242 q 692 -290 742 -292 q 601 -265 642 -290 q 538 -199 561 -239 q 473 -224 506 -211 q 407 -246 440 -236 q 313 -251 360 -261 q 231 -209 267 -240 q 181 -131 196 -178 q 176 -37 165 -83 q 218 45 186 10 q 297 96 250 81 q 475 165 392 126 q 633 249 558 203 q 531 249 592 249 q 404 249 469 249 q 282 249 339 249 m 300 640 q 224 568 250 608 q 190 489 199 528 q 181 424 181 450 q 181 394 181 397 q 200 358 183 372 q 239 347 217 344 q 275 367 261 350 q 288 406 289 383 q 289 434 288 408 q 305 492 290 460 q 357 550 319 525 q 381 583 375 561 q 374 624 386 606 q 341 647 363 642 q 300 640 319 653 z "},"の":{"ha":1389,"x_min":231,"x_max":1067,"o":"m 338 -226 q 262 -165 285 -197 q 235 -103 239 -133 q 238 -49 231 -74 q 253 -10 244 -25 q 261 4 261 4 q 378 177 322 88 q 472 344 433 267 q 556 524 511 422 q 624 738 600 626 q 630 753 624 738 q 651 788 636 768 q 690 824 665 808 q 753 839 715 839 q 844 814 792 839 q 871 797 844 814 q 933 746 897 781 q 1003 655 969 711 q 1051 519 1036 599 q 1050 336 1067 440 q 968 100 1033 232 q 835 -103 906 -28 q 694 -212 764 -178 q 559 -255 624 -247 q 445 -255 494 -262 q 367 -237 396 -247 q 338 -226 338 -226 m 731 733 q 732 692 722 713 q 763 664 742 671 q 786 651 764 664 q 832 610 808 638 q 861 539 856 583 q 881 503 864 517 q 921 490 897 489 q 956 510 943 492 q 968 550 969 528 q 936 649 961 608 q 880 715 911 690 q 825 752 849 740 q 799 764 801 764 q 758 763 778 772 q 731 733 738 753 z "},"は":{"ha":1389,"x_min":125,"x_max":1344,"o":"m 1199 576 q 1244 291 1211 447 q 1329 -46 1278 135 q 1331 -144 1344 -96 q 1284 -229 1318 -193 q 1200 -279 1250 -265 q 1102 -282 1150 -294 q 1017 -235 1054 -269 q 967 -150 981 -200 q 875 220 911 47 q 824 539 839 393 q 839 636 818 592 q 899 710 860 681 q 992 746 939 740 q 1089 729 1044 750 q 1163 668 1133 708 q 1199 576 1193 628 m 635 839 q 718 787 690 819 q 756 720 746 754 q 765 663 765 686 q 765 640 765 640 q 747 424 764 533 q 711 228 731 314 q 662 42 692 143 q 585 -161 632 -58 q 572 -185 585 -161 q 532 -239 558 -210 q 464 -285 506 -268 q 365 -286 422 -301 q 342 -278 365 -286 q 283 -249 318 -271 q 214 -184 249 -226 q 155 -73 179 -142 q 128 97 131 -4 q 157 339 125 199 q 235 573 188 481 q 335 719 282 665 q 442 800 389 774 q 538 834 494 826 q 608 840 582 842 q 635 839 635 839 m 672 703 q 669 744 679 724 q 639 771 660 764 q 613 777 636 772 q 552 781 589 782 q 473 761 515 779 q 393 697 431 743 q 378 658 379 679 q 393 621 378 636 q 431 606 408 606 q 469 621 454 606 q 531 663 501 653 q 582 671 561 672 q 604 669 603 669 q 645 673 625 664 q 672 703 665 682 z "},"ば":{"ha":1389,"x_min":125,"x_max":1344,"o":"m 635 843 q 718 791 690 824 q 756 725 746 758 q 765 669 765 692 q 765 646 765 646 q 747 428 764 539 q 711 233 731 318 q 662 48 692 149 q 585 -156 632 -53 q 572 -180 585 -156 q 532 -234 558 -204 q 464 -281 506 -264 q 365 -282 422 -297 q 342 -274 365 -282 q 283 -244 318 -267 q 214 -180 249 -222 q 155 -68 179 -137 q 128 103 131 1 q 157 344 125 204 q 235 577 188 485 q 335 724 282 669 q 442 805 389 779 q 538 838 494 831 q 608 844 582 846 q 635 843 635 843 m 672 708 q 669 749 679 729 q 639 776 660 769 q 613 783 636 778 q 552 786 589 788 q 474 767 515 785 q 394 703 432 749 q 379 663 381 685 q 393 626 378 642 q 431 610 408 611 q 469 625 454 610 q 531 667 501 657 q 582 676 561 678 q 604 675 603 675 q 645 678 625 668 q 672 708 665 688 m 1149 968 q 1239 931 1201 968 q 1276 842 1276 894 q 1239 752 1276 789 q 1149 715 1201 715 q 1106 723 1126 715 q 1069 743 1086 731 q 1034 723 1054 731 q 990 715 1014 715 q 901 752 939 715 q 864 842 864 789 q 901 931 864 894 q 990 968 939 968 q 1034 960 1014 968 q 1069 940 1054 953 q 1106 960 1086 953 q 1149 968 1126 968 m 1329 -40 q 1331 -139 1344 -90 q 1284 -224 1318 -187 q 1200 -275 1250 -261 q 1102 -276 1150 -289 q 1017 -230 1054 -264 q 967 -146 981 -196 q 875 224 911 51 q 824 544 839 397 q 839 640 818 596 q 897 714 860 685 q 990 683 939 683 q 1032 690 1013 683 q 1069 707 1051 697 q 1108 690 1089 697 q 1149 683 1128 683 q 1151 683 1150 683 q 1156 683 1153 683 q 1199 582 1193 640 q 1244 297 1211 453 q 1329 -40 1278 140 z "},"ぱ":{"ha":1389,"x_min":125,"x_max":1344,"o":"m 635 839 q 718 787 690 819 q 756 720 746 754 q 765 663 765 686 q 765 640 765 640 q 747 424 764 533 q 711 228 731 314 q 662 42 692 143 q 585 -161 632 -58 q 572 -185 585 -161 q 532 -239 558 -210 q 464 -285 506 -268 q 365 -286 422 -301 q 342 -278 365 -286 q 283 -249 318 -271 q 214 -184 249 -226 q 155 -73 179 -142 q 128 97 131 -4 q 157 339 125 199 q 235 573 188 481 q 335 719 282 665 q 442 800 389 774 q 538 834 494 826 q 608 840 582 842 q 635 839 635 839 m 672 703 q 669 744 679 724 q 639 771 660 764 q 613 777 636 772 q 552 781 589 782 q 474 761 515 779 q 394 697 432 743 q 379 658 381 679 q 393 621 378 636 q 431 606 408 606 q 469 621 454 606 q 531 663 501 653 q 582 671 561 672 q 604 669 603 669 q 645 673 625 664 q 672 703 665 682 m 1200 563 q 1329 -46 1228 306 q 1331 -144 1344 -96 q 1284 -229 1318 -193 q 1200 -279 1250 -265 q 1102 -282 1150 -294 q 1017 -235 1054 -269 q 967 -150 981 -200 q 875 220 911 47 q 824 539 839 393 q 840 638 817 592 q 903 713 863 685 q 983 595 922 642 q 1121 549 1043 549 q 1200 563 1164 549 m 1121 971 q 1219 944 1175 971 q 1290 874 1264 918 q 1315 775 1315 829 q 1290 676 1315 721 q 1219 606 1264 632 q 1121 579 1175 579 q 1022 606 1067 579 q 951 676 978 632 q 925 775 925 721 q 951 874 925 829 q 1022 944 978 918 q 1121 971 1067 971 m 1121 721 q 1159 737 1143 721 q 1175 775 1175 753 q 1159 813 1175 797 q 1121 829 1143 829 q 1082 813 1097 829 q 1067 775 1067 797 q 1082 737 1067 753 q 1121 721 1097 721 z "},"ひ":{"ha":1389,"x_min":114,"x_max":1276,"o":"m 700 825 q 944 795 844 825 q 1106 718 1043 765 q 1204 619 1169 671 q 1254 519 1239 567 q 1273 442 1269 472 q 1276 413 1276 413 q 1251 316 1276 350 q 1194 267 1226 282 q 1136 250 1161 253 q 1111 247 1111 247 q 1060 247 1111 247 q 916 247 1008 247 q 700 247 824 247 q 608 247 654 247 q 531 247 561 247 q 500 247 500 247 q 519 165 508 206 q 546 86 531 124 q 669 86 597 86 q 820 86 740 86 q 978 88 900 86 q 1069 65 1028 89 q 1134 -1 1110 40 q 1160 -90 1158 -42 q 1136 -180 1160 -139 q 1072 -245 1113 -221 q 982 -271 1031 -269 q 681 -273 797 -272 q 497 -272 564 -274 q 395 -263 429 -269 q 344 -246 361 -257 q 308 -217 326 -235 q 294 -201 301 -210 q 282 -185 288 -193 q 197 -1 228 -99 q 151 197 167 96 q 128 395 135 297 q 117 581 122 493 q 114 599 114 589 q 114 618 114 608 l 119 749 q 148 837 122 797 q 215 899 174 876 q 306 919 256 922 q 410 881 365 917 q 469 792 454 844 q 504 800 469 792 q 592 817 539 808 q 700 825 646 825 m 300 764 q 322 800 318 778 q 311 840 325 822 q 276 861 299 858 q 236 851 254 864 q 185 787 201 826 q 166 706 169 747 q 165 633 163 665 q 168 589 167 601 q 189 553 171 567 q 229 543 207 540 q 265 564 251 546 q 275 604 278 582 q 272 664 271 631 q 279 725 272 697 q 300 764 286 753 z "},"び":{"ha":1389,"x_min":114,"x_max":1276,"o":"m 1107 968 q 1197 931 1160 968 q 1235 842 1235 894 q 1197 752 1235 789 q 1107 715 1160 715 q 1065 723 1085 715 q 1028 743 1044 731 q 992 723 1013 731 q 949 715 972 715 q 860 752 897 715 q 822 842 822 789 q 860 931 822 894 q 949 968 897 968 q 992 960 972 968 q 1028 940 1013 953 q 1065 960 1044 953 q 1107 968 1085 968 m 1111 253 q 1060 253 1111 253 q 916 253 1008 253 q 700 253 824 253 q 608 253 654 253 q 531 253 561 253 q 500 253 500 253 q 519 169 508 210 q 546 92 531 129 q 668 92 597 92 q 819 92 739 92 q 978 93 900 92 q 1069 69 1028 93 q 1134 5 1110 46 q 1160 -85 1158 -36 q 1136 -175 1160 -133 q 1072 -241 1113 -217 q 982 -265 1031 -265 q 681 -268 797 -267 q 497 -267 564 -269 q 395 -259 429 -265 q 344 -242 361 -253 q 308 -212 326 -231 q 294 -196 301 -204 q 282 -179 288 -187 q 197 4 228 -93 q 151 202 167 101 q 128 400 135 303 q 117 585 122 497 q 114 604 114 594 q 114 624 114 614 l 119 753 q 148 842 122 803 q 215 905 174 882 q 306 925 256 928 q 410 886 365 922 q 471 797 454 850 q 506 806 471 797 q 593 822 540 814 q 700 829 646 829 q 760 826 728 829 q 793 824 793 824 q 844 724 800 764 q 949 683 889 683 q 990 690 971 683 q 1028 707 1010 697 q 1067 690 1047 697 q 1107 683 1086 683 q 1150 690 1126 683 q 1241 578 1206 644 q 1276 418 1276 511 q 1251 322 1276 356 q 1194 273 1226 288 q 1136 256 1161 258 q 1111 253 1111 253 m 300 769 q 322 805 318 783 q 311 844 325 826 q 276 867 299 864 q 236 856 254 869 q 185 792 201 831 q 166 712 169 753 q 165 639 163 671 q 168 594 167 607 q 189 559 171 572 q 229 549 207 546 q 265 569 251 551 q 275 610 278 588 q 272 669 271 636 q 279 731 272 703 q 300 769 286 758 z "},"ぴ":{"ha":1389,"x_min":114,"x_max":1276,"o":"m 1111 247 q 1060 247 1111 247 q 916 247 1008 247 q 700 247 824 247 q 608 247 654 247 q 531 247 561 247 q 500 247 500 247 q 519 165 508 206 q 546 86 531 124 q 668 86 597 86 q 819 86 739 86 q 978 88 900 86 q 1069 65 1028 89 q 1134 -1 1110 40 q 1160 -90 1158 -42 q 1136 -180 1160 -139 q 1072 -245 1113 -221 q 982 -271 1031 -269 q 681 -273 797 -272 q 497 -272 564 -274 q 395 -263 429 -269 q 344 -246 361 -257 q 308 -217 326 -235 q 294 -201 301 -210 q 282 -185 288 -193 q 197 -1 228 -99 q 151 197 167 96 q 128 395 135 297 q 117 581 122 493 q 114 599 114 589 q 114 618 114 608 l 119 749 q 148 837 122 797 q 215 899 174 876 q 306 919 256 922 q 410 881 365 917 q 471 792 454 844 q 506 800 471 792 q 593 817 540 808 q 700 825 646 825 q 754 822 725 825 q 803 817 783 819 q 824 814 824 814 q 822 794 822 804 q 821 775 821 785 q 851 661 821 713 q 933 579 882 610 q 1047 549 985 549 q 1138 567 1096 549 q 1213 619 1181 586 q 1259 528 1242 579 q 1276 413 1276 478 q 1251 316 1276 350 q 1194 267 1226 282 q 1136 250 1161 253 q 1111 247 1111 247 m 300 764 q 322 800 318 778 q 311 840 325 822 q 276 861 299 858 q 236 851 254 864 q 185 787 201 826 q 166 706 169 747 q 165 633 163 665 q 168 589 167 601 q 189 553 171 567 q 229 543 207 540 q 265 564 251 546 q 275 604 278 582 q 272 664 271 631 q 279 725 272 697 q 300 764 286 753 m 1047 971 q 1146 944 1101 971 q 1217 874 1190 918 q 1243 775 1243 829 q 1217 676 1243 721 q 1146 606 1190 632 q 1047 579 1101 579 q 949 606 993 579 q 878 676 904 632 q 851 775 851 721 q 878 874 851 829 q 949 944 904 918 q 1047 971 993 971 m 1047 721 q 1085 737 1069 721 q 1101 775 1101 753 q 1085 813 1101 797 q 1047 829 1069 829 q 1009 813 1025 829 q 993 775 993 797 q 1009 737 993 753 q 1047 721 1025 721 z "},"ふ":{"ha":1389,"x_min":115,"x_max":1274,"o":"m 1272 483 q 1272 471 1272 478 q 1271 464 1271 464 q 1273 449 1272 457 q 1274 435 1274 442 q 1251 217 1274 328 q 1188 -1 1229 106 q 1088 -200 1146 -108 q 1019 -263 1061 -242 q 928 -284 976 -285 q 839 -257 881 -283 q 776 -188 797 -231 q 756 -98 754 -146 q 783 -8 757 -50 q 859 148 828 63 q 904 318 890 233 q 872 318 904 318 q 790 318 839 318 q 693 318 742 318 q 476 318 569 318 q 332 318 383 318 q 281 318 281 318 q 256 321 281 318 q 198 338 231 324 q 140 387 165 353 q 115 483 115 421 q 119 513 115 483 q 138 590 122 543 q 188 690 153 638 q 286 789 222 742 q 449 866 350 836 q 693 896 549 896 q 938 866 838 896 q 1101 789 1038 836 q 1199 690 1164 742 q 1250 590 1235 638 q 1269 513 1265 543 q 1272 483 1272 483 m 363 625 q 386 658 381 636 q 379 699 392 681 q 347 722 368 717 q 306 717 325 728 q 230 644 256 685 q 195 564 204 603 q 186 499 186 525 q 186 469 186 472 q 206 433 189 447 q 244 422 222 419 q 281 442 267 425 q 293 481 294 458 q 294 509 293 483 q 310 567 296 535 q 363 625 325 600 z "},"ぶ":{"ha":1389,"x_min":115,"x_max":1274,"o":"m 1119 968 q 1209 931 1172 968 q 1246 842 1246 894 q 1209 752 1246 789 q 1119 715 1172 715 q 1077 723 1097 715 q 1040 743 1057 731 q 1003 723 1024 731 q 961 715 983 715 q 872 752 908 715 q 835 842 835 789 q 872 931 835 894 q 961 968 908 968 q 1003 960 983 968 q 1040 940 1024 953 q 1077 960 1057 953 q 1119 968 1097 968 m 1272 488 q 1272 476 1272 482 q 1271 469 1271 469 q 1273 455 1272 463 q 1274 440 1274 447 q 1251 222 1274 333 q 1188 4 1229 111 q 1088 -194 1146 -103 q 1019 -258 1061 -236 q 928 -279 976 -281 q 839 -251 881 -278 q 776 -183 797 -225 q 756 -92 754 -140 q 783 -3 757 -44 q 859 153 828 68 q 904 322 890 238 q 872 322 904 322 q 790 322 839 322 q 693 322 742 322 q 476 322 569 322 q 332 322 383 322 q 281 322 281 322 q 256 325 281 322 q 198 342 231 328 q 140 391 165 357 q 115 488 115 425 q 119 517 115 488 q 138 594 122 547 q 188 694 153 642 q 286 794 222 747 q 449 872 350 842 q 693 901 549 901 q 745 899 718 901 q 792 894 772 897 q 811 892 811 892 q 803 842 803 867 q 824 762 803 797 q 881 705 846 726 q 961 683 917 683 q 1002 690 982 683 q 1040 707 1022 697 q 1078 690 1058 697 q 1119 683 1099 683 q 1200 706 1163 683 q 1253 610 1233 664 q 1272 488 1272 556 m 363 631 q 386 664 381 642 q 379 704 392 686 q 347 728 368 722 q 306 721 325 733 q 230 649 256 689 q 195 569 204 608 q 186 504 186 531 q 186 475 186 478 q 206 439 189 453 q 244 428 222 425 q 281 447 267 431 q 293 486 294 464 q 294 515 293 489 q 310 573 296 540 q 363 631 325 606 z "},"ぷ":{"ha":1389,"x_min":115,"x_max":1274,"o":"m 1271 464 q 1273 449 1272 457 q 1274 435 1274 442 q 1251 217 1274 328 q 1188 -1 1229 106 q 1088 -200 1146 -108 q 1019 -263 1061 -242 q 928 -284 976 -285 q 839 -257 881 -283 q 776 -188 797 -231 q 756 -98 754 -146 q 783 -8 757 -50 q 859 148 828 63 q 904 318 890 233 q 872 318 904 318 q 790 318 839 318 q 693 318 742 318 q 476 318 569 318 q 332 318 383 318 q 281 318 281 318 q 256 321 281 318 q 198 338 231 324 q 140 387 165 353 q 115 483 115 421 q 119 513 115 483 q 138 590 122 543 q 188 690 153 638 q 286 789 222 742 q 449 866 350 836 q 693 896 549 896 q 758 892 725 896 q 815 885 792 889 q 838 882 838 882 q 811 775 811 832 q 842 661 811 713 q 924 579 872 610 q 1038 549 975 549 q 1149 577 1099 549 q 1231 654 1200 606 q 1261 576 1250 619 q 1272 483 1272 533 q 1272 471 1272 478 q 1271 464 1271 464 m 363 625 q 386 658 381 636 q 379 699 392 681 q 347 722 368 717 q 306 717 325 728 q 230 644 256 685 q 195 564 204 603 q 186 499 186 525 q 186 469 186 472 q 206 433 189 447 q 244 422 222 419 q 281 442 267 425 q 293 481 294 458 q 294 509 293 483 q 310 567 296 535 q 363 625 325 600 m 1038 971 q 1136 944 1092 971 q 1207 874 1181 918 q 1233 775 1233 829 q 1207 676 1233 721 q 1136 606 1181 632 q 1038 579 1092 579 q 940 606 983 579 q 869 676 896 632 q 843 775 843 721 q 869 874 843 829 q 940 944 896 918 q 1038 971 983 971 m 1038 721 q 1076 737 1061 721 q 1092 775 1092 753 q 1076 813 1092 797 q 1038 829 1061 829 q 1000 813 1015 829 q 985 775 985 797 q 1000 737 985 753 q 1038 721 1015 721 z "},"へ":{"ha":1389,"x_min":161,"x_max":1372,"o":"m 961 583 q 1166 303 1071 456 q 1351 -40 1261 150 q 1368 -133 1372 -86 q 1338 -219 1364 -181 q 1267 -279 1311 -258 q 1174 -296 1222 -300 q 1087 -265 1126 -292 q 1026 -194 1047 -239 q 928 -2 978 -92 q 826 165 878 88 q 813 144 826 165 q 789 103 800 122 q 681 -62 733 10 q 595 -174 629 -133 q 561 -214 561 -214 q 544 -229 561 -214 q 495 -260 526 -244 q 425 -278 464 -276 q 342 -253 386 -281 q 318 -235 342 -253 q 263 -180 294 -217 q 204 -87 231 -143 q 169 42 178 -32 q 185 210 161 117 q 281 418 210 304 q 421 586 349 526 q 563 669 493 646 q 694 693 633 693 q 803 680 756 693 q 876 654 850 667 q 903 642 903 642 q 933 614 919 631 q 946 597 946 597 q 954 591 950 594 q 961 583 958 588 m 874 507 q 885 547 888 525 q 865 582 882 568 q 840 597 864 583 q 778 622 817 610 q 690 633 739 633 q 586 607 640 632 q 559 576 567 597 q 561 535 551 556 q 592 508 571 515 q 633 510 613 500 q 712 525 675 529 q 773 510 749 521 q 799 497 797 499 q 838 488 817 485 q 874 507 860 490 z "},"べ":{"ha":1389,"x_min":161,"x_max":1372,"o":"m 961 588 q 1166 308 1071 461 q 1351 -35 1261 156 q 1368 -128 1372 -81 q 1338 -214 1364 -175 q 1267 -275 1311 -253 q 1174 -292 1222 -296 q 1087 -260 1126 -287 q 1026 -189 1047 -233 q 928 3 978 -86 q 826 171 878 93 q 813 149 826 171 q 789 108 800 126 q 681 -56 733 15 q 595 -168 629 -128 q 561 -208 561 -208 q 544 -224 561 -208 q 495 -255 526 -239 q 425 -273 464 -271 q 342 -247 386 -275 q 318 -229 342 -247 q 263 -174 294 -211 q 204 -82 231 -137 q 169 48 178 -26 q 185 216 161 122 q 281 424 210 310 q 421 592 349 532 q 563 675 493 651 q 694 699 633 699 q 803 685 756 699 q 876 660 850 672 q 903 647 903 647 q 933 619 919 636 q 946 603 946 603 q 954 595 950 599 q 961 588 958 592 m 874 513 q 885 552 888 531 q 865 588 882 574 q 840 602 864 589 q 778 627 817 615 q 690 638 739 639 q 586 613 640 638 q 559 581 567 603 q 561 540 551 560 q 592 513 571 521 q 633 515 613 506 q 712 531 675 535 q 773 515 749 526 q 799 503 797 504 q 838 492 817 489 q 874 513 860 494 m 1197 968 q 1287 931 1250 968 q 1324 842 1324 894 q 1287 752 1324 789 q 1197 715 1250 715 q 1154 723 1175 715 q 1118 743 1133 731 q 1081 723 1101 731 q 1039 715 1061 715 q 949 752 986 715 q 911 842 911 789 q 949 931 911 894 q 1039 968 986 968 q 1081 960 1061 968 q 1118 940 1101 953 q 1154 960 1133 953 q 1197 968 1175 968 z "},"ぺ":{"ha":1389,"x_min":161,"x_max":1372,"o":"m 961 583 q 1166 303 1071 456 q 1351 -40 1261 150 q 1368 -133 1372 -86 q 1338 -219 1364 -181 q 1267 -279 1311 -258 q 1174 -296 1222 -300 q 1087 -265 1126 -292 q 1026 -194 1047 -239 q 928 -2 978 -92 q 826 165 878 88 q 813 144 826 165 q 789 103 800 122 q 681 -62 733 10 q 595 -174 629 -133 q 561 -214 561 -214 q 544 -229 561 -214 q 495 -260 526 -244 q 425 -278 464 -276 q 342 -253 386 -281 q 318 -235 342 -253 q 263 -180 294 -217 q 204 -87 231 -143 q 169 42 178 -32 q 185 210 161 117 q 281 418 210 304 q 421 586 349 526 q 563 669 493 646 q 694 693 633 693 q 803 680 756 693 q 876 654 850 667 q 903 642 903 642 q 933 614 919 631 q 946 597 946 597 q 954 591 950 594 q 961 583 958 588 m 874 507 q 885 547 888 525 q 865 582 882 568 q 840 597 864 583 q 778 622 817 610 q 690 633 739 633 q 586 607 640 632 q 559 576 567 597 q 561 535 551 556 q 592 508 571 515 q 633 510 613 500 q 712 525 675 529 q 773 510 749 521 q 799 497 797 499 q 838 488 817 485 q 874 507 860 490 m 1126 971 q 1224 944 1181 971 q 1294 874 1268 918 q 1321 775 1321 829 q 1294 676 1321 721 q 1224 606 1268 632 q 1126 579 1181 579 q 1028 606 1072 579 q 957 676 983 632 q 931 775 931 721 q 957 874 931 829 q 1028 944 983 918 q 1126 971 1072 971 m 1126 721 q 1164 737 1149 721 q 1179 775 1179 753 q 1164 813 1179 797 q 1126 829 1149 829 q 1088 813 1103 829 q 1072 775 1072 797 q 1088 737 1072 753 q 1126 721 1103 721 z "},"ほ":{"ha":1389,"x_min":103,"x_max":1267,"o":"m 1226 56 q 1261 -32 1256 15 q 1249 -123 1267 -79 q 1190 -196 1231 -167 q 1103 -231 1150 -225 q 1012 -218 1056 -236 q 939 -160 968 -200 q 900 -103 919 -135 q 864 -35 881 -72 l 864 -107 q 840 -197 864 -156 q 774 -262 815 -237 q 685 -286 733 -286 q 594 -262 635 -286 q 529 -197 553 -237 q 506 -107 506 -156 l 506 -90 q 478 -140 492 -117 q 451 -178 465 -162 q 377 -232 421 -217 q 288 -240 333 -247 q 203 -203 242 -233 q 147 -128 164 -172 q 136 -37 131 -85 q 172 49 142 10 l 171 47 q 189 81 178 57 q 201 117 200 104 l 201 115 q 231 189 208 156 q 286 242 253 222 q 276 242 281 242 q 268 242 272 242 q 243 244 268 242 q 185 262 218 247 q 128 310 153 276 q 103 407 103 344 q 140 573 103 504 q 238 687 178 642 q 368 759 299 732 q 501 799 438 786 l 501 811 q 526 901 501 861 q 591 966 550 942 q 682 990 632 990 q 772 966 731 990 q 837 901 813 942 q 861 811 861 861 l 861 799 q 994 758 925 785 q 1124 687 1064 732 q 1222 573 1185 642 q 1260 407 1260 504 q 1239 319 1260 353 q 1192 270 1218 286 q 1144 249 1165 254 q 1124 243 1124 243 q 1188 131 1176 201 q 1197 100 1189 117 q 1226 56 1206 83 m 343 543 q 367 576 361 554 q 360 617 372 597 q 327 641 349 636 q 286 633 306 646 q 210 562 236 603 q 176 482 185 521 q 167 417 167 443 q 167 388 167 390 q 186 352 169 365 q 225 340 203 339 q 261 359 247 342 q 274 399 275 376 q 275 426 274 400 q 291 486 276 453 q 343 543 306 519 m 506 218 l 506 242 q 490 242 497 242 q 475 242 482 242 q 491 231 483 236 q 506 218 499 225 m 864 208 q 894 242 881 229 q 879 242 888 242 q 864 242 871 242 l 864 208 z "},"ぼ":{"ha":1389,"x_min":103,"x_max":1267,"o":"m 1099 968 q 1188 931 1150 968 q 1225 842 1225 894 q 1188 752 1225 789 q 1099 715 1150 715 q 1055 723 1075 715 q 1019 743 1035 731 q 983 723 1003 731 q 940 715 963 715 q 850 752 888 715 q 813 842 813 789 q 850 931 813 894 q 940 968 888 968 q 983 960 963 968 q 1019 940 1003 953 q 1055 960 1035 953 q 1099 968 1075 968 m 1226 60 q 1261 -27 1256 19 q 1249 -117 1267 -74 q 1190 -192 1231 -161 q 1103 -226 1150 -221 q 1012 -212 1056 -231 q 939 -154 968 -194 q 900 -98 919 -129 q 864 -29 881 -67 l 864 -101 q 840 -191 864 -150 q 774 -256 815 -232 q 685 -281 733 -281 q 594 -256 635 -281 q 529 -191 553 -232 q 506 -101 506 -150 l 506 -85 q 478 -134 492 -111 q 451 -172 465 -157 q 377 -227 421 -211 q 288 -236 333 -243 q 203 -199 242 -229 q 147 -124 164 -168 q 136 -32 131 -79 q 172 54 142 15 l 171 51 q 189 85 178 61 q 201 122 200 110 l 201 121 q 231 194 208 161 q 286 247 253 228 q 276 247 281 247 q 268 247 272 247 q 243 250 268 247 q 185 267 218 253 q 128 316 153 282 q 103 413 103 350 q 140 578 103 510 q 238 692 178 647 q 368 764 299 738 q 501 804 438 790 l 501 817 q 526 907 501 867 q 591 972 550 947 q 682 996 632 996 q 756 980 722 996 q 814 938 790 964 q 791 894 800 918 q 782 842 782 869 q 803 762 782 797 q 861 705 825 726 q 940 683 897 683 q 981 690 961 683 q 1019 707 1000 697 q 1057 690 1038 697 q 1099 683 1076 683 q 1115 684 1107 683 q 1131 686 1122 685 q 1223 574 1186 642 q 1260 413 1260 507 q 1239 325 1260 358 q 1192 276 1218 292 q 1144 254 1165 260 q 1124 249 1124 249 q 1166 199 1149 228 q 1188 136 1183 171 q 1197 106 1189 122 q 1226 60 1206 89 m 343 547 q 367 581 361 560 q 360 622 372 603 q 327 646 349 642 q 286 639 306 650 q 210 567 236 608 q 176 488 185 526 q 167 422 167 449 q 167 393 167 396 q 186 356 169 371 q 225 344 203 342 q 261 364 247 347 q 274 404 275 381 q 275 431 274 406 q 291 490 276 457 q 343 547 306 524 m 506 224 l 506 247 q 490 247 497 247 q 475 247 482 247 q 491 236 483 242 q 506 224 499 231 m 864 214 q 894 247 881 235 q 880 247 888 247 q 864 247 872 247 l 864 214 z "},"ぽ":{"ha":1389,"x_min":103,"x_max":1267,"o":"m 1226 56 q 1261 -32 1256 15 q 1249 -123 1267 -79 q 1190 -196 1231 -167 q 1103 -231 1150 -225 q 1012 -218 1056 -236 q 939 -160 968 -200 q 900 -103 919 -135 q 864 -35 881 -72 l 864 -107 q 840 -197 864 -156 q 774 -262 815 -237 q 685 -286 733 -286 q 594 -262 635 -286 q 529 -197 553 -237 q 506 -107 506 -156 l 506 -90 q 478 -140 492 -117 q 451 -178 465 -162 q 377 -232 421 -217 q 288 -240 333 -247 q 203 -203 242 -233 q 147 -128 164 -172 q 136 -37 131 -85 q 172 49 142 10 l 171 47 q 189 81 178 57 q 201 117 200 104 l 201 115 q 231 189 208 156 q 286 242 253 222 q 276 242 281 242 q 268 242 272 242 q 243 244 268 242 q 185 262 218 247 q 128 310 153 276 q 103 407 103 344 q 140 573 103 504 q 238 687 178 642 q 368 759 299 732 q 501 799 438 786 l 501 811 q 526 901 501 861 q 591 966 550 942 q 682 990 632 990 q 773 965 732 990 q 838 900 814 940 q 800 775 800 843 q 831 661 800 713 q 913 579 861 610 q 1028 549 965 549 q 1118 567 1075 549 q 1192 618 1161 586 q 1241 526 1222 578 q 1260 407 1260 474 q 1239 319 1260 353 q 1192 270 1218 286 q 1144 249 1165 254 q 1124 243 1124 243 q 1166 194 1149 224 q 1188 131 1183 165 q 1197 100 1189 117 q 1226 56 1206 83 m 343 543 q 367 576 361 554 q 360 617 372 597 q 327 641 349 636 q 286 633 306 646 q 210 562 236 603 q 176 482 185 521 q 167 417 167 443 q 167 388 167 390 q 186 352 169 365 q 225 340 203 339 q 261 359 247 342 q 274 399 275 376 q 275 426 274 400 q 291 486 276 453 q 343 543 306 519 m 506 218 l 506 242 q 490 242 497 242 q 475 242 482 242 q 491 231 483 236 q 506 218 499 225 m 864 208 q 894 242 881 229 q 880 242 888 242 q 864 242 872 242 l 864 208 m 1028 971 q 1125 944 1081 971 q 1196 874 1169 918 q 1222 775 1222 829 q 1196 676 1222 721 q 1125 606 1169 632 q 1028 579 1081 579 q 929 606 974 579 q 858 676 885 632 q 832 775 832 721 q 858 874 832 829 q 929 944 885 918 q 1028 971 974 971 m 1028 721 q 1066 737 1050 721 q 1082 775 1082 753 q 1066 813 1082 797 q 1028 829 1050 829 q 990 813 1006 829 q 974 775 974 797 q 990 737 974 753 q 1028 721 1006 721 z "},"ま":{"ha":1389,"x_min":117,"x_max":1274,"o":"m 282 310 q 257 313 282 310 q 199 330 232 315 q 142 378 167 344 q 117 474 117 413 q 120 503 117 474 q 139 581 124 533 q 189 681 154 628 q 288 781 224 733 q 451 858 351 828 q 694 888 550 888 q 939 858 839 888 q 1102 781 1039 828 q 1201 681 1165 733 q 1251 581 1236 628 q 1270 503 1267 533 q 1274 474 1274 474 q 1273 463 1274 469 q 1272 457 1272 457 q 1269 429 1271 443 q 1263 401 1267 415 q 1149 185 1224 292 q 975 -10 1074 79 q 1011 -119 1011 -58 q 972 -229 1011 -181 q 897 -285 942 -268 q 805 -295 851 -301 q 719 -258 758 -289 q 604 -181 675 -222 q 457 -114 533 -139 q 380 -62 411 -97 q 338 20 349 -26 q 344 114 328 67 q 395 192 360 161 q 477 233 431 222 q 571 228 524 243 q 654 194 613 214 q 788 310 725 243 q 755 310 788 310 q 694 310 722 310 q 478 310 571 310 q 333 310 385 310 q 282 310 282 310 m 300 701 q 224 628 250 669 q 190 549 199 588 q 181 483 181 510 q 181 454 181 457 q 200 419 183 432 q 239 407 217 406 q 275 426 261 408 q 288 465 289 443 q 289 493 288 467 q 305 553 290 519 q 357 610 319 586 q 381 642 375 621 q 374 683 386 664 q 341 708 363 703 q 300 701 319 713 z "},"み":{"ha":1389,"x_min":151,"x_max":1238,"o":"m 690 874 q 922 845 828 874 q 1076 772 1015 817 q 1169 678 1136 728 q 1217 585 1203 629 q 1235 512 1232 540 q 1238 483 1238 483 q 1213 392 1238 425 q 1155 346 1188 360 q 1097 329 1122 332 q 1072 326 1072 326 q 1022 326 1072 326 q 885 326 972 326 q 690 326 799 326 q 501 326 586 326 q 367 326 417 326 q 317 326 317 326 q 292 329 317 326 q 234 346 267 332 q 176 392 201 360 q 151 483 151 425 q 154 512 151 483 q 172 585 157 540 q 219 678 186 629 q 310 772 251 728 q 463 845 369 817 q 690 874 556 874 m 392 611 q 416 642 411 622 q 408 681 421 663 q 375 704 397 700 q 335 697 353 708 q 259 629 285 668 q 224 553 233 590 q 215 492 215 517 q 215 464 215 467 q 234 430 217 443 q 274 419 251 417 q 311 438 297 422 q 322 475 325 454 q 324 501 322 476 q 339 557 325 525 q 392 611 353 589 m 1081 -47 q 1165 -110 1136 -61 q 1179 -215 1194 -160 q 1116 -299 1164 -269 q 1013 -314 1068 -328 q 897 -294 965 -301 q 750 -284 828 -287 q 597 -281 672 -281 q 458 -282 521 -281 q 356 -286 394 -283 q 257 -250 300 -289 q 213 -156 214 -211 q 248 -56 210 -99 q 343 -11 286 -14 q 417 -9 358 -11 q 559 -6 475 -7 q 738 -9 643 -6 q 922 -21 832 -12 q 1081 -47 1013 -29 m 1089 265 q 1176 207 1144 254 q 1197 104 1208 160 q 1139 17 1186 47 q 1035 -4 1092 -14 q 910 13 983 6 q 755 22 838 19 q 592 26 672 25 q 445 27 513 28 q 338 25 378 26 q 239 63 281 24 q 196 158 197 103 q 233 256 194 215 q 329 299 272 297 q 376 300 335 299 q 483 301 418 301 q 628 300 549 301 q 792 295 708 299 q 953 285 876 292 q 1089 265 1031 278 z "},"む":{"ha":1389,"x_min":203,"x_max":1304,"o":"m 472 -282 q 445 -271 472 -282 q 378 -233 418 -260 q 298 -157 338 -206 q 231 -35 258 -108 q 203 143 204 39 q 242 388 203 247 q 335 614 281 526 q 451 749 390 701 q 572 817 513 797 q 679 838 631 836 q 756 835 728 840 q 785 831 785 831 q 859 783 835 815 q 891 714 883 750 q 898 652 899 678 q 897 626 897 626 q 888 573 897 626 q 858 428 878 519 q 806 218 838 336 q 788 152 797 186 q 773 94 779 118 q 767 71 767 71 q 853 71 810 71 q 939 71 897 71 q 931 151 936 111 q 914 232 925 192 q 910 253 911 243 q 908 275 908 264 q 947 385 908 336 q 1046 450 985 435 q 1140 447 1094 461 q 1219 399 1186 433 q 1263 317 1251 365 q 1298 92 1292 199 q 1304 -108 1304 -15 q 1280 -199 1304 -158 q 1215 -263 1256 -239 q 1125 -287 1175 -287 l 558 -287 q 540 -288 549 -287 q 521 -287 531 -289 q 504 -288 521 -287 q 472 -282 488 -289 m 521 717 q 503 679 504 701 q 517 640 503 657 q 553 623 531 624 q 592 636 575 622 q 660 672 625 667 q 720 670 696 676 q 747 664 744 664 q 788 665 768 656 q 815 694 808 674 q 815 735 824 715 q 786 764 807 756 q 758 772 783 765 q 694 781 733 779 q 610 769 656 783 q 521 717 564 756 z "},"め":{"ha":1389,"x_min":199,"x_max":1249,"o":"m 1083 163 q 1144 97 1114 131 q 1203 29 1175 64 q 1241 -57 1233 -10 q 1233 -148 1249 -104 q 1178 -224 1217 -192 q 1092 -262 1139 -256 q 1001 -253 1046 -269 q 925 -199 956 -237 q 864 -129 896 -164 q 772 -197 824 -162 q 660 -256 719 -231 q 535 -288 600 -281 q 405 -277 471 -296 q 275 -204 339 -258 q 214 -129 229 -165 q 202 -62 199 -93 q 219 -8 206 -31 q 244 28 232 15 q 256 40 256 40 q 359 132 308 83 q 454 228 410 181 q 391 269 422 249 q 328 307 360 289 q 262 374 285 332 q 238 463 239 415 q 261 553 236 510 q 328 619 286 596 q 417 642 369 642 q 507 618 464 643 q 595 565 551 593 q 683 506 639 536 q 737 587 711 544 q 783 675 763 629 q 793 689 783 675 q 822 719 803 703 q 869 744 842 735 q 935 744 897 753 q 1018 699 972 736 q 1118 573 1089 642 q 1148 433 1147 504 q 1130 292 1149 361 q 1083 163 1111 222 m 1075 411 q 1068 517 1083 471 q 1028 594 1053 563 q 984 642 1004 625 q 961 661 964 660 q 920 668 942 672 q 886 644 899 664 q 878 604 874 626 q 901 571 883 582 q 922 552 903 569 q 958 502 942 535 q 968 425 975 469 q 978 385 965 403 q 1014 364 992 367 q 1054 375 1036 361 q 1075 411 1072 389 z "},"も":{"ha":1389,"x_min":117,"x_max":1274,"o":"m 1103 278 q 1198 239 1158 278 q 1238 143 1238 200 q 1198 48 1238 88 q 1103 8 1158 8 l 817 8 q 820 -6 818 1 q 824 -19 822 -12 l 1014 -19 q 1109 -59 1069 -19 q 1147 -154 1149 -99 q 1108 -250 1147 -211 q 1013 -289 1069 -289 l 693 -287 q 573 -265 629 -297 q 494 -169 517 -232 q 469 -84 481 -129 q 447 8 457 -39 l 300 8 q 205 48 244 8 q 165 143 165 88 q 205 239 165 200 q 300 278 244 278 l 414 278 q 413 290 413 283 q 413 301 413 296 q 345 301 378 301 q 282 301 313 301 q 257 304 282 301 q 199 322 232 307 q 142 370 167 336 q 117 467 117 404 q 120 497 117 467 q 139 574 124 526 q 189 674 154 621 q 288 774 224 726 q 451 851 351 821 q 694 881 550 881 q 939 851 839 881 q 1102 774 1039 821 q 1201 674 1165 726 q 1251 574 1236 621 q 1270 497 1267 526 q 1274 467 1274 467 q 1249 370 1274 404 q 1191 322 1224 336 q 1133 304 1158 307 q 1108 301 1108 301 q 992 301 1054 301 q 873 301 931 301 q 772 301 815 301 q 772 290 772 296 q 774 278 772 283 l 1103 278 m 357 603 q 381 636 375 614 q 374 676 386 658 q 341 700 363 694 q 300 694 319 706 q 224 622 250 663 q 190 542 199 581 q 181 476 181 503 q 181 447 181 450 q 200 411 183 425 q 239 400 217 397 q 275 419 261 403 q 288 458 289 436 q 289 487 288 461 q 305 545 290 513 q 357 603 319 578 z "},"ゃ":{"ha":1389,"x_min":258,"x_max":1131,"o":"m 1125 269 q 1126 261 1126 265 q 1128 251 1126 257 q 1119 135 1131 201 q 1079 15 1107 68 q 999 -51 1053 -35 q 896 -42 946 -68 q 833 31 850 -17 q 833 126 815 79 q 753 126 789 126 q 701 126 717 126 q 721 12 708 69 q 753 -92 733 -46 q 752 -195 774 -144 q 679 -268 731 -246 q 576 -267 628 -289 q 504 -193 525 -244 q 456 -35 474 -119 q 431 126 438 50 q 406 126 418 126 q 382 126 393 126 q 363 128 382 126 q 320 142 344 131 q 277 178 296 153 q 258 251 258 204 q 293 386 258 332 q 379 475 328 440 l 375 535 q 409 632 372 590 q 501 676 446 674 q 597 645 556 679 q 643 558 638 611 q 660 560 643 558 q 692 561 678 561 q 897 532 817 561 q 1024 459 978 503 q 1092 372 1071 415 q 1119 299 1114 328 q 1125 269 1125 269 m 439 353 q 457 378 453 361 q 451 408 461 394 q 427 426 443 422 q 396 421 411 431 q 339 367 358 397 q 313 307 319 336 q 306 258 306 278 q 307 236 307 239 q 321 209 308 219 q 350 200 333 199 q 378 215 367 203 q 388 244 389 228 q 388 265 386 246 q 399 310 389 285 q 439 353 410 335 z "},"や":{"ha":1389,"x_min":114,"x_max":1275,"o":"m 1269 438 q 1272 425 1271 431 q 1272 413 1272 419 q 1269 313 1275 368 q 1248 201 1263 258 q 1207 97 1233 144 q 1143 28 1183 53 q 1056 1 1103 4 q 965 22 1008 -1 q 881 119 904 54 q 882 246 857 183 q 774 246 822 246 q 706 246 726 246 q 731 93 714 171 q 774 -46 749 15 q 785 -138 792 -92 q 749 -223 778 -185 q 675 -279 721 -261 q 582 -290 629 -297 q 497 -255 535 -283 q 440 -181 458 -226 q 377 31 400 -83 q 344 246 354 144 q 311 246 328 246 q 279 246 294 246 q 254 249 279 246 q 197 266 229 251 q 139 315 164 281 q 114 411 114 349 q 160 592 114 519 q 275 710 206 664 l 271 789 q 289 881 267 839 q 350 950 311 924 q 439 979 389 976 q 527 962 486 982 q 595 905 568 942 q 628 821 622 868 q 650 823 628 821 q 692 825 672 825 q 928 797 831 825 q 1088 725 1025 769 q 1188 631 1151 681 q 1242 538 1225 582 q 1265 465 1260 493 q 1269 438 1269 438 m 354 547 q 378 581 372 558 q 371 621 383 603 q 338 645 360 640 q 297 639 317 650 q 222 566 247 607 q 187 486 196 525 q 178 421 178 447 q 178 392 178 394 q 197 356 181 369 q 236 344 214 342 q 272 364 258 347 q 285 403 286 381 q 286 431 285 406 q 302 490 288 457 q 354 547 317 522 z "},"ゅ":{"ha":1389,"x_min":290,"x_max":1099,"o":"m 964 -1 q 1059 -41 1019 -1 q 1099 -136 1099 -81 q 1059 -231 1099 -192 q 964 -271 1019 -271 l 425 -271 q 330 -231 369 -271 q 290 -136 290 -192 q 330 -41 290 -81 q 425 -1 369 -1 l 669 -1 q 711 179 701 81 q 689 179 711 179 q 647 179 667 179 q 492 179 556 179 q 428 179 428 179 q 410 181 428 179 q 369 194 393 183 q 328 231 346 206 q 308 303 310 257 q 310 325 308 303 q 322 383 313 347 q 351 458 331 418 q 408 533 371 497 q 504 590 446 568 q 647 613 563 613 q 791 590 732 613 q 887 533 850 568 q 944 458 924 497 q 974 383 965 418 q 985 325 983 347 q 988 303 988 303 q 988 301 988 301 q 988 301 988 301 q 988 297 988 300 q 988 293 988 294 q 981 156 988 232 q 953 -1 974 81 l 964 -1 m 483 419 q 501 444 497 428 q 496 475 504 461 q 471 493 486 489 q 440 488 456 497 q 384 431 403 464 q 360 366 365 399 q 355 311 354 333 q 356 288 356 289 q 371 260 358 271 q 400 253 383 250 q 427 267 417 254 q 436 296 438 279 q 436 321 436 297 q 445 373 436 344 q 483 419 454 401 z "},"ゆ":{"ha":1389,"x_min":156,"x_max":1233,"o":"m 1053 76 q 1144 52 1103 76 q 1209 -13 1185 28 q 1233 -104 1233 -54 q 1209 -194 1233 -153 q 1144 -259 1185 -235 q 1053 -283 1103 -283 l 335 -283 q 245 -259 286 -283 q 180 -194 204 -235 q 156 -104 156 -153 q 180 -13 156 -54 q 245 52 204 28 q 335 76 286 76 l 661 76 q 695 190 681 129 q 717 315 710 250 q 688 315 717 315 q 632 315 658 315 q 483 315 550 315 q 378 315 417 315 q 339 315 339 315 q 315 318 339 315 q 260 335 292 321 q 205 384 229 350 q 179 481 181 418 q 182 510 179 481 q 197 588 185 540 q 236 687 208 635 q 313 786 264 739 q 441 863 363 833 q 632 893 519 893 q 823 863 744 893 q 951 786 901 833 q 1028 687 1000 739 q 1067 588 1056 635 q 1082 510 1079 540 q 1085 481 1085 481 q 1085 478 1085 479 q 1085 478 1085 478 q 1085 472 1085 475 q 1085 467 1085 469 q 1075 285 1085 386 q 1038 76 1065 183 l 1053 76 m 413 636 q 436 669 431 647 q 429 710 442 692 q 397 734 418 729 q 356 728 375 739 q 281 652 306 696 q 248 565 256 608 q 242 493 240 522 q 243 461 243 464 q 262 425 244 439 q 301 413 279 411 q 338 433 324 415 q 350 472 353 450 q 349 492 350 474 q 353 537 349 510 q 370 591 357 564 q 413 636 383 618 z "},"ょ":{"ha":1389,"x_min":257,"x_max":1131,"o":"m 1124 321 q 1125 313 1125 317 q 1125 304 1125 308 q 1112 30 1131 151 q 1053 -186 1093 -92 q 999 -247 1035 -225 q 922 -267 963 -268 q 911 -269 917 -268 q 899 -269 906 -269 l 429 -269 q 358 -240 388 -269 q 328 -168 328 -210 q 358 -97 328 -126 q 429 -67 388 -67 l 810 -67 q 817 -47 815 -57 l 400 -47 q 328 -17 357 -47 q 299 54 299 13 q 328 126 299 96 q 400 156 357 156 l 854 156 q 855 167 854 161 q 856 179 856 172 q 831 179 856 179 q 767 179 806 179 q 690 179 729 179 q 465 179 550 179 q 381 179 381 179 q 362 181 381 179 q 319 194 343 183 q 276 231 294 206 q 257 303 257 257 q 259 325 257 303 q 273 383 261 347 q 311 458 285 418 q 385 533 338 497 q 508 590 433 568 q 690 613 582 613 q 896 583 815 613 q 1023 510 976 554 q 1091 423 1069 467 q 1118 350 1113 379 q 1124 321 1124 321 m 438 404 q 456 430 451 414 q 450 460 460 446 q 425 478 442 475 q 394 474 408 482 q 338 419 357 450 q 311 358 318 388 q 305 310 304 329 q 306 289 306 290 q 319 261 307 272 q 349 253 332 250 q 376 267 365 254 q 385 296 386 281 q 385 317 385 297 q 397 361 386 336 q 438 404 408 386 z "},"よ":{"ha":1389,"x_min":113,"x_max":1276,"o":"m 1268 506 q 1270 494 1269 500 q 1271 483 1271 489 q 1252 117 1276 279 q 1172 -171 1228 -44 q 1102 -251 1150 -222 q 1000 -278 1054 -281 q 968 -282 986 -282 l 342 -282 q 247 -242 286 -282 q 207 -147 207 -203 q 247 -52 207 -92 q 342 -12 286 -12 l 850 -12 q 856 1 853 -6 q 860 14 858 8 l 303 14 q 208 53 247 14 q 168 149 168 93 q 208 244 168 206 q 303 283 247 283 l 908 283 q 910 299 910 292 q 911 315 910 307 q 877 315 911 315 q 792 315 843 315 q 690 315 742 315 q 474 315 567 315 q 329 315 381 315 q 278 315 278 315 q 253 318 278 315 q 195 335 228 321 q 138 384 163 350 q 113 481 113 418 q 116 510 113 481 q 135 588 119 540 q 185 688 150 635 q 283 788 219 740 q 447 865 347 835 q 690 894 546 894 q 926 867 829 894 q 1088 794 1024 839 q 1188 700 1151 750 q 1241 606 1224 650 q 1263 533 1258 561 q 1268 506 1268 506 m 353 617 q 377 650 372 628 q 369 690 382 672 q 336 714 358 708 q 296 708 314 719 q 220 635 246 676 q 185 556 194 594 q 176 490 176 517 q 176 461 176 464 q 195 425 178 439 q 235 414 213 411 q 272 433 258 417 q 283 472 286 450 q 285 501 283 475 q 300 559 286 526 q 353 617 314 592 z "},"ら":{"ha":1389,"x_min":117,"x_max":1274,"o":"m 282 317 q 257 319 282 317 q 199 337 232 322 q 142 385 167 351 q 117 482 117 419 q 120 512 117 482 q 139 589 124 542 q 189 689 154 636 q 288 789 224 742 q 451 866 351 836 q 694 896 550 896 q 939 866 839 896 q 1102 789 1039 836 q 1201 689 1165 742 q 1251 589 1236 636 q 1270 512 1267 542 q 1274 482 1274 482 q 1249 385 1274 419 q 1191 337 1224 351 q 1133 319 1158 322 q 1108 317 1108 317 q 1057 317 1108 317 q 913 317 1006 317 q 694 317 819 317 q 478 317 571 317 q 333 317 385 317 q 282 317 282 317 m 300 710 q 224 637 250 678 q 190 557 199 596 q 181 492 181 518 q 181 463 181 465 q 200 427 183 440 q 239 415 217 414 q 275 434 261 417 q 288 474 289 451 q 289 501 288 475 q 305 561 290 528 q 357 618 319 594 q 381 651 375 629 q 374 692 386 672 q 341 716 363 711 q 300 710 319 721 m 1072 276 q 1163 252 1122 276 q 1227 188 1203 228 q 1251 97 1251 147 q 1238 -8 1251 47 q 1206 -112 1225 -62 q 1165 -201 1186 -162 q 1101 -269 1142 -244 q 1014 -296 1061 -294 q 922 -275 967 -297 q 851 -207 876 -250 q 826 -117 826 -164 q 828 -100 826 -108 q 831 -83 829 -92 q 765 -83 831 -83 q 585 -83 699 -83 q 332 -83 472 -83 q 242 -59 283 -83 q 177 6 201 -35 q 153 97 153 47 q 177 188 153 147 q 242 252 201 228 q 332 276 283 276 l 1072 276 z "},"り":{"ha":1389,"x_min":169,"x_max":1261,"o":"m 894 -278 q 820 -221 849 -258 q 785 -136 792 -183 q 797 -43 778 -89 q 881 281 856 97 q 893 658 906 465 q 910 751 889 708 q 972 820 932 793 q 1060 850 1011 847 q 1151 832 1108 853 q 1221 772 1194 811 q 1251 683 1247 733 q 1251 374 1261 528 q 1209 80 1240 221 q 1129 -181 1178 -61 q 1073 -255 1111 -226 q 988 -290 1035 -283 q 894 -278 940 -297 m 664 718 q 666 694 664 718 q 671 631 668 669 q 676 548 674 593 q 678 461 678 503 q 674 336 678 394 q 666 241 669 278 q 663 204 663 204 q 626 103 653 136 q 567 63 600 71 q 506 58 535 56 q 360 110 429 68 q 243 215 292 151 q 181 356 194 279 q 174 420 178 375 q 172 523 169 465 q 192 641 175 581 q 247 752 210 701 q 347 835 283 803 q 508 867 411 867 q 590 844 560 867 q 637 792 621 822 q 658 740 653 763 q 664 718 664 718 m 571 744 q 560 783 572 767 q 526 803 547 800 q 496 803 524 803 q 428 796 468 804 q 346 763 388 788 q 274 688 304 738 q 267 647 263 669 q 289 614 271 625 q 328 608 307 603 q 360 632 349 613 q 402 675 376 661 q 453 693 428 689 q 496 697 478 697 q 515 696 514 696 q 553 708 536 694 q 571 744 569 722 z "},"る":{"ha":1389,"x_min":75,"x_max":1375,"o":"m 1111 206 q 1202 226 1156 228 q 1288 199 1249 224 q 1351 132 1328 175 q 1374 41 1375 89 q 1349 -47 1372 -7 q 1281 -111 1325 -87 q 1225 -146 1254 -125 q 1172 -186 1196 -167 q 1138 -217 1149 -206 q 1067 -269 1111 -250 q 974 -283 1021 -289 q 888 -248 926 -276 q 831 -175 850 -219 q 783 -17 801 -104 q 754 159 764 69 q 741 326 744 249 q 738 458 738 404 q 738 525 738 511 q 763 615 739 575 q 829 679 788 656 q 921 701 871 703 q 1010 675 969 700 q 1074 608 1050 650 q 1097 518 1097 567 q 1099 374 1096 458 q 1111 206 1101 290 m 571 853 q 656 802 628 835 q 694 736 685 769 q 705 680 704 703 q 706 657 706 657 q 692 440 707 550 q 660 244 676 329 q 614 57 642 158 q 540 -147 586 -44 q 528 -172 540 -147 q 490 -227 515 -197 q 423 -274 464 -257 q 324 -278 382 -292 q 300 -271 324 -278 q 242 -242 276 -264 q 171 -179 207 -221 q 109 -69 135 -137 q 79 101 83 0 q 103 344 75 203 q 176 579 131 486 q 274 728 221 672 q 379 810 326 783 q 475 846 432 838 q 544 853 518 854 q 571 853 571 853 m 610 725 q 606 765 617 746 q 574 790 594 783 q 547 794 571 790 q 485 793 522 797 q 408 768 449 789 q 333 700 368 747 q 320 660 319 681 q 338 624 321 639 q 377 610 354 608 q 414 628 400 611 q 474 674 444 661 q 522 686 503 686 q 544 686 542 686 q 585 692 567 681 q 610 725 604 703 z "},"れ":{"ha":1389,"x_min":169,"x_max":1199,"o":"m 921 211 q 1011 239 964 238 q 1101 219 1058 240 q 1169 156 1143 197 q 1197 67 1196 114 q 1177 -23 1199 19 q 1114 -92 1156 -65 q 968 -176 1050 -133 q 796 -250 886 -219 q 615 -285 706 -281 q 601 -285 608 -285 q 589 -286 594 -286 q 579 -287 589 -286 q 564 -287 569 -287 q 535 -284 564 -287 q 462 -265 507 -281 q 366 -212 417 -249 q 271 -112 315 -176 q 198 52 226 -49 q 171 299 169 153 q 201 547 172 446 q 276 712 231 647 q 373 811 322 776 q 469 861 424 846 q 544 879 515 876 q 572 882 572 882 q 647 853 615 879 q 697 794 678 826 q 726 737 717 761 q 736 713 736 713 q 749 658 736 713 q 776 509 763 604 q 790 292 789 414 q 789 222 790 258 q 786 160 788 185 q 785 135 785 135 q 851 169 817 150 q 921 211 886 189 m 639 757 q 628 797 642 779 q 592 817 614 814 q 563 817 589 817 q 497 810 536 818 q 417 776 458 801 q 344 700 376 750 q 337 658 332 681 q 361 624 342 636 q 402 617 381 613 q 435 640 424 622 q 492 693 458 679 q 551 708 525 707 q 579 708 578 708 q 619 720 601 706 q 639 757 636 735 z "},"ろ":{"ha":1389,"x_min":115,"x_max":1278,"o":"m 1275 504 q 1277 492 1276 497 q 1278 479 1278 486 q 1265 274 1278 388 q 1219 40 1253 161 q 1121 -192 1186 -81 q 1055 -256 1096 -232 q 965 -281 1014 -281 l 456 -281 q 445 -281 450 -281 q 436 -279 440 -281 q 339 -262 386 -285 q 264 -194 292 -240 q 165 38 197 -83 q 124 276 132 160 q 119 486 115 392 q 122 506 119 494 q 128 533 122 506 q 151 603 133 560 q 207 694 169 646 q 308 785 244 742 q 467 855 371 828 q 699 882 563 882 q 931 855 835 882 q 1090 785 1026 828 q 1191 693 1154 742 q 1246 601 1228 644 q 1269 531 1264 558 q 1275 504 1275 504 m 361 604 q 385 639 381 617 q 378 679 389 661 q 344 703 365 697 q 303 696 322 708 q 228 624 253 664 q 194 544 203 583 q 185 479 185 506 q 185 450 185 453 q 203 414 186 428 q 243 403 221 400 q 280 422 265 406 q 292 461 294 439 q 292 488 292 463 q 308 547 293 514 q 361 604 322 581 m 850 79 q 885 192 872 135 q 906 304 899 249 q 874 304 906 304 q 794 304 842 304 q 699 304 747 304 q 598 304 647 304 q 515 304 549 304 q 482 304 482 304 q 499 184 488 240 q 529 79 511 128 q 630 79 572 79 q 746 79 688 79 q 850 79 804 79 z "},"わ":{"ha":1389,"x_min":115,"x_max":1275,"o":"m 1271 467 q 1275 428 1275 447 q 1253 211 1275 322 q 1189 -7 1231 100 q 1089 -207 1147 -114 q 1020 -270 1063 -249 q 931 -290 978 -292 q 840 -262 883 -289 q 777 -194 799 -236 q 757 -104 756 -151 q 785 -15 758 -57 q 863 147 831 58 q 907 324 894 235 q 874 324 907 324 q 792 324 842 324 q 693 324 743 324 q 599 324 646 324 q 519 324 551 324 q 488 324 488 324 l 494 236 q 478 144 499 186 q 419 74 457 101 q 331 43 381 47 q 238 60 281 39 q 169 119 196 81 q 138 207 142 158 l 118 449 q 117 458 117 454 q 117 467 117 463 q 116 474 117 467 q 115 489 115 482 q 119 519 115 489 q 138 596 122 549 q 188 695 153 643 q 286 794 222 747 q 449 872 350 842 q 693 901 549 901 q 938 872 838 901 q 1101 794 1038 842 q 1199 695 1164 747 q 1250 596 1235 643 q 1269 519 1265 549 q 1272 489 1272 489 q 1272 475 1272 483 q 1271 467 1271 467 m 363 631 q 386 664 381 642 q 379 706 392 686 q 347 729 368 725 q 306 722 325 733 q 230 649 256 690 q 195 569 204 608 q 186 504 186 531 q 186 475 186 478 q 206 439 189 453 q 244 428 222 425 q 281 447 267 431 q 293 486 294 464 q 294 515 293 489 q 310 574 296 540 q 363 631 325 607 z "},"を":{"ha":1389,"x_min":114,"x_max":1275,"o":"m 1275 493 q 1273 472 1275 483 q 1271 460 1271 460 q 1272 446 1272 453 q 1272 433 1272 439 q 1250 216 1272 328 q 1186 -3 1228 104 q 1086 -203 1144 -110 q 1017 -267 1060 -244 q 928 -287 975 -289 q 838 -260 881 -286 q 767 -175 788 -228 q 757 -68 746 -122 l 400 -68 q 309 -44 350 -68 q 244 22 268 -19 q 219 113 219 63 q 244 202 219 161 q 309 267 268 243 q 400 292 350 292 l 897 292 q 901 310 900 301 q 904 328 903 319 q 872 328 904 328 q 792 328 840 328 q 694 328 743 328 q 476 328 569 328 q 331 328 383 328 q 279 328 279 328 q 254 331 279 328 q 197 348 229 333 q 139 397 164 363 q 114 493 114 431 q 117 523 114 493 q 136 600 121 553 q 187 701 151 647 q 286 801 222 754 q 450 878 350 849 q 694 908 550 908 q 939 878 839 908 q 1103 801 1039 849 q 1202 701 1167 754 q 1253 600 1238 647 q 1272 523 1268 553 q 1275 493 1275 493 m 356 629 q 379 664 375 642 q 372 704 383 686 q 339 728 361 722 q 299 721 317 733 q 222 648 247 689 q 187 568 196 607 q 178 503 178 529 q 178 474 178 476 q 198 438 181 451 q 238 426 215 425 q 274 445 260 428 q 286 485 289 463 q 288 513 286 486 q 303 572 289 539 q 356 629 317 606 z "},"ん":{"ha":1389,"x_min":78,"x_max":1301,"o":"m 1156 585 q 1238 541 1203 574 q 1287 463 1272 508 q 1290 368 1301 417 q 1151 20 1247 183 q 922 -254 1056 -143 q 837 -294 883 -286 q 745 -285 790 -301 q 668 -232 700 -269 q 628 -147 636 -194 q 637 -55 621 -100 q 690 22 653 -10 q 814 160 758 79 q 904 338 869 242 q 861 285 889 308 q 785 263 833 263 q 747 263 785 263 q 647 263 710 263 q 503 263 583 263 q 365 263 426 263 q 266 263 303 263 q 229 263 229 263 q 207 265 229 263 q 155 283 185 268 q 102 331 125 297 q 78 428 79 365 q 80 458 78 428 q 94 535 82 488 q 131 635 106 582 q 203 736 157 689 q 324 813 250 783 q 503 843 397 843 q 683 813 610 843 q 803 736 756 783 q 876 635 850 689 q 913 535 901 582 q 927 458 925 488 q 929 428 929 428 q 926 406 928 417 q 924 394 924 394 q 932 422 928 408 q 939 449 936 435 q 983 532 950 497 q 1062 581 1017 567 q 1156 585 1107 596 m 313 585 q 336 617 331 596 q 329 658 342 639 q 297 683 318 678 q 256 676 275 688 q 180 600 204 644 q 148 513 156 556 q 141 441 140 471 q 142 408 142 411 q 162 372 144 386 q 201 361 179 358 q 238 381 224 364 q 250 419 253 397 q 249 440 250 421 q 252 485 249 458 q 269 540 256 513 q 313 585 283 567 z "},"ァ":{"ha":1389,"x_min":260,"x_max":1129,"o":"m 1128 279 q 1127 273 1128 276 q 1126 269 1126 269 q 1128 258 1128 264 q 1129 246 1129 253 q 1122 133 1129 192 q 1082 24 1114 75 q 1000 -37 1053 -25 q 900 -21 947 -49 q 840 56 854 6 q 847 154 825 107 q 756 154 796 154 q 700 154 715 154 q 767 107 740 142 q 796 29 794 72 q 789 -72 796 -7 q 751 -206 782 -136 q 678 -278 729 -257 q 575 -276 626 -299 q 502 -201 522 -253 q 504 -99 482 -150 q 521 -41 515 -74 q 526 24 526 -8 q 552 106 525 69 q 621 154 579 142 q 506 154 572 154 q 383 154 439 154 q 365 156 383 154 q 322 169 346 158 q 278 206 297 181 q 260 279 260 232 q 262 301 260 279 q 276 359 264 324 q 314 434 288 394 q 388 509 340 474 q 510 567 436 544 q 693 589 585 589 q 876 567 801 589 q 999 509 951 544 q 1074 434 1047 474 q 1112 359 1100 394 q 1126 301 1124 324 q 1128 279 1128 279 m 440 381 q 458 406 454 389 q 453 436 463 422 q 428 454 444 450 q 397 449 411 458 q 340 394 360 425 q 314 335 321 364 q 308 286 307 306 q 308 264 308 267 q 322 237 310 247 q 351 228 335 226 q 379 243 368 231 q 389 272 390 256 q 390 293 389 274 q 401 338 390 313 q 440 381 411 363 z "},"ア":{"ha":1389,"x_min":115,"x_max":1275,"o":"m 1272 471 q 1272 463 1272 467 q 1271 458 1271 458 q 1275 426 1275 444 q 1264 276 1275 354 q 1211 129 1253 197 q 1144 66 1186 88 q 1057 45 1103 44 q 968 71 1011 46 q 906 134 928 94 q 882 219 883 174 q 900 306 881 264 q 776 306 831 306 q 703 306 722 306 q 792 243 757 289 q 829 138 828 197 q 827 56 831 106 q 810 -54 824 6 q 771 -176 797 -114 q 713 -249 751 -222 q 628 -283 675 -276 q 535 -269 581 -289 q 462 -211 489 -250 q 428 -125 435 -172 q 442 -33 422 -78 q 463 43 456 0 q 471 131 471 86 q 506 240 469 192 q 597 306 542 288 q 444 306 532 306 q 281 306 356 306 q 256 308 281 306 q 198 326 231 311 q 140 374 165 340 q 115 471 115 408 q 119 501 115 471 q 138 578 122 531 q 188 677 153 625 q 286 776 222 729 q 449 853 350 824 q 693 883 549 883 q 938 853 838 883 q 1101 776 1038 824 q 1199 677 1164 729 q 1250 578 1235 625 q 1269 501 1265 531 q 1272 471 1272 471 m 356 606 q 380 640 375 618 q 372 681 385 661 q 339 704 361 700 q 299 697 317 708 q 223 624 249 665 q 188 544 197 583 q 179 479 179 506 q 179 451 179 453 q 198 414 181 428 q 238 403 215 400 q 275 422 261 406 q 286 461 289 439 q 288 490 286 464 q 303 549 289 515 q 356 606 317 582 z "},"ィ":{"ha":1389,"x_min":325,"x_max":1144,"o":"m 521 -3 q 503 -10 521 -3 q 459 -18 486 -17 q 403 -6 432 -19 q 354 50 375 8 q 346 71 354 50 q 331 128 338 92 q 330 213 325 165 q 360 313 335 260 q 442 420 386 365 q 594 525 499 475 q 767 590 690 575 q 903 597 844 606 q 1003 565 961 588 q 1071 516 1044 542 q 1110 472 1097 490 q 1122 453 1122 453 q 1140 380 1144 411 q 1118 328 1135 349 q 1086 296 1101 307 q 1071 285 1071 285 q 976 235 1028 261 q 883 188 925 210 q 897 126 897 157 l 897 -153 q 858 -248 897 -208 q 763 -287 819 -287 q 667 -248 707 -287 q 628 -153 628 -208 l 628 53 q 521 -3 574 24 m 397 264 q 372 189 375 225 q 377 124 369 153 q 394 78 385 96 q 404 58 403 60 q 428 41 413 44 q 460 47 444 38 q 477 73 474 57 q 471 103 481 89 q 462 122 469 104 q 452 167 454 139 q 467 224 450 194 q 471 254 475 239 q 453 278 467 269 q 422 282 439 286 q 397 264 406 278 z "},"イ":{"ha":1389,"x_min":201,"x_max":1294,"o":"m 464 96 q 440 87 464 96 q 381 76 417 78 q 308 92 346 74 q 240 165 269 110 q 229 193 240 165 q 210 269 218 221 q 208 381 201 318 q 250 516 215 444 q 359 660 285 588 q 561 800 433 733 q 791 887 689 867 q 972 894 893 907 q 1106 852 1050 882 q 1197 788 1161 822 q 1249 728 1232 753 q 1265 703 1265 703 q 1288 606 1294 647 q 1260 535 1282 564 q 1217 493 1238 507 q 1196 479 1196 479 q 1070 413 1138 449 q 946 349 1003 378 q 965 268 965 310 l 965 -104 q 941 -195 965 -154 q 876 -260 917 -236 q 786 -283 836 -283 q 695 -260 736 -283 q 630 -195 654 -236 q 606 -104 606 -154 l 606 169 q 533 131 569 150 q 464 96 496 113 m 297 451 q 265 352 268 400 q 271 265 261 304 q 293 203 281 226 q 307 178 306 181 q 340 154 319 158 q 381 163 361 150 q 404 197 400 175 q 396 236 408 218 q 384 262 394 239 q 370 321 374 285 q 390 396 367 357 q 396 437 401 415 q 371 469 390 458 q 331 475 353 481 q 297 451 308 469 z "},"ゥ":{"ha":1389,"x_min":261,"x_max":1129,"o":"m 408 -83 q 311 -48 353 -86 q 268 46 269 -10 l 261 219 q 261 228 261 224 q 261 238 261 233 q 294 356 264 307 q 368 439 324 406 q 464 491 413 472 q 563 519 515 510 l 563 531 q 602 626 563 586 q 697 665 642 665 q 792 626 753 665 q 832 531 832 586 l 832 519 q 913 496 871 511 q 994 457 956 481 q 995 457 994 457 q 996 457 996 457 q 1006 450 1001 454 q 1017 443 1011 446 q 1019 441 1018 442 q 1022 439 1021 440 q 1030 433 1026 436 q 1038 426 1033 429 q 1043 421 1042 425 q 1053 413 1049 417 q 1061 404 1057 408 q 1065 400 1064 403 q 1068 396 1067 397 q 1072 390 1069 393 q 1078 385 1075 388 q 1086 374 1083 376 q 1090 368 1088 371 q 1093 363 1092 365 q 1100 350 1094 358 q 1104 340 1103 344 q 1115 311 1111 328 q 1118 303 1118 306 q 1124 283 1121 294 q 1125 275 1124 278 q 1126 265 1126 269 q 1128 254 1126 260 q 1128 253 1128 253 q 1128 253 1128 253 q 1129 239 1129 246 q 1129 225 1129 232 q 1128 209 1129 218 q 1126 200 1126 200 q 1013 -222 1125 -33 q 930 -283 985 -269 q 828 -268 875 -296 q 767 -185 781 -240 q 781 -83 753 -131 q 849 101 832 1 q 825 101 849 101 q 766 101 801 101 q 696 101 731 101 q 621 101 658 101 q 559 101 583 101 q 535 101 535 101 l 538 57 q 501 -40 539 0 q 408 -83 464 -81 m 399 394 q 342 340 361 371 q 317 281 324 310 q 310 231 310 251 q 310 210 310 211 q 324 183 311 193 q 354 175 338 172 q 381 189 371 176 q 390 218 392 201 q 391 239 390 219 q 403 283 392 258 q 442 326 414 308 q 460 351 456 336 q 454 382 464 367 q 430 401 446 397 q 399 394 414 404 z "},"ウ":{"ha":1389,"x_min":117,"x_max":1274,"o":"m 313 -12 q 221 8 263 -14 q 153 71 179 31 q 125 160 128 111 l 117 392 q 117 403 117 397 q 118 415 117 408 q 161 574 122 508 q 260 684 200 640 q 388 753 319 728 q 518 792 456 779 l 518 806 q 542 896 518 856 q 608 960 567 936 q 699 985 649 985 q 788 960 747 985 q 853 896 829 936 q 878 806 878 856 l 878 790 q 986 760 931 781 q 1094 708 1042 740 q 1096 708 1096 708 q 1097 708 1096 708 q 1110 699 1103 703 q 1124 690 1117 694 q 1132 685 1126 688 q 1142 676 1138 681 q 1153 668 1147 672 q 1160 661 1156 664 q 1172 650 1167 656 q 1183 638 1178 644 q 1189 633 1186 636 q 1193 628 1192 631 q 1199 619 1196 624 q 1206 611 1203 615 q 1211 604 1208 608 q 1217 597 1214 600 q 1221 590 1219 593 q 1225 582 1222 586 q 1231 574 1228 578 q 1235 565 1233 569 q 1240 553 1238 561 q 1249 534 1246 543 q 1257 514 1253 525 q 1260 503 1257 508 q 1263 490 1261 497 q 1265 476 1264 483 q 1267 472 1267 475 q 1268 467 1267 469 q 1270 452 1269 460 q 1272 438 1271 444 q 1272 436 1272 436 q 1272 436 1272 436 q 1274 417 1274 426 q 1274 399 1274 408 q 1272 377 1274 389 q 1271 365 1271 365 q 1232 69 1269 208 q 1118 -196 1194 -69 q 1051 -262 1093 -239 q 962 -284 1010 -285 q 872 -258 914 -283 q 808 -192 831 -233 q 785 -103 785 -150 q 810 -12 785 -56 q 900 233 876 100 q 868 233 900 233 q 789 233 836 233 q 696 233 742 233 q 597 233 647 233 q 515 233 547 233 q 482 233 482 233 l 485 174 q 464 83 486 125 q 401 15 442 42 q 313 -12 361 -11 m 301 625 q 226 553 251 594 q 191 474 200 513 q 182 408 182 435 q 182 379 182 382 q 201 344 183 357 q 240 332 218 331 q 277 351 263 333 q 289 390 292 368 q 290 418 289 392 q 306 478 292 444 q 358 535 319 511 q 382 567 378 546 q 375 608 386 589 q 342 633 364 628 q 301 625 319 638 z "},"ェ":{"ha":1389,"x_min":261,"x_max":1129,"o":"m 385 144 q 366 147 385 144 q 323 160 347 149 q 280 197 299 171 q 261 268 261 222 q 263 290 261 268 q 277 348 265 313 q 315 424 289 383 q 390 499 342 464 q 512 557 438 535 q 694 579 586 579 q 878 557 803 579 q 1001 499 953 535 q 1075 424 1049 464 q 1113 348 1101 383 q 1127 290 1125 313 q 1129 268 1129 268 q 1110 197 1129 222 q 1067 160 1092 171 q 1023 147 1042 149 q 1004 144 1004 144 q 919 144 964 144 q 832 144 875 144 l 832 -14 l 969 -14 q 1065 -53 1025 -14 q 1104 -149 1104 -92 q 1065 -244 1104 -204 q 969 -283 1025 -283 l 435 -283 q 340 -244 379 -283 q 300 -149 300 -204 q 340 -53 300 -92 q 435 -14 379 -14 l 563 -14 l 563 144 q 472 144 519 144 q 385 144 425 144 m 399 439 q 342 384 361 415 q 315 324 322 353 q 309 275 308 294 q 310 254 310 256 q 324 227 311 238 q 353 218 336 217 q 381 233 369 219 q 389 263 392 246 q 390 283 389 264 q 402 328 392 303 q 442 371 413 353 q 460 395 456 379 q 454 426 464 411 q 430 444 446 440 q 399 439 414 447 z "},"エ":{"ha":1389,"x_min":117,"x_max":1274,"o":"m 282 292 q 257 294 282 292 q 199 312 232 297 q 142 360 167 326 q 117 457 117 394 q 120 487 117 457 q 139 564 124 517 q 189 664 154 611 q 288 764 224 717 q 451 841 351 811 q 694 871 550 871 q 939 841 839 871 q 1102 764 1039 811 q 1201 664 1165 717 q 1251 564 1236 611 q 1270 487 1267 517 q 1274 457 1274 457 q 1249 360 1274 394 q 1191 312 1224 326 q 1133 294 1158 297 q 1108 292 1108 292 q 994 292 1056 292 q 878 292 933 292 l 878 81 l 1061 81 q 1152 56 1111 81 q 1217 -9 1193 32 q 1242 -99 1242 -50 q 1217 -190 1242 -149 q 1152 -255 1193 -231 q 1061 -279 1111 -279 l 349 -279 q 259 -255 300 -279 q 194 -190 218 -231 q 169 -99 169 -149 q 194 -9 169 -50 q 259 56 218 32 q 349 81 300 81 l 519 81 l 519 292 q 399 292 463 292 q 282 292 336 292 m 300 683 q 224 612 250 653 q 190 532 199 571 q 181 467 181 493 q 181 438 181 440 q 200 402 183 415 q 239 390 217 389 q 275 409 261 392 q 288 449 289 426 q 289 476 288 450 q 305 536 290 503 q 357 593 319 569 q 381 626 375 604 q 374 667 386 647 q 341 691 363 686 q 300 683 319 696 z "},"ォ":{"ha":1389,"x_min":261,"x_max":1129,"o":"m 385 99 q 366 101 385 99 q 323 114 347 103 q 280 151 299 125 q 261 224 261 176 q 289 347 261 296 q 360 431 317 397 q 456 485 404 465 q 556 516 507 506 q 639 529 604 526 l 639 531 q 678 626 639 586 q 774 665 718 665 q 869 626 831 665 q 908 531 908 586 l 908 496 q 1014 442 964 476 q 1097 355 1064 408 q 1129 224 1129 301 q 1110 151 1129 176 q 1067 114 1092 125 q 1023 101 1042 103 q 1004 99 1004 99 q 960 99 983 99 q 914 99 938 99 l 914 -154 q 875 -250 914 -211 q 779 -289 836 -289 q 688 -252 726 -289 q 646 -162 649 -215 q 479 -268 572 -224 q 376 -273 429 -292 q 300 -204 324 -254 q 294 -101 276 -154 q 364 -25 313 -49 q 456 30 414 -1 q 533 99 497 61 q 458 99 496 99 q 385 99 419 99 m 399 393 q 342 339 361 369 q 315 279 322 308 q 309 231 308 250 q 310 208 310 211 q 324 181 311 192 q 353 172 336 171 q 381 188 369 175 q 389 217 392 200 q 390 238 389 218 q 402 282 392 257 q 442 325 413 307 q 460 350 456 333 q 454 381 464 367 q 430 399 446 394 q 399 393 414 403 z "},"オ":{"ha":1389,"x_min":117,"x_max":1274,"o":"m 282 231 q 257 233 282 231 q 199 251 232 236 q 142 299 167 265 q 117 396 117 333 q 153 560 117 492 q 249 674 190 629 q 376 747 308 719 q 509 787 444 774 q 621 806 574 800 q 645 896 621 856 q 710 960 669 936 q 800 985 750 985 q 891 960 850 985 q 956 896 932 936 q 981 806 981 856 l 981 760 q 1120 689 1053 733 q 1231 572 1188 644 q 1274 396 1274 500 q 1249 299 1274 333 q 1191 251 1224 265 q 1133 233 1158 236 q 1108 231 1108 231 q 1050 231 1081 231 q 988 231 1019 231 l 988 -107 q 963 -198 988 -157 q 899 -262 939 -239 q 808 -286 858 -286 q 721 -264 761 -286 q 656 -203 681 -242 q 629 -118 632 -165 q 524 -194 579 -160 q 407 -258 468 -229 q 315 -276 363 -281 q 228 -244 268 -271 q 168 -174 189 -218 q 151 -81 147 -128 q 182 6 156 -33 q 253 67 208 44 q 479 231 386 129 q 378 231 429 231 q 282 231 326 231 m 300 624 q 224 551 250 592 q 190 471 199 510 q 181 406 181 432 q 181 376 181 379 q 200 341 183 354 q 239 329 217 328 q 275 348 261 331 q 288 388 289 365 q 289 415 288 389 q 305 475 290 442 q 357 532 319 508 q 381 565 375 543 q 374 606 386 586 q 341 630 363 625 q 300 624 319 635 z "},"カ":{"ha":1389,"x_min":115,"x_max":1274,"o":"m 847 797 q 965 767 903 788 q 1087 714 1028 747 q 1192 629 1146 681 q 1258 504 1238 578 q 1274 432 1274 469 q 1254 207 1274 322 q 1199 -16 1235 92 q 1115 -208 1164 -124 q 1050 -275 1092 -251 q 961 -299 1008 -299 q 871 -276 914 -300 q 804 -211 828 -253 q 779 -122 781 -169 q 803 -32 778 -75 q 856 90 832 19 q 894 235 881 160 q 803 235 846 235 q 733 235 761 235 q 689 12 719 122 q 610 -196 658 -99 q 549 -266 589 -240 q 461 -296 508 -292 q 369 -278 414 -300 q 299 -216 325 -256 q 270 -129 274 -176 q 288 -37 267 -82 q 371 235 347 86 q 324 235 347 235 q 281 235 301 235 q 256 238 281 235 q 198 255 231 240 q 140 303 165 269 q 115 400 115 338 q 149 558 115 492 q 237 669 182 624 q 356 742 292 714 q 482 785 419 769 l 492 836 q 531 921 500 885 q 606 974 561 957 q 699 982 650 990 q 808 917 767 969 q 847 797 850 864 m 356 536 q 380 569 375 547 q 372 610 385 592 q 339 633 361 628 q 299 628 317 639 q 223 555 249 596 q 188 475 197 514 q 179 410 179 436 q 179 381 179 383 q 198 344 181 358 q 238 333 215 331 q 275 353 261 336 q 286 392 289 369 q 288 420 286 394 q 303 478 289 446 q 356 536 317 511 z "},"ガ":{"ha":1389,"x_min":115,"x_max":1274,"o":"m 1147 963 q 1237 926 1200 963 q 1274 836 1274 889 q 1237 747 1274 783 q 1147 710 1200 710 q 1105 717 1125 710 q 1068 739 1085 725 q 1031 717 1051 725 q 989 710 1011 710 q 899 747 936 710 q 863 836 863 783 q 899 926 863 889 q 989 963 936 963 q 1068 935 1033 963 q 1147 963 1103 963 m 1138 679 q 1210 604 1179 647 q 1258 504 1242 561 q 1274 432 1274 469 q 1254 207 1274 322 q 1199 -16 1235 92 q 1115 -208 1164 -124 q 1050 -275 1092 -251 q 961 -299 1008 -299 q 871 -276 914 -300 q 804 -211 828 -253 q 779 -122 781 -169 q 803 -32 778 -75 q 856 90 832 19 q 894 235 881 160 q 803 235 846 235 q 733 235 761 235 q 689 12 719 122 q 610 -196 658 -99 q 549 -266 589 -240 q 461 -296 508 -292 q 369 -278 414 -300 q 299 -216 325 -256 q 269 -129 272 -176 q 288 -37 265 -82 q 371 235 347 86 q 324 235 347 235 q 281 235 301 235 q 256 238 281 235 q 198 255 231 240 q 140 303 165 269 q 115 400 115 338 q 149 558 115 492 q 237 669 182 624 q 356 742 292 714 q 482 785 419 769 l 492 836 q 531 921 500 885 q 606 974 561 957 q 699 982 650 990 q 783 943 747 974 q 835 871 818 913 q 831 836 831 854 q 852 756 831 792 q 909 699 874 721 q 989 678 944 678 q 1030 685 1010 678 q 1068 703 1050 692 q 1138 679 1103 681 m 356 536 q 380 569 375 547 q 372 610 385 592 q 339 633 361 628 q 299 628 317 639 q 223 555 249 596 q 188 475 197 514 q 179 410 179 436 q 179 381 179 383 q 198 344 181 358 q 238 333 215 331 q 275 353 261 336 q 286 392 289 369 q 288 420 286 394 q 303 478 289 446 q 356 536 317 511 z "},"キ":{"ha":1389,"x_min":117,"x_max":1274,"o":"m 885 796 q 1015 755 947 782 q 1142 683 1083 728 q 1238 569 1201 638 q 1274 406 1274 501 q 1249 309 1274 343 q 1191 260 1224 275 q 1133 243 1158 246 q 1108 240 1108 240 q 993 240 1056 240 q 875 240 931 240 l 875 207 l 989 207 q 1080 183 1039 207 q 1145 117 1121 158 q 1169 26 1169 76 q 1145 -63 1169 -22 q 1080 -128 1121 -104 q 989 -153 1039 -153 l 872 -153 q 810 -258 860 -215 q 694 -300 761 -300 q 580 -258 629 -300 q 518 -153 531 -215 l 390 -153 q 301 -128 342 -153 q 235 -63 260 -104 q 211 26 211 -22 q 235 117 211 76 q 301 183 260 158 q 390 207 342 207 l 515 207 l 515 240 q 397 240 458 240 q 282 240 335 240 q 257 243 282 240 q 199 260 232 246 q 142 309 167 275 q 117 406 117 343 q 156 575 117 506 q 257 690 194 644 q 390 761 319 735 q 525 800 461 788 l 525 806 q 569 924 525 874 q 678 983 614 974 q 685 985 678 983 q 699 986 692 986 q 739 982 719 986 q 843 920 801 969 q 885 806 885 871 l 885 796 m 357 542 q 381 575 375 553 q 374 615 386 597 q 341 640 363 635 q 300 633 319 644 q 224 560 250 601 q 190 481 199 519 q 181 415 181 442 q 181 386 181 389 q 200 350 183 364 q 239 339 217 336 q 275 358 261 342 q 288 397 289 375 q 289 426 288 400 q 305 484 290 451 q 357 542 319 517 z "},"ギ":{"ha":1389,"x_min":117,"x_max":1274,"o":"m 1138 963 q 1226 926 1189 963 q 1264 836 1264 889 q 1226 747 1264 783 q 1138 710 1189 710 q 1058 739 1092 710 q 979 710 1022 710 q 889 747 926 710 q 851 836 851 783 q 889 926 851 889 q 979 963 926 963 q 1058 935 1024 963 q 1138 963 1090 963 m 1147 679 q 1238 567 1203 633 q 1274 406 1274 500 q 1249 309 1274 343 q 1191 260 1224 275 q 1133 243 1158 246 q 1108 240 1108 240 q 993 240 1056 240 q 875 240 931 240 l 875 207 l 989 207 q 1080 183 1039 207 q 1145 117 1121 158 q 1169 26 1169 76 q 1145 -63 1169 -22 q 1080 -128 1121 -104 q 989 -153 1039 -153 l 872 -153 q 810 -258 860 -215 q 694 -300 761 -300 q 580 -258 629 -300 q 518 -153 531 -215 l 390 -153 q 301 -128 342 -153 q 235 -63 260 -104 q 211 26 211 -22 q 235 117 211 76 q 301 183 260 158 q 390 207 342 207 l 515 207 l 515 240 q 397 240 458 240 q 282 240 335 240 q 257 243 282 240 q 199 260 232 246 q 142 309 167 275 q 117 406 117 343 q 156 575 117 506 q 257 690 194 644 q 390 761 319 735 q 525 800 461 788 l 525 806 q 569 924 525 874 q 678 983 614 974 q 685 985 678 983 q 699 986 692 986 q 739 982 719 986 q 844 919 804 969 q 821 836 821 881 q 842 756 821 792 q 900 699 864 721 q 979 678 936 678 q 1019 685 1000 678 q 1058 703 1039 692 q 1096 685 1076 692 q 1138 678 1115 678 q 1142 678 1139 678 q 1147 679 1144 679 m 357 542 q 381 575 375 553 q 374 615 386 597 q 341 640 363 635 q 300 633 319 644 q 224 560 250 601 q 190 481 199 519 q 181 415 181 442 q 181 386 181 389 q 200 350 183 364 q 239 339 217 336 q 275 358 261 342 q 288 397 289 375 q 289 426 288 400 q 305 484 290 451 q 357 542 319 517 z "},"ク":{"ha":1389,"x_min":128,"x_max":1278,"o":"m 722 890 q 944 863 853 890 q 1097 794 1036 836 q 1194 704 1158 751 q 1247 615 1229 657 q 1270 545 1265 572 q 1275 518 1275 518 q 1277 500 1276 508 q 1278 482 1278 492 q 1273 350 1278 426 q 1254 186 1268 274 q 1215 8 1240 99 q 1146 -167 1189 -82 q 1135 -187 1140 -178 q 1125 -206 1131 -196 q 1058 -272 1100 -249 q 969 -295 1017 -294 q 879 -271 922 -296 q 813 -204 836 -246 q 790 -115 790 -162 q 814 -25 789 -68 q 824 -9 819 -18 q 832 10 828 0 q 880 155 861 74 q 908 318 899 236 q 879 318 908 318 q 807 318 850 318 q 722 318 764 318 q 628 318 675 318 q 551 318 582 318 q 519 318 519 318 q 506 232 514 275 q 485 150 497 189 q 433 72 469 103 q 351 32 397 42 q 257 38 304 22 q 180 88 211 53 q 138 170 149 124 q 144 264 128 217 q 161 344 154 294 q 171 447 168 394 q 169 460 171 447 q 167 482 167 472 q 175 563 167 525 q 200 638 179 604 q 216 663 200 638 q 268 726 232 689 q 365 801 304 764 q 513 865 425 839 q 722 890 601 890 m 394 626 q 417 660 413 639 q 411 700 422 681 q 377 724 399 719 q 338 717 356 729 q 260 644 288 686 q 219 564 232 603 q 204 499 207 525 q 201 469 201 472 q 220 433 203 447 q 260 422 238 419 q 295 441 282 425 q 307 479 308 457 q 313 508 307 481 q 338 569 319 535 q 394 626 356 603 z "},"グ":{"ha":1389,"x_min":128,"x_max":1278,"o":"m 1151 963 q 1240 926 1203 963 q 1278 836 1278 889 q 1240 747 1278 783 q 1151 710 1203 710 q 1072 739 1106 710 q 993 710 1036 710 q 903 747 940 710 q 865 836 865 783 q 903 926 865 889 q 993 963 940 963 q 1072 935 1038 963 q 1151 963 1104 963 m 1213 690 q 1254 613 1238 656 q 1275 518 1271 569 q 1277 500 1276 508 q 1278 482 1278 492 q 1273 350 1278 426 q 1254 186 1268 274 q 1215 8 1240 99 q 1146 -167 1189 -82 q 1135 -187 1140 -178 q 1125 -206 1131 -196 q 1058 -272 1100 -249 q 969 -295 1017 -294 q 879 -271 922 -296 q 813 -204 836 -246 q 790 -115 790 -162 q 814 -25 789 -68 q 824 -9 819 -18 q 832 10 828 0 q 880 155 861 74 q 908 318 899 236 q 879 318 908 318 q 807 318 850 318 q 722 318 764 318 q 628 318 675 318 q 551 318 582 318 q 519 318 519 318 q 506 232 514 275 q 485 150 497 189 q 433 72 469 103 q 351 32 397 42 q 257 38 304 22 q 180 88 211 53 q 138 170 149 124 q 144 264 128 217 q 161 344 154 294 q 171 447 168 394 q 169 460 171 447 q 167 482 167 472 q 175 563 167 525 q 200 638 179 604 q 216 663 200 638 q 268 726 232 689 q 365 801 304 764 q 513 865 425 839 q 722 890 601 890 q 774 888 747 890 q 821 882 801 885 q 840 879 840 879 q 837 858 839 869 q 835 836 835 847 q 856 756 835 792 q 914 699 878 721 q 993 678 950 678 q 1033 685 1014 678 q 1072 703 1053 692 q 1110 685 1090 692 q 1151 678 1129 678 q 1213 690 1183 678 m 394 626 q 418 660 414 639 q 411 700 422 681 q 377 724 399 719 q 338 717 356 729 q 260 644 288 686 q 219 564 232 603 q 204 499 207 525 q 201 469 201 472 q 220 433 203 447 q 260 422 238 419 q 295 441 282 425 q 307 479 308 457 q 313 508 307 481 q 338 569 319 535 q 394 626 356 603 z "},"ケ":{"ha":1389,"x_min":89,"x_max":1314,"o":"m 736 818 q 980 788 881 818 q 1143 711 1079 758 q 1242 612 1207 664 q 1292 513 1276 560 q 1310 435 1307 465 q 1314 406 1314 406 q 1296 324 1314 356 q 1255 276 1278 293 q 1214 253 1232 260 q 1196 246 1196 246 q 1139 238 1171 238 q 1092 238 1117 238 q 1040 238 1067 238 q 1019 31 1036 146 q 963 -186 1003 -83 q 907 -261 944 -232 q 823 -298 869 -290 q 731 -287 776 -306 q 654 -232 683 -269 q 617 -147 625 -194 q 628 -54 610 -100 q 662 74 649 -3 q 681 238 675 150 q 593 238 646 238 q 481 238 540 238 q 465 172 474 204 q 447 111 457 140 q 398 32 433 64 q 316 -11 363 0 q 222 -8 269 -22 q 143 41 175 6 q 100 123 111 76 q 104 217 89 169 q 149 407 129 300 q 164 515 149 465 q 183 786 183 658 q 208 876 183 836 q 273 941 232 917 q 363 965 314 965 q 451 942 411 965 q 515 881 490 919 q 542 794 539 842 q 572 800 542 794 q 647 812 603 806 q 736 818 692 818 m 367 815 q 393 847 386 825 q 389 888 400 868 q 356 913 378 907 q 315 910 335 919 q 239 820 264 882 q 219 678 214 758 q 238 642 221 656 q 276 629 254 628 q 314 647 300 631 q 326 686 328 664 q 333 761 325 722 q 367 815 340 800 z "},"ゲ":{"ha":1389,"x_min":89,"x_max":1314,"o":"m 1154 963 q 1243 926 1206 963 q 1281 836 1281 889 q 1243 747 1281 783 q 1154 710 1206 710 q 1111 717 1131 710 q 1075 739 1092 725 q 1039 717 1058 725 q 996 710 1019 710 q 907 747 944 710 q 869 836 869 783 q 907 926 869 889 q 996 963 944 963 q 1075 935 1040 963 q 1154 963 1110 963 m 1183 681 q 1277 567 1240 635 q 1314 406 1314 500 q 1296 324 1314 356 q 1255 276 1278 293 q 1214 253 1232 260 q 1196 246 1196 246 q 1139 238 1171 238 q 1092 238 1117 238 q 1040 238 1067 238 q 1019 31 1036 146 q 963 -186 1003 -83 q 907 -261 944 -232 q 823 -298 869 -290 q 731 -287 776 -306 q 654 -232 683 -269 q 617 -147 625 -194 q 628 -54 610 -100 q 662 74 649 -3 q 681 238 675 150 q 593 238 646 238 q 481 238 540 238 q 465 172 474 204 q 447 111 457 140 q 398 32 433 64 q 316 -11 363 0 q 222 -8 269 -22 q 143 41 175 6 q 100 123 111 76 q 104 217 89 169 q 149 407 129 300 q 164 515 149 465 q 183 786 183 658 q 208 876 183 836 q 273 941 232 917 q 363 965 314 965 q 451 942 411 965 q 515 881 490 919 q 542 794 539 842 q 572 800 542 794 q 647 812 603 806 q 736 818 692 818 q 781 816 757 818 q 823 812 806 814 q 840 810 840 810 q 894 715 850 753 q 996 678 938 678 q 1036 685 1017 678 q 1075 703 1056 692 q 1114 685 1094 692 q 1154 678 1133 678 q 1169 678 1161 678 q 1183 681 1176 679 m 367 815 q 393 847 386 825 q 389 888 400 868 q 356 913 378 907 q 315 910 335 919 q 239 820 264 882 q 219 678 214 758 q 238 642 221 656 q 276 629 254 628 q 314 647 300 631 q 326 686 328 664 q 333 761 325 722 q 367 815 340 800 z "},"コ":{"ha":1389,"x_min":117,"x_max":1274,"o":"m 694 886 q 927 859 831 886 q 1087 788 1024 832 q 1188 697 1150 744 q 1243 605 1225 649 q 1267 534 1261 561 q 1272 507 1272 507 q 1274 494 1274 500 q 1274 482 1274 489 q 1262 277 1274 390 q 1216 43 1250 164 q 1117 -189 1182 -78 q 1051 -253 1093 -229 q 961 -278 1008 -278 l 408 -278 q 317 -253 358 -278 q 252 -188 276 -229 q 228 -97 228 -147 q 252 -7 228 -47 q 317 58 276 33 q 408 82 358 82 q 738 82 629 82 q 847 82 847 82 q 882 194 868 138 q 903 307 896 251 q 871 307 903 307 q 790 307 839 307 q 694 307 742 307 q 478 307 571 307 q 333 307 385 307 q 282 307 282 307 q 257 310 282 307 q 199 327 232 313 q 142 376 167 342 q 117 472 117 410 q 120 502 117 472 q 139 579 124 532 q 189 679 154 626 q 288 779 224 732 q 451 856 351 826 q 694 886 550 886 m 357 608 q 381 642 375 619 q 374 682 386 664 q 341 706 363 700 q 300 699 319 711 q 224 626 250 667 q 190 547 199 586 q 181 482 181 508 q 181 453 181 456 q 200 417 183 431 q 239 406 217 403 q 275 425 261 408 q 288 464 289 442 q 289 492 288 467 q 305 551 290 518 q 357 608 319 583 z "},"ゴ":{"ha":1389,"x_min":117,"x_max":1274,"o":"m 1142 963 q 1231 926 1194 963 q 1268 836 1268 889 q 1231 747 1268 783 q 1142 710 1194 710 q 1063 739 1096 710 q 983 710 1026 710 q 893 747 931 710 q 856 836 856 783 q 893 926 856 889 q 983 963 931 963 q 1063 935 1028 963 q 1142 963 1094 963 m 1201 690 q 1248 609 1229 654 q 1272 507 1267 564 q 1273 494 1272 500 q 1274 482 1274 489 q 1262 277 1274 390 q 1216 43 1250 164 q 1117 -189 1182 -78 q 1051 -253 1093 -229 q 961 -278 1010 -278 l 408 -278 q 317 -253 358 -278 q 252 -188 276 -229 q 228 -97 228 -147 q 252 -7 228 -47 q 317 58 276 33 q 408 82 358 82 q 738 82 629 82 q 847 82 847 82 q 882 194 868 138 q 903 307 896 251 q 871 307 903 307 q 790 307 839 307 q 694 307 742 307 q 478 307 571 307 q 333 307 385 307 q 282 307 282 307 q 257 310 282 307 q 199 327 232 313 q 142 376 167 342 q 117 472 117 410 q 120 502 117 472 q 139 579 124 532 q 189 679 154 626 q 288 779 224 732 q 451 856 351 826 q 694 886 550 886 q 754 883 722 886 q 808 876 786 879 q 829 872 829 872 q 825 836 825 856 q 847 756 825 792 q 903 699 868 721 q 983 678 939 678 q 1024 685 1004 678 q 1063 703 1044 692 q 1100 685 1081 692 q 1142 678 1119 678 q 1201 690 1172 678 m 357 608 q 381 642 375 619 q 374 682 386 664 q 341 706 363 700 q 300 699 319 711 q 224 626 250 667 q 190 547 199 586 q 181 482 181 508 q 181 453 181 456 q 200 417 183 431 q 239 406 217 403 q 275 425 261 408 q 288 464 289 442 q 289 492 288 467 q 305 551 290 518 q 357 608 319 583 z "},"サ":{"ha":1389,"x_min":117,"x_max":1274,"o":"m 1167 667 q 1167 666 1167 667 q 1167 665 1167 665 q 1244 558 1214 621 q 1274 411 1274 496 q 1253 323 1274 356 q 1205 274 1232 290 q 1157 252 1178 257 q 1136 247 1136 247 q 1032 -192 1113 -15 q 972 -264 1011 -236 q 886 -297 933 -292 q 794 -281 839 -301 q 722 -221 750 -260 q 690 -135 694 -182 q 706 -43 685 -89 q 749 86 732 14 q 775 246 765 158 q 747 246 775 246 q 694 246 718 246 q 659 246 679 246 q 639 246 639 246 l 639 111 q 615 20 639 61 q 549 -45 590 -21 q 460 -69 508 -69 q 370 -45 411 -69 q 305 20 329 -21 q 281 111 281 61 l 281 246 q 256 249 281 246 q 199 267 231 253 q 142 316 167 282 q 117 411 117 350 q 161 588 117 517 q 272 706 206 660 l 272 803 q 297 893 272 853 q 362 958 321 933 q 453 982 403 982 q 574 935 522 982 q 631 819 625 889 q 653 822 631 819 q 694 824 676 824 q 747 822 719 824 q 795 817 775 819 q 815 814 815 814 l 815 817 q 844 906 818 867 q 913 967 871 944 q 1004 986 954 989 q 1092 957 1053 983 q 1154 889 1132 931 q 1174 797 1176 847 l 1167 667 m 357 546 q 381 580 375 558 q 374 621 386 601 q 341 644 363 639 q 300 638 319 649 q 224 565 250 606 q 190 485 199 524 q 181 420 181 446 q 181 392 181 394 q 200 356 183 369 q 239 343 217 342 q 275 362 261 344 q 288 401 289 379 q 289 429 288 403 q 305 489 290 456 q 357 546 319 522 z "},"ザ":{"ha":1389,"x_min":110,"x_max":1279,"o":"m 1153 968 q 1242 931 1206 968 q 1279 842 1279 894 q 1242 752 1279 789 q 1153 715 1206 715 q 1110 723 1131 715 q 1074 743 1089 731 q 1037 723 1057 731 q 993 715 1017 715 q 904 752 942 715 q 867 842 867 789 q 904 931 867 894 q 993 968 942 968 q 1037 960 1017 968 q 1074 940 1057 953 q 1110 960 1089 953 q 1153 968 1131 968 m 1160 667 q 1160 666 1160 667 q 1160 665 1160 665 q 1237 558 1207 621 q 1267 411 1267 496 q 1246 323 1267 356 q 1198 274 1225 290 q 1150 252 1171 257 q 1129 247 1129 247 q 1025 -192 1106 -15 q 967 -264 1006 -236 q 881 -297 928 -292 q 788 -281 833 -301 q 715 -221 742 -260 q 683 -135 688 -182 q 699 -43 678 -89 q 742 86 725 14 q 768 246 758 158 q 740 246 768 246 q 688 246 711 246 q 652 246 672 246 q 632 246 632 246 l 632 111 q 608 20 632 61 q 543 -45 583 -21 q 453 -69 503 -69 q 363 -45 403 -69 q 298 20 322 -21 q 274 111 274 61 l 274 246 q 249 249 274 246 q 192 267 224 253 q 135 316 160 282 q 110 411 110 350 q 154 588 110 517 q 265 706 199 660 l 265 803 q 290 893 265 853 q 355 958 314 933 q 446 982 396 982 q 566 935 515 982 q 624 819 617 889 q 647 822 624 819 q 688 824 669 824 q 741 822 713 824 q 789 817 769 819 q 808 814 808 814 l 808 817 q 829 891 811 857 q 878 949 847 925 q 847 900 858 928 q 835 842 835 872 q 856 762 835 797 q 914 705 878 726 q 993 683 950 683 q 1035 690 1015 683 q 1074 707 1056 697 q 1111 690 1092 697 q 1153 683 1131 683 q 1161 685 1158 683 l 1160 667 m 350 546 q 374 580 369 558 q 367 621 379 601 q 333 644 356 639 q 293 638 311 649 q 217 565 243 606 q 183 485 192 524 q 174 420 174 446 q 174 392 174 394 q 192 356 175 369 q 232 343 210 342 q 269 362 256 344 q 281 401 283 379 q 282 429 281 403 q 297 489 283 456 q 350 546 311 522 z "},"シ":{"ha":1389,"x_min":78,"x_max":1301,"o":"m 228 310 q 206 313 228 310 q 154 330 183 315 q 102 378 125 344 q 78 475 79 413 q 80 505 78 475 q 93 582 82 535 q 131 681 104 629 q 203 781 157 733 q 323 858 250 828 q 501 888 396 888 q 680 858 607 888 q 799 781 753 828 q 872 681 846 733 q 910 582 899 629 q 923 505 921 535 q 925 475 925 475 q 901 378 924 413 q 851 330 879 344 q 803 313 824 315 q 782 310 782 310 q 745 310 782 310 q 644 310 708 310 q 501 310 581 310 q 363 310 425 310 q 265 310 301 310 q 228 310 228 310 m 254 721 q 180 645 204 689 q 148 559 156 601 q 141 488 140 517 q 142 456 142 458 q 161 419 144 433 q 200 407 178 406 q 236 426 222 408 q 249 465 250 443 q 248 485 249 467 q 251 531 247 504 q 269 585 256 558 q 311 631 282 613 q 335 664 331 642 q 329 704 340 686 q 294 728 317 722 q 254 721 272 733 m 1156 586 q 1238 542 1204 575 q 1287 465 1272 510 q 1290 371 1301 419 q 1153 24 1249 186 q 925 -250 1057 -139 q 840 -290 886 -282 q 748 -282 793 -297 q 671 -228 703 -267 q 632 -140 639 -189 q 642 -47 625 -92 q 540 -81 594 -81 l 313 -81 q 222 -56 263 -81 q 156 9 181 -32 q 132 100 132 50 q 156 190 132 150 q 222 255 181 231 q 313 279 263 279 l 540 279 q 630 255 589 279 q 695 190 671 231 q 719 100 719 150 q 708 39 719 69 q 852 221 792 114 q 940 451 913 328 q 984 534 951 500 q 1063 583 1017 568 q 1156 586 1108 597 z "},"ジ":{"ha":1389,"x_min":78,"x_max":1301,"o":"m 228 310 q 206 313 228 310 q 154 330 183 315 q 102 378 125 344 q 78 475 79 413 q 80 505 78 475 q 93 582 82 535 q 131 681 104 629 q 203 781 157 733 q 323 858 250 828 q 501 888 396 888 q 680 858 607 888 q 799 781 753 828 q 872 681 846 733 q 910 582 899 629 q 923 505 921 535 q 925 475 925 475 q 901 378 924 413 q 851 330 879 344 q 803 313 824 315 q 782 310 782 310 q 745 310 782 310 q 644 310 708 310 q 501 310 581 310 q 363 310 425 310 q 265 310 301 310 q 228 310 228 310 m 254 721 q 180 645 204 689 q 148 559 156 601 q 141 488 140 517 q 142 456 142 458 q 161 419 144 433 q 200 407 178 406 q 236 426 222 408 q 249 465 250 443 q 248 485 249 467 q 251 531 247 504 q 269 585 256 558 q 311 631 282 613 q 335 664 331 642 q 329 704 340 686 q 294 728 317 722 q 254 721 272 733 m 1156 586 q 1238 542 1204 575 q 1287 465 1272 510 q 1290 371 1301 419 q 1153 24 1249 186 q 925 -250 1057 -139 q 840 -290 886 -282 q 748 -282 793 -297 q 671 -228 703 -267 q 632 -140 639 -189 q 642 -47 625 -92 q 540 -81 594 -81 l 313 -81 q 222 -56 263 -81 q 156 9 181 -32 q 132 100 132 50 q 156 190 132 150 q 222 255 181 231 q 313 279 263 279 l 540 279 q 630 255 589 279 q 695 190 671 231 q 719 100 719 150 q 708 39 719 69 q 852 221 792 114 q 940 451 913 328 q 984 534 951 500 q 1063 583 1017 568 q 1156 586 1108 597 m 1168 968 q 1257 931 1219 968 q 1294 842 1294 894 q 1257 752 1294 789 q 1168 715 1219 715 q 1124 723 1144 715 q 1089 743 1104 731 q 1052 723 1072 731 q 1010 715 1032 715 q 919 752 957 715 q 882 842 882 789 q 919 931 882 894 q 1010 968 957 968 q 1052 960 1032 968 q 1089 940 1072 953 q 1124 960 1104 953 q 1168 968 1144 968 z "},"ス":{"ha":1389,"x_min":117,"x_max":1274,"o":"m 282 313 q 257 315 282 313 q 199 333 232 318 q 142 381 167 347 q 117 478 117 415 q 120 508 117 478 q 139 585 124 538 q 189 685 154 632 q 288 785 224 738 q 451 862 351 832 q 694 892 550 892 q 939 862 839 892 q 1102 785 1039 832 q 1201 685 1165 738 q 1251 585 1236 632 q 1270 508 1267 538 q 1274 478 1274 478 q 1262 417 1274 443 q 1239 375 1250 390 q 1228 360 1228 360 q 1006 114 1132 235 q 1049 77 1026 94 q 1097 47 1072 60 q 1165 -17 1140 24 q 1191 -106 1189 -58 q 1169 -197 1193 -153 q 1104 -265 1144 -240 q 1017 -291 1064 -289 q 925 -269 969 -293 q 729 -115 817 -208 q 499 -264 615 -199 q 408 -288 456 -289 q 319 -263 360 -287 q 253 -196 278 -239 q 229 -106 228 -153 q 254 -17 231 -58 q 321 49 278 25 q 510 169 415 101 q 690 313 604 238 q 634 313 678 313 q 530 313 590 313 q 404 313 469 313 q 282 313 339 313 m 300 704 q 224 632 250 672 q 190 553 199 592 q 181 488 181 514 q 181 458 181 461 q 200 422 183 436 q 239 411 217 408 q 275 431 261 414 q 288 469 289 447 q 289 498 288 472 q 305 556 290 524 q 357 614 319 589 q 381 647 375 625 q 374 688 386 669 q 341 711 363 706 q 300 704 319 717 z "},"ズ":{"ha":1389,"x_min":117,"x_max":1274,"o":"m 1132 968 q 1221 931 1183 968 q 1258 842 1258 894 q 1221 752 1258 789 q 1132 715 1183 715 q 1088 723 1108 715 q 1053 743 1068 731 q 1016 723 1036 731 q 974 715 996 715 q 884 752 921 715 q 847 842 847 789 q 884 931 847 894 q 974 968 921 968 q 1016 960 996 968 q 1053 940 1036 953 q 1088 960 1068 953 q 1132 968 1108 968 m 1132 683 q 1199 699 1165 683 q 1253 602 1233 657 q 1274 478 1274 547 q 1262 417 1274 443 q 1239 375 1250 390 q 1228 360 1228 360 q 1006 114 1132 235 q 1049 77 1026 94 q 1097 47 1072 60 q 1165 -17 1140 24 q 1191 -106 1189 -58 q 1169 -197 1193 -153 q 1104 -265 1144 -240 q 1017 -291 1064 -289 q 925 -269 969 -293 q 729 -115 817 -208 q 499 -264 615 -199 q 408 -288 456 -289 q 319 -263 360 -287 q 253 -196 278 -239 q 229 -106 228 -153 q 254 -17 231 -58 q 321 49 278 25 q 510 169 415 101 q 690 313 604 238 q 634 313 678 313 q 530 313 590 313 q 404 313 469 313 q 282 313 339 313 q 257 315 282 313 q 199 333 232 318 q 142 381 167 347 q 117 478 117 415 q 120 508 117 478 q 139 585 124 538 q 189 685 154 632 q 288 785 224 738 q 451 862 351 832 q 694 892 550 892 q 750 889 721 892 q 799 883 779 886 q 819 879 819 879 q 815 842 815 863 q 837 762 815 797 q 894 705 858 726 q 974 683 931 683 q 1014 690 994 683 q 1053 707 1033 697 q 1090 690 1071 697 q 1132 683 1110 683 m 357 614 q 381 647 375 625 q 374 688 386 669 q 341 711 363 706 q 300 704 319 717 q 224 632 250 672 q 190 553 199 592 q 181 488 181 514 q 181 458 181 461 q 200 422 183 436 q 239 411 217 408 q 275 431 261 414 q 288 469 289 447 q 289 498 288 472 q 305 556 290 524 q 357 614 319 589 z "},"セ":{"ha":1389,"x_min":114,"x_max":1279,"o":"m 388 -169 q 385 -164 386 -167 q 383 -160 385 -161 q 383 -160 383 -160 q 385 -162 383 -161 q 388 -169 385 -164 m 692 810 q 916 784 822 810 q 1074 718 1010 758 q 1176 632 1138 678 q 1233 546 1214 586 q 1260 480 1253 506 q 1267 454 1267 454 q 1269 364 1279 411 l 1233 196 q 1190 113 1222 147 q 1112 63 1157 78 q 1019 58 1067 47 q 918 122 957 72 q 878 232 879 171 q 849 232 878 232 q 776 232 819 232 q 692 232 733 232 q 673 232 683 232 q 663 232 663 232 q 672 153 667 192 q 686 79 678 114 q 715 79 686 79 q 792 79 744 79 q 894 79 839 79 q 985 55 944 79 q 1049 -10 1025 31 q 1074 -100 1074 -50 q 1051 -191 1075 -150 q 985 -256 1026 -232 q 896 -281 944 -281 l 606 -281 q 529 -275 572 -281 q 447 -245 486 -269 q 385 -162 407 -221 q 301 232 318 7 q 290 232 296 232 q 279 232 285 232 q 254 235 279 232 q 197 252 229 238 q 139 301 164 267 q 114 397 114 335 q 154 566 114 497 q 254 681 194 635 l 243 786 q 258 879 239 836 q 315 950 278 922 q 403 983 353 978 q 496 969 453 989 q 567 913 539 950 q 601 825 596 875 l 603 804 q 634 807 603 804 q 692 810 665 810 m 354 533 q 378 567 372 544 q 371 607 383 589 q 338 631 360 625 q 297 624 317 636 q 222 551 247 592 q 187 472 196 511 q 178 407 178 433 q 178 378 178 381 q 197 342 181 356 q 236 331 214 328 q 272 350 258 333 q 285 389 286 367 q 286 417 285 392 q 302 476 288 443 q 354 533 317 508 z "},"ゼ":{"ha":1389,"x_min":114,"x_max":1279,"o":"m 388 -169 q 385 -164 386 -167 q 383 -160 385 -161 q 383 -160 383 -160 q 385 -162 383 -161 q 388 -169 385 -164 m 1142 968 q 1231 931 1194 968 q 1268 842 1268 894 q 1231 752 1268 789 q 1142 715 1194 715 q 1099 723 1119 715 q 1063 743 1078 731 q 1026 723 1046 731 q 983 715 1006 715 q 893 752 931 715 q 856 842 856 789 q 893 931 856 894 q 983 968 931 968 q 1026 960 1006 968 q 1063 940 1046 953 q 1099 960 1078 953 q 1142 968 1119 968 m 1124 685 q 1217 588 1178 644 q 1267 454 1256 532 q 1269 364 1279 411 l 1233 196 q 1190 113 1222 147 q 1112 63 1157 78 q 1019 58 1067 47 q 918 122 957 72 q 878 232 879 171 q 849 232 878 232 q 776 232 819 232 q 692 232 733 232 q 673 232 683 232 q 663 232 663 232 q 672 153 667 192 q 686 79 678 114 q 715 79 686 79 q 792 79 744 79 q 894 79 839 79 q 985 55 944 79 q 1049 -10 1025 31 q 1074 -100 1074 -50 q 1051 -191 1075 -150 q 985 -256 1026 -232 q 896 -281 944 -281 l 606 -281 q 529 -275 572 -281 q 447 -245 486 -269 q 385 -162 407 -221 q 301 232 318 7 q 290 232 296 232 q 279 232 285 232 q 254 235 279 232 q 197 252 229 238 q 139 301 164 267 q 114 397 114 335 q 154 566 114 497 q 256 681 194 635 l 243 786 q 258 879 239 836 q 315 950 278 922 q 403 983 353 978 q 496 969 453 989 q 567 913 539 950 q 601 825 596 875 l 603 804 q 634 807 603 804 q 692 810 665 810 q 754 806 722 810 q 809 800 786 803 q 832 797 832 797 q 888 716 847 749 q 983 683 929 683 q 1024 690 1004 683 q 1063 707 1044 697 q 1093 692 1078 699 q 1124 685 1108 686 m 354 533 q 378 567 372 544 q 371 607 383 589 q 338 631 360 625 q 297 624 317 636 q 222 551 247 592 q 187 472 196 511 q 178 407 178 433 q 178 378 178 381 q 197 342 181 356 q 236 331 214 328 q 272 350 258 333 q 285 389 286 367 q 286 417 285 392 q 302 476 288 443 q 354 533 317 508 z "},"ソ":{"ha":1389,"x_min":171,"x_max":1290,"o":"m 579 106 q 428 136 503 106 q 294 221 354 167 q 201 346 235 275 q 183 406 192 364 q 172 502 174 447 q 183 615 171 557 q 230 725 196 672 q 325 816 264 778 q 483 867 386 854 q 576 857 542 875 q 628 811 611 839 q 651 762 646 783 q 657 740 657 740 q 661 703 657 740 q 673 606 665 667 q 690 468 681 544 q 701 383 694 429 q 712 303 707 336 q 717 269 717 269 q 703 165 726 200 q 644 118 681 131 q 579 106 608 106 m 274 658 q 272 618 264 639 q 299 588 279 597 q 337 586 317 578 q 365 614 357 594 q 403 662 379 644 q 451 688 426 679 q 493 697 475 696 q 513 699 511 699 q 548 715 533 700 q 561 754 563 731 q 545 792 560 776 q 510 806 531 807 q 479 803 507 806 q 413 786 451 800 q 335 742 374 772 q 274 658 297 713 m 1121 763 q 1209 732 1169 758 q 1269 663 1249 706 q 1286 571 1290 619 q 1239 297 1276 435 q 1140 31 1201 160 q 996 -211 1078 -99 q 923 -270 967 -251 q 832 -285 879 -289 q 744 -251 785 -281 q 685 -178 704 -222 q 672 -86 667 -133 q 706 0 676 -39 q 858 286 800 131 q 928 597 917 442 q 959 686 932 647 q 1029 746 986 725 q 1121 763 1072 767 z "},"ゾ":{"ha":1389,"x_min":158,"x_max":1306,"o":"m 567 106 q 415 136 489 106 q 282 221 342 167 q 189 346 222 275 q 171 406 181 364 q 160 502 161 447 q 171 615 158 557 q 217 725 183 672 q 313 816 251 778 q 471 867 374 854 q 564 857 529 875 q 616 811 599 839 q 639 762 633 783 q 644 740 644 740 q 649 703 644 740 q 660 606 653 667 q 678 468 667 544 q 689 383 683 429 q 699 303 694 336 q 704 269 704 269 q 691 165 714 200 q 633 118 668 131 q 567 106 597 106 m 261 658 q 259 618 251 639 q 286 588 267 597 q 325 586 306 578 q 353 614 344 594 q 390 662 367 644 q 438 688 414 679 q 481 697 463 696 q 500 699 499 699 q 535 715 521 700 q 549 754 550 731 q 533 792 547 776 q 497 806 518 807 q 467 803 494 806 q 400 786 439 800 q 323 742 361 772 q 261 658 285 713 m 1178 968 q 1268 931 1231 968 q 1306 842 1306 894 q 1268 752 1306 789 q 1178 715 1231 715 q 1135 723 1156 715 q 1099 743 1115 731 q 1063 723 1083 731 q 1019 715 1042 715 q 930 752 967 715 q 893 842 893 789 q 930 931 893 894 q 1019 968 967 968 q 1063 960 1042 968 q 1099 940 1083 953 q 1135 960 1115 953 q 1178 968 1156 968 m 1178 683 q 1236 694 1207 683 q 1266 638 1256 669 q 1274 571 1276 606 q 1226 297 1264 435 q 1128 31 1189 160 q 983 -211 1067 -99 q 910 -270 954 -251 q 819 -285 867 -289 q 732 -251 772 -281 q 673 -178 692 -222 q 659 -86 654 -133 q 693 0 664 -39 q 846 286 788 131 q 915 597 904 442 q 928 651 917 625 q 956 697 939 676 q 1019 683 988 683 q 1061 690 1042 683 q 1099 707 1081 697 q 1137 690 1117 697 q 1178 683 1157 683 z "},"タ":{"ha":1389,"x_min":114,"x_max":1276,"o":"m 696 886 q 924 860 829 886 q 1083 791 1019 833 q 1184 702 1146 749 q 1241 613 1222 656 q 1265 544 1260 571 q 1271 518 1271 518 q 1274 499 1272 508 q 1276 479 1276 489 q 1264 267 1276 383 q 1217 27 1251 150 q 1117 -207 1183 -96 q 1050 -272 1092 -250 q 961 -294 1008 -294 q 871 -269 914 -294 q 800 -193 822 -242 q 783 -93 778 -144 q 781 -94 782 -93 q 779 -94 781 -94 q 542 -96 635 -96 q 397 -94 450 -96 q 315 -86 343 -92 q 271 -69 286 -81 q 238 -42 256 -58 q 219 -20 228 -31 q 206 3 211 -10 q 153 138 172 67 q 125 276 133 208 q 115 401 117 344 q 115 490 114 457 q 122 533 115 510 q 129 559 122 533 q 156 625 136 585 q 214 710 175 665 q 316 794 253 754 q 472 860 379 835 q 696 886 565 886 m 364 615 q 388 648 383 626 q 382 689 393 669 q 347 713 369 708 q 307 707 325 718 q 231 634 257 675 q 197 554 206 593 q 188 489 188 515 q 188 460 188 463 q 208 424 190 438 q 247 413 225 411 q 283 431 269 414 q 296 471 297 449 q 296 499 294 472 q 311 558 297 525 q 364 615 325 592 m 893 222 q 901 265 897 243 q 907 308 904 286 q 874 308 907 308 q 793 308 842 308 q 696 308 744 308 q 599 308 647 308 q 517 308 550 308 q 485 308 485 308 q 489 286 486 297 q 493 264 492 275 q 626 264 551 264 q 775 265 701 264 q 893 222 843 265 z "},"ダ":{"ha":1389,"x_min":114,"x_max":1276,"o":"m 1125 968 q 1215 931 1178 968 q 1251 842 1251 894 q 1215 752 1251 789 q 1125 715 1178 715 q 1083 723 1103 715 q 1046 743 1063 731 q 1009 723 1029 731 q 967 715 989 715 q 877 752 914 715 q 840 842 840 789 q 877 931 840 894 q 967 968 914 968 q 1009 960 989 968 q 1046 940 1029 953 q 1083 960 1063 953 q 1125 968 1103 968 m 1194 700 q 1244 619 1225 664 q 1271 518 1264 575 q 1274 499 1272 508 q 1276 479 1276 489 q 1264 267 1276 383 q 1217 27 1251 150 q 1117 -207 1183 -96 q 1050 -272 1092 -250 q 961 -294 1008 -294 q 871 -269 914 -294 q 800 -193 822 -242 q 783 -93 778 -144 q 781 -94 782 -93 q 779 -94 781 -94 q 542 -96 635 -96 q 397 -94 450 -96 q 315 -86 343 -92 q 271 -69 286 -81 q 238 -42 256 -58 q 219 -20 228 -31 q 206 3 211 -10 q 153 138 172 67 q 125 276 133 208 q 115 401 117 344 q 115 490 114 457 q 122 533 115 510 q 129 559 122 533 q 156 625 136 585 q 214 710 175 665 q 316 794 253 754 q 472 860 379 835 q 696 886 565 886 q 747 883 719 886 q 794 878 775 881 q 813 876 813 876 q 808 842 808 860 q 830 762 808 797 q 887 705 851 726 q 967 683 922 683 q 1008 690 988 683 q 1046 707 1028 697 q 1084 690 1064 697 q 1125 683 1104 683 q 1194 700 1164 683 m 364 615 q 388 648 383 626 q 382 689 393 669 q 347 713 369 708 q 307 707 325 718 q 231 634 257 675 q 197 554 206 593 q 188 489 188 515 q 188 460 188 463 q 208 424 190 438 q 247 413 225 411 q 283 431 269 414 q 296 471 297 449 q 296 499 294 472 q 311 558 297 525 q 364 615 325 592 m 893 222 q 901 265 897 243 q 907 308 904 286 q 874 308 907 308 q 793 308 842 308 q 696 308 744 308 q 599 308 647 308 q 517 308 550 308 q 485 308 485 308 q 489 286 486 297 q 493 264 492 275 q 626 264 551 264 q 775 265 701 264 q 893 222 843 265 z "},"チ":{"ha":1389,"x_min":117,"x_max":1274,"o":"m 694 878 q 939 848 839 878 q 1102 771 1039 818 q 1201 672 1165 724 q 1251 572 1236 619 q 1270 495 1267 525 q 1274 465 1274 465 q 1249 369 1274 403 q 1191 320 1224 335 q 1133 303 1158 306 q 1108 300 1108 300 q 1008 300 1061 300 q 903 300 954 300 q 901 279 901 289 q 901 258 901 269 l 1006 258 q 1096 234 1056 258 q 1160 169 1136 210 q 1185 79 1185 128 q 1160 -12 1185 29 q 1096 -77 1136 -53 q 1006 -101 1056 -101 l 863 -101 q 852 -138 857 -119 q 842 -172 847 -157 q 788 -249 825 -219 q 705 -289 751 -279 q 613 -282 658 -299 q 522 -210 554 -261 q 493 -101 490 -160 l 367 -101 q 276 -77 317 -101 q 212 -12 236 -53 q 188 79 188 29 q 212 169 188 128 q 276 234 236 210 q 367 258 317 258 l 542 258 q 543 279 543 269 q 543 300 543 289 q 412 300 482 300 q 282 300 342 300 q 257 303 282 300 q 199 320 232 306 q 142 369 167 335 q 117 465 117 403 q 120 495 117 465 q 139 572 124 525 q 189 672 154 619 q 288 771 224 724 q 451 848 351 818 q 694 878 550 878 m 357 600 q 381 633 375 611 q 374 674 386 656 q 341 698 363 693 q 300 692 319 703 q 224 619 250 660 q 190 539 199 578 q 181 474 181 500 q 181 444 181 447 q 200 408 183 422 q 239 397 217 394 q 275 417 261 400 q 288 456 289 433 q 289 484 288 458 q 305 543 290 510 q 357 600 319 576 z "},"ヂ":{"ha":1389,"x_min":117,"x_max":1274,"o":"m 1106 968 q 1195 931 1158 968 q 1232 842 1232 894 q 1195 752 1232 789 q 1106 715 1158 715 q 1063 723 1083 715 q 1026 743 1042 731 q 990 723 1010 731 q 947 715 969 715 q 857 752 894 715 q 819 842 819 789 q 857 931 819 894 q 947 968 894 968 q 990 960 969 968 q 1026 940 1010 953 q 1063 960 1042 953 q 1106 968 1083 968 m 1108 300 q 1008 300 1061 300 q 903 300 954 300 q 901 279 901 289 q 901 258 901 269 l 1006 258 q 1096 234 1056 258 q 1160 169 1136 210 q 1185 79 1185 128 q 1160 -12 1185 29 q 1096 -77 1136 -53 q 1006 -101 1056 -101 l 863 -101 q 852 -138 857 -119 q 842 -172 847 -157 q 788 -249 825 -219 q 705 -289 751 -279 q 613 -282 658 -299 q 522 -210 554 -261 q 493 -101 490 -160 l 367 -101 q 276 -77 317 -101 q 212 -12 236 -53 q 188 79 188 29 q 212 169 188 128 q 276 234 236 210 q 367 258 317 258 l 542 258 q 543 279 543 269 q 543 300 543 289 q 412 300 482 300 q 282 300 342 300 q 257 303 282 300 q 199 320 232 306 q 142 369 167 335 q 117 465 117 403 q 120 495 117 465 q 139 572 124 525 q 189 672 154 619 q 288 771 224 724 q 451 848 351 818 q 694 878 550 878 q 737 876 714 878 q 776 873 760 875 q 792 871 792 871 q 789 856 789 864 q 789 842 789 849 q 810 762 789 797 q 867 705 832 726 q 947 683 903 683 q 988 690 968 683 q 1026 707 1008 697 q 1064 690 1044 697 q 1106 683 1083 683 q 1146 689 1126 683 q 1182 704 1165 694 q 1249 601 1224 661 q 1274 465 1274 542 q 1249 369 1274 403 q 1191 320 1224 335 q 1133 303 1158 306 q 1108 300 1108 300 m 357 600 q 381 633 375 611 q 374 674 386 656 q 341 698 363 693 q 300 692 319 703 q 224 619 250 660 q 190 539 199 578 q 181 474 181 500 q 181 444 181 447 q 200 408 183 422 q 239 397 217 394 q 275 417 261 400 q 288 456 289 433 q 289 484 288 458 q 305 543 290 510 q 357 600 319 576 z "},"ッ":{"ha":1389,"x_min":253,"x_max":1192,"o":"m 643 281 q 651 215 647 250 q 659 156 656 181 q 663 131 663 131 q 653 53 669 79 q 609 17 636 26 q 560 8 582 8 q 446 31 501 8 q 345 94 390 53 q 275 188 300 135 q 260 245 268 204 q 256 338 253 286 q 280 441 258 390 q 351 530 301 492 q 488 579 400 568 q 556 571 531 585 q 595 537 582 557 q 613 500 608 517 q 617 483 617 483 q 624 424 617 483 q 643 281 632 365 m 510 453 q 535 465 525 453 q 546 494 546 478 q 533 522 544 511 q 507 533 522 533 q 485 531 506 533 q 435 519 464 529 q 376 485 406 508 q 331 422 347 463 q 328 392 324 408 q 349 369 333 376 q 378 369 364 363 q 400 389 393 375 q 440 433 414 419 q 487 450 465 447 q 510 453 508 453 m 1064 511 q 1156 465 1119 507 q 1188 367 1192 422 q 1119 61 1176 214 q 969 -219 1063 -92 q 881 -274 936 -265 q 781 -249 826 -282 q 728 -161 736 -217 q 751 -61 719 -106 q 780 -20 767 -42 q 806 24 793 1 q 729 62 761 31 q 692 139 697 93 l 656 419 q 683 519 649 475 q 772 571 717 564 q 872 544 828 578 q 922 454 915 510 l 926 422 q 979 489 942 464 q 1064 511 1017 514 z "},"ツ":{"ha":1389,"x_min":106,"x_max":1356,"o":"m 625 458 q 636 373 631 419 q 647 293 642 326 q 651 260 651 260 q 638 156 661 192 q 580 108 615 121 q 514 96 544 96 q 363 125 436 94 q 229 210 289 156 q 136 335 169 264 q 118 395 128 353 q 107 492 108 438 q 118 604 106 546 q 165 715 131 663 q 260 805 199 767 q 418 856 321 843 q 511 846 476 864 q 563 800 546 828 q 586 751 581 772 q 592 729 592 729 q 596 692 592 729 q 607 594 600 656 q 625 458 614 533 m 447 688 q 483 705 468 689 q 496 743 497 721 q 480 781 494 765 q 444 794 465 796 q 414 792 442 794 q 347 776 386 789 q 270 733 308 763 q 208 649 232 703 q 206 607 199 628 q 233 576 214 586 q 272 575 253 567 q 300 604 292 583 q 338 652 314 635 q 385 677 361 669 q 428 686 410 685 q 447 688 446 688 m 1186 765 q 1274 735 1236 761 q 1334 665 1313 708 q 1351 574 1356 622 q 1304 301 1342 439 q 1205 34 1267 164 q 1061 -208 1143 -96 q 987 -267 1031 -249 q 897 -282 943 -286 q 810 -247 850 -278 q 751 -174 769 -218 q 737 -83 732 -131 q 771 3 742 -36 q 842 115 808 57 q 740 166 783 124 q 690 269 697 208 l 642 644 q 655 738 636 694 q 710 810 674 781 q 797 846 747 839 q 890 833 847 853 q 963 776 933 814 q 999 690 992 739 l 1003 647 q 1074 737 1024 703 q 1186 765 1124 771 z "},"ヅ":{"ha":1389,"x_min":107,"x_max":1360,"o":"m 626 458 q 637 373 631 419 q 648 293 643 326 q 653 260 653 260 q 640 156 663 192 q 581 108 617 121 q 515 96 544 96 q 365 125 439 94 q 231 210 290 156 q 138 335 171 264 q 119 395 128 353 q 108 492 110 438 q 119 604 107 546 q 166 715 132 663 q 261 805 200 767 q 419 856 322 843 q 512 846 478 864 q 563 800 546 828 q 586 751 581 772 q 592 729 592 729 q 596 692 592 729 q 608 594 600 656 q 626 458 617 533 m 449 688 q 484 705 469 689 q 497 743 499 721 q 481 781 496 765 q 446 794 467 796 q 415 792 443 794 q 349 776 388 789 q 272 733 310 763 q 210 649 233 703 q 208 607 200 628 q 235 576 215 586 q 273 575 253 567 q 301 604 293 583 q 339 652 315 635 q 387 677 363 669 q 429 686 411 685 q 449 688 447 688 m 1211 968 q 1301 931 1264 968 q 1338 842 1338 894 q 1301 752 1338 789 q 1211 715 1264 715 q 1169 723 1189 715 q 1132 743 1149 731 q 1095 723 1115 731 q 1053 715 1075 715 q 963 752 1000 715 q 926 842 926 789 q 963 931 926 894 q 1053 968 1000 968 q 1095 960 1075 968 q 1132 940 1115 953 q 1169 960 1149 953 q 1211 968 1189 968 m 1211 683 q 1301 713 1261 683 q 1353 574 1360 654 q 1306 301 1343 439 q 1206 34 1268 164 q 1063 -208 1144 -96 q 989 -267 1033 -249 q 897 -282 944 -286 q 811 -247 850 -278 q 752 -174 771 -218 q 738 -83 733 -131 q 772 3 743 -36 q 843 115 810 57 q 742 166 785 124 q 692 269 699 208 l 643 644 q 656 738 636 694 q 713 810 675 781 q 799 846 750 839 q 896 831 850 851 q 927 746 899 783 q 999 693 956 708 q 1000 690 999 692 l 1004 647 q 1025 686 1011 667 q 1039 684 1032 685 q 1053 683 1046 683 q 1094 690 1074 683 q 1132 707 1114 697 q 1170 690 1150 697 q 1211 683 1190 683 z "},"テ":{"ha":1389,"x_min":117,"x_max":1274,"o":"m 694 881 q 939 851 839 881 q 1102 774 1039 821 q 1201 674 1165 726 q 1251 575 1236 622 q 1270 498 1267 528 q 1274 468 1274 468 q 1249 372 1274 406 q 1191 323 1224 338 q 1133 306 1158 308 q 1108 303 1108 303 q 1057 303 1108 303 q 913 303 1006 303 q 694 303 819 303 q 478 303 571 303 q 333 303 385 303 q 282 303 282 303 q 257 306 282 303 q 199 323 232 308 q 142 372 167 338 q 117 468 117 406 q 120 498 117 468 q 139 575 124 528 q 189 674 154 622 q 288 774 224 726 q 451 851 351 821 q 694 881 550 881 m 357 603 q 381 636 375 614 q 374 678 386 658 q 341 701 363 697 q 300 694 319 706 q 224 622 250 663 q 190 542 199 581 q 181 476 181 503 q 181 447 181 450 q 200 411 183 425 q 239 400 217 397 q 275 419 261 403 q 288 458 289 436 q 289 487 288 461 q 305 546 290 513 q 357 603 319 579 m 1006 261 q 1096 237 1056 261 q 1160 172 1136 213 q 1185 82 1185 131 q 1160 -9 1185 32 q 1096 -74 1136 -50 q 1006 -99 1056 -99 l 858 -99 l 851 -142 q 813 -228 843 -192 q 738 -281 782 -264 q 644 -289 693 -297 q 532 -222 575 -278 q 494 -99 489 -167 l 367 -99 q 276 -74 317 -99 q 212 -9 236 -50 q 188 82 188 32 q 212 172 188 131 q 276 237 236 213 q 367 261 317 261 l 1006 261 z "},"デ":{"ha":1389,"x_min":117,"x_max":1274,"o":"m 1006 261 q 1096 237 1056 261 q 1160 172 1136 213 q 1185 82 1185 131 q 1160 -9 1185 32 q 1096 -74 1136 -50 q 1006 -99 1056 -99 l 858 -99 l 851 -142 q 813 -228 843 -192 q 738 -281 782 -264 q 644 -289 693 -297 q 532 -222 575 -278 q 494 -99 489 -167 l 367 -99 q 276 -74 317 -99 q 212 -9 236 -50 q 188 82 188 32 q 212 172 188 131 q 276 237 236 213 q 367 261 317 261 l 1006 261 m 1119 968 q 1209 931 1172 968 q 1246 842 1246 894 q 1209 752 1246 789 q 1119 715 1172 715 q 1077 723 1097 715 q 1040 743 1057 731 q 1003 723 1024 731 q 961 715 983 715 q 872 752 908 715 q 835 842 835 789 q 872 931 835 894 q 961 968 908 968 q 1003 960 983 968 q 1040 940 1024 953 q 1077 960 1057 953 q 1119 968 1097 968 m 1119 683 q 1189 700 1158 683 q 1251 599 1228 657 q 1274 468 1274 542 q 1249 372 1274 406 q 1191 323 1224 338 q 1133 306 1158 308 q 1108 303 1108 303 q 1057 303 1108 303 q 913 303 1006 303 q 694 303 819 303 q 478 303 571 303 q 333 303 385 303 q 282 303 282 303 q 257 306 282 303 q 199 323 232 308 q 142 372 167 338 q 117 468 117 406 q 120 498 117 468 q 139 575 124 528 q 189 674 154 622 q 288 774 224 726 q 451 851 351 821 q 694 881 550 881 q 743 878 717 881 q 788 874 769 876 q 806 872 806 872 q 803 857 804 865 q 803 842 803 849 q 824 762 803 797 q 881 705 846 726 q 961 683 917 683 q 1002 690 982 683 q 1040 707 1022 697 q 1078 690 1058 697 q 1119 683 1099 683 m 357 603 q 381 636 375 614 q 374 678 386 658 q 341 701 363 697 q 300 694 319 706 q 224 622 250 663 q 190 542 199 581 q 181 476 181 503 q 181 447 181 450 q 200 411 183 425 q 239 400 217 397 q 275 419 261 403 q 288 458 289 436 q 289 487 288 461 q 305 546 290 513 q 357 603 319 579 z "},"ト":{"ha":1389,"x_min":224,"x_max":1161,"o":"m 1007 351 q 1092 310 1056 342 q 1144 235 1128 279 q 1151 142 1161 190 q 1110 58 1142 93 q 1035 6 1079 22 q 942 -1 990 -11 q 888 8 914 3 q 839 21 863 14 q 831 -51 836 -14 q 819 -119 826 -87 q 811 -144 819 -119 q 783 -200 803 -168 q 726 -257 763 -232 q 633 -282 690 -282 q 603 -278 633 -282 q 526 -260 574 -275 q 427 -208 479 -244 q 328 -108 375 -172 q 253 56 282 -44 q 225 300 224 156 q 257 544 226 444 q 335 706 288 643 q 436 803 383 768 q 536 853 489 839 q 613 871 583 868 q 643 874 643 874 q 728 847 694 872 q 781 790 761 822 q 808 733 800 757 q 817 708 817 708 q 839 547 833 631 q 846 400 844 464 q 909 375 869 389 q 1007 351 949 361 m 710 750 q 698 790 711 772 q 663 810 685 808 q 633 810 660 810 q 568 802 607 811 q 488 768 529 793 q 415 693 447 743 q 408 653 403 675 q 432 618 414 631 q 472 612 450 607 q 506 635 494 617 q 564 686 531 672 q 623 701 597 700 q 650 703 649 703 q 690 714 672 700 q 710 750 708 728 z "},"ド":{"ha":1389,"x_min":224,"x_max":1161,"o":"m 1025 968 q 1115 931 1078 968 q 1153 842 1153 894 q 1115 752 1153 789 q 1025 715 1078 715 q 983 723 1003 715 q 946 743 963 731 q 910 723 931 731 q 867 715 889 715 q 777 752 814 715 q 740 842 740 789 q 777 931 740 894 q 867 968 814 968 q 910 960 889 968 q 946 940 931 953 q 983 960 963 953 q 1025 968 1003 968 m 1007 351 q 1092 310 1056 342 q 1144 235 1128 279 q 1151 142 1161 190 q 1110 58 1142 93 q 1035 6 1079 22 q 942 -1 990 -11 q 888 8 914 3 q 839 21 863 14 q 831 -51 836 -14 q 819 -119 826 -87 q 811 -144 819 -119 q 783 -200 803 -168 q 726 -257 763 -232 q 633 -282 690 -282 q 603 -278 633 -282 q 526 -260 574 -275 q 427 -208 479 -244 q 328 -108 375 -172 q 253 56 282 -44 q 225 300 224 156 q 257 544 226 444 q 335 706 288 643 q 436 803 383 768 q 536 853 489 839 q 613 871 583 868 q 643 874 643 874 q 688 863 667 872 q 710 854 710 854 q 709 848 710 851 q 708 842 708 844 q 740 747 708 789 q 819 692 772 706 q 840 539 835 618 q 846 400 844 460 q 909 375 869 389 q 1007 351 949 361 m 710 750 q 698 790 711 772 q 663 810 685 808 q 633 810 660 810 q 568 802 607 811 q 488 768 529 793 q 415 693 447 743 q 408 653 403 675 q 432 618 414 631 q 472 612 450 607 q 506 635 494 617 q 564 686 531 672 q 623 701 597 700 q 650 703 649 703 q 690 714 672 700 q 710 750 708 728 z "},"ナ":{"ha":1389,"x_min":117,"x_max":1274,"o":"m 1108 251 q 999 251 1057 251 q 885 251 940 251 q 872 46 883 149 q 828 -160 860 -57 q 778 -239 814 -207 q 697 -281 743 -271 q 603 -278 650 -292 q 524 -227 556 -262 q 481 -146 492 -192 q 486 -53 471 -100 q 517 94 508 18 q 526 251 525 169 q 403 251 468 251 q 282 251 339 251 q 257 254 282 251 q 199 272 232 257 q 142 320 167 286 q 117 417 117 354 q 157 588 117 518 q 261 703 197 658 q 397 774 325 749 q 533 813 469 800 l 535 819 q 567 908 539 869 q 638 966 594 946 q 731 982 681 986 q 846 924 800 975 q 893 806 892 874 q 1022 764 956 792 q 1146 691 1089 736 q 1238 578 1203 646 q 1274 417 1274 511 q 1249 320 1274 354 q 1191 272 1224 286 q 1133 254 1158 257 q 1108 251 1108 251 m 357 553 q 381 586 375 564 q 374 626 386 608 q 341 650 363 644 q 300 644 319 656 q 224 572 250 613 q 190 492 199 531 q 181 426 181 453 q 181 397 181 400 q 200 361 183 375 q 239 350 217 347 q 275 369 261 353 q 288 408 289 386 q 289 437 288 411 q 305 495 290 463 q 357 553 319 528 z "},"ニ":{"ha":1389,"x_min":117,"x_max":1274,"o":"m 282 314 q 257 317 282 314 q 199 334 232 319 q 142 383 167 349 q 117 479 117 417 q 120 509 117 479 q 139 586 124 539 q 189 686 154 633 q 288 786 224 739 q 451 863 351 833 q 694 893 550 893 q 939 863 839 893 q 1102 786 1039 833 q 1201 686 1165 739 q 1251 586 1236 633 q 1270 509 1267 539 q 1274 479 1274 479 q 1249 383 1274 417 q 1191 334 1224 349 q 1133 317 1158 319 q 1108 314 1108 314 q 1057 314 1108 314 q 913 314 1006 314 q 694 314 819 314 q 478 314 571 314 q 333 314 385 314 q 282 314 282 314 m 300 706 q 224 634 250 675 q 190 554 199 593 q 181 489 181 515 q 181 460 181 463 q 200 424 183 438 q 239 413 217 411 q 275 431 261 414 q 288 471 289 449 q 289 499 288 472 q 305 558 290 525 q 357 615 319 592 q 381 648 375 626 q 374 689 386 669 q 341 713 363 708 q 300 706 319 718 m 354 88 l 1029 88 q 1119 63 1078 88 q 1184 -2 1160 39 q 1208 -93 1208 -43 q 1184 -183 1208 -142 q 1119 -248 1160 -224 q 1029 -272 1078 -272 l 354 -272 q 263 -248 304 -272 q 199 -183 222 -224 q 175 -93 175 -142 q 199 -2 175 -43 q 263 63 222 39 q 354 88 304 88 z "},"ヌ":{"ha":1389,"x_min":111,"x_max":1275,"o":"m 276 313 q 251 315 276 313 q 194 333 226 318 q 136 381 161 347 q 111 478 111 415 q 115 508 111 478 q 133 585 118 538 q 183 685 149 632 q 282 785 218 738 q 445 862 346 832 q 689 892 544 892 q 921 865 825 892 q 1081 794 1017 838 q 1182 703 1144 751 q 1238 611 1219 654 q 1261 541 1256 568 q 1267 514 1267 514 q 1268 438 1275 476 q 1236 365 1261 399 q 1117 224 1183 294 q 978 83 1051 153 q 1015 73 996 78 q 1051 63 1033 68 q 1133 16 1100 50 q 1178 -63 1165 -18 q 1179 -157 1192 -108 q 1133 -238 1167 -206 q 1053 -284 1099 -271 q 960 -285 1008 -297 q 800 -235 878 -262 q 651 -175 722 -208 q 574 -224 613 -200 q 497 -269 536 -247 q 407 -293 454 -294 q 319 -268 360 -292 q 253 -201 278 -244 q 229 -111 228 -158 q 254 -22 231 -64 q 321 43 278 19 q 326 46 321 43 q 303 144 300 92 q 339 242 306 197 q 407 296 367 278 q 489 313 447 314 q 381 313 436 313 q 276 313 325 313 m 689 313 q 599 313 644 313 q 524 313 554 313 q 493 313 493 313 q 592 276 547 310 q 608 264 599 269 q 625 253 617 258 q 660 282 643 267 q 696 313 678 297 q 694 313 696 313 q 689 313 692 313 m 294 704 q 219 632 244 672 q 184 553 193 592 q 175 488 175 514 q 175 458 175 461 q 194 422 178 436 q 233 411 211 408 q 269 431 256 414 q 282 469 283 447 q 283 498 282 472 q 299 556 285 524 q 351 614 314 589 q 375 647 369 625 q 368 688 381 669 q 335 711 357 706 q 294 704 314 717 z "},"ネ":{"ha":1389,"x_min":117,"x_max":1274,"o":"m 282 249 q 257 251 282 249 q 199 269 232 254 q 142 317 167 283 q 117 414 117 351 q 155 581 117 511 q 253 695 193 650 q 383 767 314 740 q 517 807 453 793 l 517 817 q 541 907 517 867 q 606 972 565 947 q 696 996 647 996 q 787 972 746 996 q 852 907 828 947 q 876 817 876 867 l 876 806 q 1009 765 940 792 q 1138 694 1078 739 q 1236 580 1199 649 q 1274 414 1274 511 q 1258 341 1274 371 q 1226 296 1242 311 q 1211 281 1211 281 q 1131 190 1172 233 q 1044 108 1089 147 q 1057 104 1050 106 q 1071 101 1064 103 q 1156 61 1119 92 q 1208 -14 1192 31 q 1215 -107 1225 -58 q 1174 -192 1206 -156 q 1099 -244 1143 -228 q 1006 -251 1054 -261 q 849 -201 924 -236 q 783 -267 825 -242 q 692 -290 742 -292 q 601 -265 642 -290 q 538 -199 561 -239 q 473 -224 506 -211 q 407 -246 440 -236 q 313 -251 360 -261 q 231 -209 267 -240 q 181 -131 196 -178 q 176 -37 165 -83 q 218 45 186 10 q 297 96 250 81 q 475 165 392 126 q 633 249 558 203 q 531 249 592 249 q 404 249 469 249 q 282 249 339 249 m 300 640 q 224 568 250 608 q 190 489 199 528 q 181 424 181 450 q 181 394 181 397 q 200 358 183 372 q 239 347 217 344 q 275 367 261 350 q 288 406 289 383 q 289 434 288 408 q 305 492 290 460 q 357 550 319 525 q 381 583 375 561 q 374 624 386 606 q 341 647 363 642 q 300 640 319 653 z "},"ノ":{"ha":1389,"x_min":231,"x_max":1067,"o":"m 338 -226 q 262 -165 285 -197 q 235 -103 239 -133 q 238 -49 231 -74 q 253 -10 244 -25 q 261 4 261 4 q 378 177 322 88 q 472 344 433 267 q 556 524 511 422 q 624 738 600 626 q 630 753 624 738 q 651 788 636 768 q 690 824 665 808 q 753 839 715 839 q 844 814 792 839 q 871 797 844 814 q 933 746 897 781 q 1003 655 969 711 q 1051 519 1036 599 q 1050 336 1067 440 q 968 100 1033 232 q 835 -103 906 -28 q 694 -212 764 -178 q 559 -255 624 -247 q 445 -255 494 -262 q 367 -237 396 -247 q 338 -226 338 -226 m 731 733 q 732 692 722 713 q 763 664 742 671 q 786 651 764 664 q 832 610 808 638 q 861 539 856 583 q 881 503 864 517 q 921 490 897 489 q 956 510 943 492 q 968 550 969 528 q 936 649 961 608 q 880 715 911 690 q 825 752 849 740 q 799 764 801 764 q 758 763 778 772 q 731 733 738 753 z "},"ハ":{"ha":1389,"x_min":125,"x_max":1344,"o":"m 1199 576 q 1244 291 1211 447 q 1329 -46 1278 135 q 1331 -144 1344 -96 q 1284 -229 1318 -193 q 1200 -279 1250 -265 q 1102 -282 1150 -294 q 1017 -235 1054 -269 q 967 -150 981 -200 q 875 220 911 47 q 824 539 839 393 q 839 636 818 592 q 899 710 860 681 q 992 746 939 740 q 1089 729 1044 750 q 1163 668 1133 708 q 1199 576 1193 628 m 635 839 q 718 787 690 819 q 756 720 746 754 q 765 663 765 686 q 765 640 765 640 q 747 424 764 533 q 711 228 731 314 q 662 42 692 143 q 585 -161 632 -58 q 572 -185 585 -161 q 532 -239 558 -210 q 464 -285 506 -268 q 365 -286 422 -301 q 342 -278 365 -286 q 283 -249 318 -271 q 214 -184 249 -226 q 155 -73 179 -142 q 128 97 131 -4 q 157 339 125 199 q 235 573 188 481 q 335 719 282 665 q 442 800 389 774 q 538 834 494 826 q 608 840 582 842 q 635 839 635 839 m 672 703 q 669 744 679 724 q 639 771 660 764 q 613 777 636 772 q 552 781 589 782 q 473 761 515 779 q 393 697 431 743 q 378 658 379 679 q 393 621 378 636 q 431 606 408 606 q 469 621 454 606 q 531 663 501 653 q 582 671 561 672 q 604 669 603 669 q 645 673 625 664 q 672 703 665 682 z "},"バ":{"ha":1389,"x_min":125,"x_max":1344,"o":"m 635 843 q 718 791 690 824 q 756 725 746 758 q 765 669 765 692 q 765 646 765 646 q 747 428 764 539 q 711 233 731 318 q 662 48 692 149 q 585 -156 632 -53 q 572 -180 585 -156 q 532 -234 558 -204 q 464 -281 506 -264 q 365 -282 422 -297 q 342 -274 365 -282 q 283 -244 318 -267 q 214 -180 249 -222 q 155 -68 179 -137 q 128 103 131 1 q 157 344 125 204 q 235 577 188 485 q 335 724 282 669 q 442 805 389 779 q 538 838 494 831 q 608 844 582 846 q 635 843 635 843 m 672 708 q 669 749 679 729 q 639 776 660 769 q 613 783 636 778 q 552 786 589 788 q 474 767 515 785 q 394 703 432 749 q 379 663 381 685 q 393 626 378 642 q 431 610 408 611 q 469 625 454 610 q 531 667 501 657 q 582 676 561 678 q 604 675 603 675 q 645 678 625 668 q 672 708 665 688 m 1149 968 q 1239 931 1201 968 q 1276 842 1276 894 q 1239 752 1276 789 q 1149 715 1201 715 q 1106 723 1126 715 q 1069 743 1086 731 q 1034 723 1054 731 q 990 715 1014 715 q 901 752 939 715 q 864 842 864 789 q 901 931 864 894 q 990 968 939 968 q 1034 960 1014 968 q 1069 940 1054 953 q 1106 960 1086 953 q 1149 968 1126 968 m 1329 -40 q 1331 -139 1344 -90 q 1284 -224 1318 -187 q 1200 -275 1250 -261 q 1102 -276 1150 -289 q 1017 -230 1054 -264 q 967 -146 981 -196 q 875 224 911 51 q 824 544 839 397 q 839 640 818 596 q 897 714 860 685 q 990 683 939 683 q 1032 690 1013 683 q 1069 707 1051 697 q 1108 690 1089 697 q 1149 683 1128 683 q 1151 683 1150 683 q 1156 683 1153 683 q 1199 582 1193 640 q 1244 297 1211 453 q 1329 -40 1278 140 z "},"パ":{"ha":1389,"x_min":125,"x_max":1344,"o":"m 635 839 q 718 787 690 819 q 756 720 746 754 q 765 663 765 686 q 765 640 765 640 q 747 424 764 533 q 711 228 731 314 q 662 42 692 143 q 585 -161 632 -58 q 572 -185 585 -161 q 532 -239 558 -210 q 464 -285 506 -268 q 365 -286 422 -301 q 342 -278 365 -286 q 283 -249 318 -271 q 214 -184 249 -226 q 155 -73 179 -142 q 128 97 131 -4 q 157 339 125 199 q 235 573 188 481 q 335 719 282 665 q 442 800 389 774 q 538 834 494 826 q 608 840 582 842 q 635 839 635 839 m 672 703 q 669 744 679 724 q 639 771 660 764 q 613 777 636 772 q 552 781 589 782 q 474 761 515 779 q 394 697 432 743 q 379 658 381 679 q 393 621 378 636 q 431 606 408 606 q 469 621 454 606 q 531 663 501 653 q 582 671 561 672 q 604 669 603 669 q 645 673 625 664 q 672 703 665 682 m 1200 563 q 1329 -46 1228 306 q 1331 -144 1344 -96 q 1284 -229 1318 -193 q 1200 -279 1250 -265 q 1102 -282 1150 -294 q 1017 -235 1054 -269 q 967 -150 981 -200 q 875 220 911 47 q 824 539 839 393 q 840 638 817 592 q 903 713 863 685 q 983 595 922 642 q 1121 549 1043 549 q 1200 563 1164 549 m 1121 971 q 1219 944 1175 971 q 1290 874 1264 918 q 1315 775 1315 829 q 1290 676 1315 721 q 1219 606 1264 632 q 1121 579 1175 579 q 1022 606 1067 579 q 951 676 978 632 q 925 775 925 721 q 951 874 925 829 q 1022 944 978 918 q 1121 971 1067 971 m 1121 721 q 1159 737 1143 721 q 1175 775 1175 753 q 1159 813 1175 797 q 1121 829 1143 829 q 1082 813 1097 829 q 1067 775 1067 797 q 1082 737 1067 753 q 1121 721 1097 721 z "},"ヒ":{"ha":1389,"x_min":114,"x_max":1276,"o":"m 700 825 q 944 795 844 825 q 1106 718 1043 765 q 1204 619 1169 671 q 1254 519 1239 567 q 1273 442 1269 472 q 1276 413 1276 413 q 1251 316 1276 350 q 1194 267 1226 282 q 1136 250 1161 253 q 1111 247 1111 247 q 1060 247 1111 247 q 916 247 1008 247 q 700 247 824 247 q 608 247 654 247 q 531 247 561 247 q 500 247 500 247 q 519 165 508 206 q 546 86 531 124 q 669 86 597 86 q 820 86 740 86 q 978 88 900 86 q 1069 65 1028 89 q 1134 -1 1110 40 q 1160 -90 1158 -42 q 1136 -180 1160 -139 q 1072 -245 1113 -221 q 982 -271 1031 -269 q 681 -273 797 -272 q 497 -272 564 -274 q 395 -263 429 -269 q 344 -246 361 -257 q 308 -217 326 -235 q 294 -201 301 -210 q 282 -185 288 -193 q 197 -1 228 -99 q 151 197 167 96 q 128 395 135 297 q 117 581 122 493 q 114 599 114 589 q 114 618 114 608 l 119 749 q 148 837 122 797 q 215 899 174 876 q 306 919 256 922 q 410 881 365 917 q 469 792 454 844 q 504 800 469 792 q 592 817 539 808 q 700 825 646 825 m 300 764 q 322 800 318 778 q 311 840 325 822 q 276 861 299 858 q 236 851 254 864 q 185 787 201 826 q 166 706 169 747 q 165 633 163 665 q 168 589 167 601 q 189 553 171 567 q 229 543 207 540 q 265 564 251 546 q 275 604 278 582 q 272 664 271 631 q 279 725 272 697 q 300 764 286 753 z "},"ビ":{"ha":1389,"x_min":114,"x_max":1276,"o":"m 1107 968 q 1197 931 1160 968 q 1235 842 1235 894 q 1197 752 1235 789 q 1107 715 1160 715 q 1065 723 1085 715 q 1028 743 1044 731 q 992 723 1013 731 q 949 715 972 715 q 860 752 897 715 q 822 842 822 789 q 860 931 822 894 q 949 968 897 968 q 992 960 972 968 q 1028 940 1013 953 q 1065 960 1044 953 q 1107 968 1085 968 m 1111 253 q 1060 253 1111 253 q 916 253 1008 253 q 700 253 824 253 q 608 253 654 253 q 531 253 561 253 q 500 253 500 253 q 519 169 508 210 q 546 92 531 129 q 668 92 597 92 q 819 92 739 92 q 978 93 900 92 q 1069 69 1028 93 q 1134 5 1110 46 q 1160 -85 1158 -36 q 1136 -175 1160 -133 q 1072 -241 1113 -217 q 982 -265 1031 -265 q 681 -268 797 -267 q 497 -267 564 -269 q 395 -259 429 -265 q 344 -242 361 -253 q 308 -212 326 -231 q 294 -196 301 -204 q 282 -179 288 -187 q 197 4 228 -93 q 151 202 167 101 q 128 400 135 303 q 117 585 122 497 q 114 604 114 594 q 114 624 114 614 l 119 753 q 148 842 122 803 q 215 905 174 882 q 306 925 256 928 q 410 886 365 922 q 471 797 454 850 q 506 806 471 797 q 593 822 540 814 q 700 829 646 829 q 760 826 728 829 q 793 824 793 824 q 844 724 800 764 q 949 683 889 683 q 990 690 971 683 q 1028 707 1010 697 q 1067 690 1047 697 q 1107 683 1086 683 q 1150 690 1126 683 q 1241 578 1206 644 q 1276 418 1276 511 q 1251 322 1276 356 q 1194 273 1226 288 q 1136 256 1161 258 q 1111 253 1111 253 m 300 769 q 322 805 318 783 q 311 844 325 826 q 276 867 299 864 q 236 856 254 869 q 185 792 201 831 q 166 712 169 753 q 165 639 163 671 q 168 594 167 607 q 189 559 171 572 q 229 549 207 546 q 265 569 251 551 q 275 610 278 588 q 272 669 271 636 q 279 731 272 703 q 300 769 286 758 z "},"ピ":{"ha":1389,"x_min":114,"x_max":1276,"o":"m 1111 247 q 1060 247 1111 247 q 916 247 1008 247 q 700 247 824 247 q 608 247 654 247 q 531 247 561 247 q 500 247 500 247 q 519 165 508 206 q 546 86 531 124 q 668 86 597 86 q 819 86 739 86 q 978 88 900 86 q 1069 65 1028 89 q 1134 -1 1110 40 q 1160 -90 1158 -42 q 1136 -180 1160 -139 q 1072 -245 1113 -221 q 982 -271 1031 -269 q 681 -273 797 -272 q 497 -272 564 -274 q 395 -263 429 -269 q 344 -246 361 -257 q 308 -217 326 -235 q 294 -201 301 -210 q 282 -185 288 -193 q 197 -1 228 -99 q 151 197 167 96 q 128 395 135 297 q 117 581 122 493 q 114 599 114 589 q 114 618 114 608 l 119 749 q 148 837 122 797 q 215 899 174 876 q 306 919 256 922 q 410 881 365 917 q 471 792 454 844 q 506 800 471 792 q 593 817 540 808 q 700 825 646 825 q 754 822 725 825 q 803 817 783 819 q 824 814 824 814 q 822 794 822 804 q 821 775 821 785 q 851 661 821 713 q 933 579 882 610 q 1047 549 985 549 q 1138 567 1096 549 q 1213 619 1181 586 q 1259 528 1242 579 q 1276 413 1276 478 q 1251 316 1276 350 q 1194 267 1226 282 q 1136 250 1161 253 q 1111 247 1111 247 m 300 764 q 322 800 318 778 q 311 840 325 822 q 276 861 299 858 q 236 851 254 864 q 185 787 201 826 q 166 706 169 747 q 165 633 163 665 q 168 589 167 601 q 189 553 171 567 q 229 543 207 540 q 265 564 251 546 q 275 604 278 582 q 272 664 271 631 q 279 725 272 697 q 300 764 286 753 m 1047 971 q 1146 944 1101 971 q 1217 874 1190 918 q 1243 775 1243 829 q 1217 676 1243 721 q 1146 606 1190 632 q 1047 579 1101 579 q 949 606 993 579 q 878 676 904 632 q 851 775 851 721 q 878 874 851 829 q 949 944 904 918 q 1047 971 993 971 m 1047 721 q 1085 737 1069 721 q 1101 775 1101 753 q 1085 813 1101 797 q 1047 829 1069 829 q 1009 813 1025 829 q 993 775 993 797 q 1009 737 993 753 q 1047 721 1025 721 z "},"フ":{"ha":1389,"x_min":115,"x_max":1274,"o":"m 1272 483 q 1272 471 1272 478 q 1271 464 1271 464 q 1273 449 1272 457 q 1274 435 1274 442 q 1251 217 1274 328 q 1188 -1 1229 106 q 1088 -200 1146 -108 q 1019 -263 1061 -242 q 928 -284 976 -285 q 839 -257 881 -283 q 776 -188 797 -231 q 756 -98 754 -146 q 783 -8 757 -50 q 859 148 828 63 q 904 318 890 233 q 872 318 904 318 q 790 318 839 318 q 693 318 742 318 q 476 318 569 318 q 332 318 383 318 q 281 318 281 318 q 256 321 281 318 q 198 338 231 324 q 140 387 165 353 q 115 483 115 421 q 119 513 115 483 q 138 590 122 543 q 188 690 153 638 q 286 789 222 742 q 449 866 350 836 q 693 896 549 896 q 938 866 838 896 q 1101 789 1038 836 q 1199 690 1164 742 q 1250 590 1235 638 q 1269 513 1265 543 q 1272 483 1272 483 m 363 625 q 386 658 381 636 q 379 699 392 681 q 347 722 368 717 q 306 717 325 728 q 230 644 256 685 q 195 564 204 603 q 186 499 186 525 q 186 469 186 472 q 206 433 189 447 q 244 422 222 419 q 281 442 267 425 q 293 481 294 458 q 294 509 293 483 q 310 567 296 535 q 363 625 325 600 z "},"ブ":{"ha":1389,"x_min":115,"x_max":1274,"o":"m 1119 968 q 1209 931 1172 968 q 1246 842 1246 894 q 1209 752 1246 789 q 1119 715 1172 715 q 1077 723 1097 715 q 1040 743 1057 731 q 1003 723 1024 731 q 961 715 983 715 q 872 752 908 715 q 835 842 835 789 q 872 931 835 894 q 961 968 908 968 q 1003 960 983 968 q 1040 940 1024 953 q 1077 960 1057 953 q 1119 968 1097 968 m 1272 488 q 1272 476 1272 482 q 1271 469 1271 469 q 1273 455 1272 463 q 1274 440 1274 447 q 1251 222 1274 333 q 1188 4 1229 111 q 1088 -194 1146 -103 q 1019 -258 1061 -236 q 928 -279 976 -281 q 839 -251 881 -278 q 776 -183 797 -225 q 756 -92 754 -140 q 783 -3 757 -44 q 859 153 828 68 q 904 322 890 238 q 872 322 904 322 q 790 322 839 322 q 693 322 742 322 q 476 322 569 322 q 332 322 383 322 q 281 322 281 322 q 256 325 281 322 q 198 342 231 328 q 140 391 165 357 q 115 488 115 425 q 119 517 115 488 q 138 594 122 547 q 188 694 153 642 q 286 794 222 747 q 449 872 350 842 q 693 901 549 901 q 745 899 718 901 q 792 894 772 897 q 811 892 811 892 q 803 842 803 867 q 824 762 803 797 q 881 705 846 726 q 961 683 917 683 q 1002 690 982 683 q 1040 707 1022 697 q 1078 690 1058 697 q 1119 683 1099 683 q 1200 706 1163 683 q 1253 610 1233 664 q 1272 488 1272 556 m 363 631 q 386 664 381 642 q 379 704 392 686 q 347 728 368 722 q 306 721 325 733 q 230 649 256 689 q 195 569 204 608 q 186 504 186 531 q 186 475 186 478 q 206 439 189 453 q 244 428 222 425 q 281 447 267 431 q 293 486 294 464 q 294 515 293 489 q 310 573 296 540 q 363 631 325 606 z "},"プ":{"ha":1389,"x_min":115,"x_max":1274,"o":"m 1271 464 q 1273 449 1272 457 q 1274 435 1274 442 q 1251 217 1274 328 q 1188 -1 1229 106 q 1088 -200 1146 -108 q 1019 -263 1061 -242 q 928 -284 976 -285 q 839 -257 881 -283 q 776 -188 797 -231 q 756 -98 754 -146 q 783 -8 757 -50 q 859 148 828 63 q 904 318 890 233 q 872 318 904 318 q 790 318 839 318 q 693 318 742 318 q 476 318 569 318 q 332 318 383 318 q 281 318 281 318 q 256 321 281 318 q 198 338 231 324 q 140 387 165 353 q 115 483 115 421 q 119 513 115 483 q 138 590 122 543 q 188 690 153 638 q 286 789 222 742 q 449 866 350 836 q 693 896 549 896 q 758 892 725 896 q 815 885 792 889 q 838 882 838 882 q 811 775 811 832 q 842 661 811 713 q 924 579 872 610 q 1038 549 975 549 q 1149 577 1099 549 q 1231 654 1200 606 q 1261 576 1250 619 q 1272 483 1272 533 q 1272 471 1272 478 q 1271 464 1271 464 m 363 625 q 386 658 381 636 q 379 699 392 681 q 347 722 368 717 q 306 717 325 728 q 230 644 256 685 q 195 564 204 603 q 186 499 186 525 q 186 469 186 472 q 206 433 189 447 q 244 422 222 419 q 281 442 267 425 q 293 481 294 458 q 294 509 293 483 q 310 567 296 535 q 363 625 325 600 m 1038 971 q 1136 944 1092 971 q 1207 874 1181 918 q 1233 775 1233 829 q 1207 676 1233 721 q 1136 606 1181 632 q 1038 579 1092 579 q 940 606 983 579 q 869 676 896 632 q 843 775 843 721 q 869 874 843 829 q 940 944 896 918 q 1038 971 983 971 m 1038 721 q 1076 737 1061 721 q 1092 775 1092 753 q 1076 813 1092 797 q 1038 829 1061 829 q 1000 813 1015 829 q 985 775 985 797 q 1000 737 985 753 q 1038 721 1015 721 z "},"ヘ":{"ha":1389,"x_min":161,"x_max":1372,"o":"m 961 583 q 1166 303 1071 456 q 1351 -40 1261 150 q 1368 -133 1372 -86 q 1338 -219 1364 -181 q 1267 -279 1311 -258 q 1174 -296 1222 -300 q 1087 -265 1126 -292 q 1026 -194 1047 -239 q 928 -2 978 -92 q 826 165 878 88 q 813 144 826 165 q 789 103 800 122 q 681 -62 733 10 q 595 -174 629 -133 q 561 -214 561 -214 q 544 -229 561 -214 q 495 -260 526 -244 q 425 -278 464 -276 q 342 -253 386 -281 q 318 -235 342 -253 q 263 -180 294 -217 q 204 -87 231 -143 q 169 42 178 -32 q 185 210 161 117 q 281 418 210 304 q 421 586 349 526 q 563 669 493 646 q 694 693 633 693 q 803 680 756 693 q 876 654 850 667 q 903 642 903 642 q 933 614 919 631 q 946 597 946 597 q 954 591 950 594 q 961 583 958 588 m 874 507 q 885 547 888 525 q 865 582 882 568 q 840 597 864 583 q 778 622 817 610 q 690 633 739 633 q 586 607 640 632 q 559 576 567 597 q 561 535 551 556 q 592 508 571 515 q 633 510 613 500 q 712 525 675 529 q 773 510 749 521 q 799 497 797 499 q 838 488 817 485 q 874 507 860 490 z "},"ベ":{"ha":1389,"x_min":161,"x_max":1372,"o":"m 961 588 q 1166 308 1071 461 q 1351 -35 1261 156 q 1368 -128 1372 -81 q 1338 -214 1364 -175 q 1267 -275 1311 -253 q 1174 -292 1222 -296 q 1087 -260 1126 -287 q 1026 -189 1047 -233 q 928 3 978 -86 q 826 171 878 93 q 813 149 826 171 q 789 108 800 126 q 681 -56 733 15 q 595 -168 629 -128 q 561 -208 561 -208 q 544 -224 561 -208 q 495 -255 526 -239 q 425 -273 464 -271 q 342 -247 386 -275 q 318 -229 342 -247 q 263 -174 294 -211 q 204 -82 231 -137 q 169 48 178 -26 q 185 216 161 122 q 281 424 210 310 q 421 592 349 532 q 563 675 493 651 q 694 699 633 699 q 803 685 756 699 q 876 660 850 672 q 903 647 903 647 q 933 619 919 636 q 946 603 946 603 q 954 595 950 599 q 961 588 958 592 m 874 513 q 885 552 888 531 q 865 588 882 574 q 840 602 864 589 q 778 627 817 615 q 690 638 739 639 q 586 613 640 638 q 559 581 567 603 q 561 540 551 560 q 592 513 571 521 q 633 515 613 506 q 712 531 675 535 q 773 515 749 526 q 799 503 797 504 q 838 492 817 489 q 874 513 860 494 m 1197 968 q 1287 931 1250 968 q 1324 842 1324 894 q 1287 752 1324 789 q 1197 715 1250 715 q 1154 723 1175 715 q 1118 743 1133 731 q 1081 723 1101 731 q 1039 715 1061 715 q 949 752 986 715 q 911 842 911 789 q 949 931 911 894 q 1039 968 986 968 q 1081 960 1061 968 q 1118 940 1101 953 q 1154 960 1133 953 q 1197 968 1175 968 z "},"ペ":{"ha":1389,"x_min":161,"x_max":1372,"o":"m 961 583 q 1166 303 1071 456 q 1351 -40 1261 150 q 1368 -133 1372 -86 q 1338 -219 1364 -181 q 1267 -279 1311 -258 q 1174 -296 1222 -300 q 1087 -265 1126 -292 q 1026 -194 1047 -239 q 928 -2 978 -92 q 826 165 878 88 q 813 144 826 165 q 789 103 800 122 q 681 -62 733 10 q 595 -174 629 -133 q 561 -214 561 -214 q 544 -229 561 -214 q 495 -260 526 -244 q 425 -278 464 -276 q 342 -253 386 -281 q 318 -235 342 -253 q 263 -180 294 -217 q 204 -87 231 -143 q 169 42 178 -32 q 185 210 161 117 q 281 418 210 304 q 421 586 349 526 q 563 669 493 646 q 694 693 633 693 q 803 680 756 693 q 876 654 850 667 q 903 642 903 642 q 933 614 919 631 q 946 597 946 597 q 954 591 950 594 q 961 583 958 588 m 874 507 q 885 547 888 525 q 865 582 882 568 q 840 597 864 583 q 778 622 817 610 q 690 633 739 633 q 586 607 640 632 q 559 576 567 597 q 561 535 551 556 q 592 508 571 515 q 633 510 613 500 q 712 525 675 529 q 773 510 749 521 q 799 497 797 499 q 838 488 817 485 q 874 507 860 490 m 1126 971 q 1224 944 1181 971 q 1294 874 1268 918 q 1321 775 1321 829 q 1294 676 1321 721 q 1224 606 1268 632 q 1126 579 1181 579 q 1028 606 1072 579 q 957 676 983 632 q 931 775 931 721 q 957 874 931 829 q 1028 944 983 918 q 1126 971 1072 971 m 1126 721 q 1164 737 1149 721 q 1179 775 1179 753 q 1164 813 1179 797 q 1126 829 1149 829 q 1088 813 1103 829 q 1072 775 1072 797 q 1088 737 1072 753 q 1126 721 1103 721 z "},"ホ":{"ha":1389,"x_min":103,"x_max":1267,"o":"m 1226 56 q 1261 -32 1256 15 q 1249 -123 1267 -79 q 1190 -196 1231 -167 q 1103 -231 1150 -225 q 1012 -218 1056 -236 q 939 -160 968 -200 q 900 -103 919 -135 q 864 -35 881 -72 l 864 -107 q 840 -197 864 -156 q 774 -262 815 -237 q 685 -286 733 -286 q 594 -262 635 -286 q 529 -197 553 -237 q 506 -107 506 -156 l 506 -90 q 478 -140 492 -117 q 451 -178 465 -162 q 377 -232 421 -217 q 288 -240 333 -247 q 203 -203 242 -233 q 147 -128 164 -172 q 136 -37 131 -85 q 172 49 142 10 l 171 47 q 189 81 178 57 q 201 117 200 104 l 201 115 q 231 189 208 156 q 286 242 253 222 q 276 242 281 242 q 268 242 272 242 q 243 244 268 242 q 185 262 218 247 q 128 310 153 276 q 103 407 103 344 q 140 573 103 504 q 238 687 178 642 q 368 759 299 732 q 501 799 438 786 l 501 811 q 526 901 501 861 q 591 966 550 942 q 682 990 632 990 q 772 966 731 990 q 837 901 813 942 q 861 811 861 861 l 861 799 q 994 758 925 785 q 1124 687 1064 732 q 1222 573 1185 642 q 1260 407 1260 504 q 1239 319 1260 353 q 1192 270 1218 286 q 1144 249 1165 254 q 1124 243 1124 243 q 1188 131 1176 201 q 1197 100 1189 117 q 1226 56 1206 83 m 343 543 q 367 576 361 554 q 360 617 372 597 q 327 641 349 636 q 286 633 306 646 q 210 562 236 603 q 176 482 185 521 q 167 417 167 443 q 167 388 167 390 q 186 352 169 365 q 225 340 203 339 q 261 359 247 342 q 274 399 275 376 q 275 426 274 400 q 291 486 276 453 q 343 543 306 519 m 506 218 l 506 242 q 490 242 497 242 q 475 242 482 242 q 491 231 483 236 q 506 218 499 225 m 864 208 q 894 242 881 229 q 879 242 888 242 q 864 242 871 242 l 864 208 z "},"ボ":{"ha":1389,"x_min":103,"x_max":1267,"o":"m 1099 968 q 1188 931 1150 968 q 1225 842 1225 894 q 1188 752 1225 789 q 1099 715 1150 715 q 1055 723 1075 715 q 1019 743 1035 731 q 983 723 1003 731 q 940 715 963 715 q 850 752 888 715 q 813 842 813 789 q 850 931 813 894 q 940 968 888 968 q 983 960 963 968 q 1019 940 1003 953 q 1055 960 1035 953 q 1099 968 1075 968 m 1226 60 q 1261 -27 1256 19 q 1249 -117 1267 -74 q 1190 -192 1231 -161 q 1103 -226 1150 -221 q 1012 -212 1056 -231 q 939 -154 968 -194 q 900 -98 919 -129 q 864 -29 881 -67 l 864 -101 q 840 -191 864 -150 q 774 -256 815 -232 q 685 -281 733 -281 q 594 -256 635 -281 q 529 -191 553 -232 q 506 -101 506 -150 l 506 -85 q 478 -134 492 -111 q 451 -172 465 -157 q 377 -227 421 -211 q 288 -236 333 -243 q 203 -199 242 -229 q 147 -124 164 -168 q 136 -32 131 -79 q 172 54 142 15 l 171 51 q 189 85 178 61 q 201 122 200 110 l 201 121 q 231 194 208 161 q 286 247 253 228 q 276 247 281 247 q 268 247 272 247 q 243 250 268 247 q 185 267 218 253 q 128 316 153 282 q 103 413 103 350 q 140 578 103 510 q 238 692 178 647 q 368 764 299 738 q 501 804 438 790 l 501 817 q 526 907 501 867 q 591 972 550 947 q 682 996 632 996 q 756 980 722 996 q 814 938 790 964 q 791 894 800 918 q 782 842 782 869 q 803 762 782 797 q 861 705 825 726 q 940 683 897 683 q 981 690 961 683 q 1019 707 1000 697 q 1057 690 1038 697 q 1099 683 1076 683 q 1115 684 1107 683 q 1131 686 1122 685 q 1223 574 1186 642 q 1260 413 1260 507 q 1239 325 1260 358 q 1192 276 1218 292 q 1144 254 1165 260 q 1124 249 1124 249 q 1166 199 1149 228 q 1188 136 1183 171 q 1197 106 1189 122 q 1226 60 1206 89 m 343 547 q 367 581 361 560 q 360 622 372 603 q 327 646 349 642 q 286 639 306 650 q 210 567 236 608 q 176 488 185 526 q 167 422 167 449 q 167 393 167 396 q 186 356 169 371 q 225 344 203 342 q 261 364 247 347 q 274 404 275 381 q 275 431 274 406 q 291 490 276 457 q 343 547 306 524 m 506 224 l 506 247 q 490 247 497 247 q 475 247 482 247 q 491 236 483 242 q 506 224 499 231 m 864 214 q 894 247 881 235 q 880 247 888 247 q 864 247 872 247 l 864 214 z "},"ポ":{"ha":1389,"x_min":103,"x_max":1267,"o":"m 1226 56 q 1261 -32 1256 15 q 1249 -123 1267 -79 q 1190 -196 1231 -167 q 1103 -231 1150 -225 q 1012 -218 1056 -236 q 939 -160 968 -200 q 900 -103 919 -135 q 864 -35 881 -72 l 864 -107 q 840 -197 864 -156 q 774 -262 815 -237 q 685 -286 733 -286 q 594 -262 635 -286 q 529 -197 553 -237 q 506 -107 506 -156 l 506 -90 q 478 -140 492 -117 q 451 -178 465 -162 q 377 -232 421 -217 q 288 -240 333 -247 q 203 -203 242 -233 q 147 -128 164 -172 q 136 -37 131 -85 q 172 49 142 10 l 171 47 q 189 81 178 57 q 201 117 200 104 l 201 115 q 231 189 208 156 q 286 242 253 222 q 276 242 281 242 q 268 242 272 242 q 243 244 268 242 q 185 262 218 247 q 128 310 153 276 q 103 407 103 344 q 140 573 103 504 q 238 687 178 642 q 368 759 299 732 q 501 799 438 786 l 501 811 q 526 901 501 861 q 591 966 550 942 q 682 990 632 990 q 773 965 732 990 q 838 900 814 940 q 800 775 800 843 q 831 661 800 713 q 913 579 861 610 q 1028 549 965 549 q 1118 567 1075 549 q 1192 618 1161 586 q 1241 526 1222 578 q 1260 407 1260 474 q 1239 319 1260 353 q 1192 270 1218 286 q 1144 249 1165 254 q 1124 243 1124 243 q 1166 194 1149 224 q 1188 131 1183 165 q 1197 100 1189 117 q 1226 56 1206 83 m 343 543 q 367 576 361 554 q 360 617 372 597 q 327 641 349 636 q 286 633 306 646 q 210 562 236 603 q 176 482 185 521 q 167 417 167 443 q 167 388 167 390 q 186 352 169 365 q 225 340 203 339 q 261 359 247 342 q 274 399 275 376 q 275 426 274 400 q 291 486 276 453 q 343 543 306 519 m 506 218 l 506 242 q 490 242 497 242 q 475 242 482 242 q 491 231 483 236 q 506 218 499 225 m 864 208 q 894 242 881 229 q 880 242 888 242 q 864 242 872 242 l 864 208 m 1028 971 q 1125 944 1081 971 q 1196 874 1169 918 q 1222 775 1222 829 q 1196 676 1222 721 q 1125 606 1169 632 q 1028 579 1081 579 q 929 606 974 579 q 858 676 885 632 q 832 775 832 721 q 858 874 832 829 q 929 944 885 918 q 1028 971 974 971 m 1028 721 q 1066 737 1050 721 q 1082 775 1082 753 q 1066 813 1082 797 q 1028 829 1050 829 q 990 813 1006 829 q 974 775 974 797 q 990 737 974 753 q 1028 721 1006 721 z "},"マ":{"ha":1389,"x_min":117,"x_max":1274,"o":"m 282 310 q 257 313 282 310 q 199 330 232 315 q 142 378 167 344 q 117 474 117 413 q 120 503 117 474 q 139 581 124 533 q 189 681 154 628 q 288 781 224 733 q 451 858 351 828 q 694 888 550 888 q 939 858 839 888 q 1102 781 1039 828 q 1201 681 1165 733 q 1251 581 1236 628 q 1270 503 1267 533 q 1274 474 1274 474 q 1273 463 1274 469 q 1272 457 1272 457 q 1269 429 1271 443 q 1263 401 1267 415 q 1149 185 1224 292 q 975 -10 1074 79 q 1011 -119 1011 -58 q 972 -229 1011 -181 q 897 -285 942 -268 q 805 -295 851 -301 q 719 -258 758 -289 q 604 -181 675 -222 q 457 -114 533 -139 q 380 -62 411 -97 q 338 20 349 -26 q 344 114 328 67 q 395 192 360 161 q 477 233 431 222 q 571 228 524 243 q 654 194 613 214 q 788 310 725 243 q 755 310 788 310 q 694 310 722 310 q 478 310 571 310 q 333 310 385 310 q 282 310 282 310 m 300 701 q 224 628 250 669 q 190 549 199 588 q 181 483 181 510 q 181 454 181 457 q 200 419 183 432 q 239 407 217 406 q 275 426 261 408 q 288 465 289 443 q 289 493 288 467 q 305 553 290 519 q 357 610 319 586 q 381 642 375 621 q 374 683 386 664 q 341 708 363 703 q 300 701 319 713 z "},"ミ":{"ha":1389,"x_min":151,"x_max":1238,"o":"m 690 874 q 922 845 828 874 q 1076 772 1015 817 q 1169 678 1136 728 q 1217 585 1203 629 q 1235 512 1232 540 q 1238 483 1238 483 q 1213 392 1238 425 q 1155 346 1188 360 q 1097 329 1122 332 q 1072 326 1072 326 q 1022 326 1072 326 q 885 326 972 326 q 690 326 799 326 q 501 326 586 326 q 367 326 417 326 q 317 326 317 326 q 292 329 317 326 q 234 346 267 332 q 176 392 201 360 q 151 483 151 425 q 154 512 151 483 q 172 585 157 540 q 219 678 186 629 q 310 772 251 728 q 463 845 369 817 q 690 874 556 874 m 392 611 q 416 642 411 622 q 408 681 421 663 q 375 704 397 700 q 335 697 353 708 q 259 629 285 668 q 224 553 233 590 q 215 492 215 517 q 215 464 215 467 q 234 430 217 443 q 274 419 251 417 q 311 438 297 422 q 322 475 325 454 q 324 501 322 476 q 339 557 325 525 q 392 611 353 589 m 1081 -47 q 1165 -110 1136 -61 q 1179 -215 1194 -160 q 1116 -299 1164 -269 q 1013 -314 1068 -328 q 897 -294 965 -301 q 750 -284 828 -287 q 597 -281 672 -281 q 458 -282 521 -281 q 356 -286 394 -283 q 257 -250 300 -289 q 213 -156 214 -211 q 248 -56 210 -99 q 343 -11 286 -14 q 417 -9 358 -11 q 559 -6 475 -7 q 738 -9 643 -6 q 922 -21 832 -12 q 1081 -47 1013 -29 m 1089 265 q 1176 207 1144 254 q 1197 104 1208 160 q 1139 17 1186 47 q 1035 -4 1092 -14 q 910 13 983 6 q 755 22 838 19 q 592 26 672 25 q 445 27 513 28 q 338 25 378 26 q 239 63 281 24 q 196 158 197 103 q 233 256 194 215 q 329 299 272 297 q 376 300 335 299 q 483 301 418 301 q 628 300 549 301 q 792 295 708 299 q 953 285 876 292 q 1089 265 1031 278 z "},"ム":{"ha":1389,"x_min":203,"x_max":1304,"o":"m 472 -282 q 445 -271 472 -282 q 378 -233 418 -260 q 298 -157 338 -206 q 231 -35 258 -108 q 203 143 204 39 q 242 388 203 247 q 335 614 281 526 q 451 749 390 701 q 572 817 513 797 q 679 838 631 836 q 756 835 728 840 q 785 831 785 831 q 859 783 835 815 q 891 714 883 750 q 898 652 899 678 q 897 626 897 626 q 888 573 897 626 q 858 428 878 519 q 806 218 838 336 q 788 152 797 186 q 773 94 779 118 q 767 71 767 71 q 853 71 810 71 q 939 71 897 71 q 931 151 936 111 q 914 232 925 192 q 910 253 911 243 q 908 275 908 264 q 947 385 908 336 q 1046 450 985 435 q 1140 447 1094 461 q 1219 399 1186 433 q 1263 317 1251 365 q 1298 92 1292 199 q 1304 -108 1304 -15 q 1280 -199 1304 -158 q 1215 -263 1256 -239 q 1125 -287 1175 -287 l 558 -287 q 540 -288 549 -287 q 521 -287 531 -289 q 504 -288 521 -287 q 472 -282 488 -289 m 521 717 q 503 679 504 701 q 517 640 503 657 q 553 623 531 624 q 592 636 575 622 q 660 672 625 667 q 720 670 696 676 q 747 664 744 664 q 788 665 768 656 q 815 694 808 674 q 815 735 824 715 q 786 764 807 756 q 758 772 783 765 q 694 781 733 779 q 610 769 656 783 q 521 717 564 756 z "},"メ":{"ha":1389,"x_min":199,"x_max":1249,"o":"m 1083 163 q 1144 97 1114 131 q 1203 29 1175 64 q 1241 -57 1233 -10 q 1233 -148 1249 -104 q 1178 -224 1217 -192 q 1092 -262 1139 -256 q 1001 -253 1046 -269 q 925 -199 956 -237 q 864 -129 896 -164 q 772 -197 824 -162 q 660 -256 719 -231 q 535 -288 600 -281 q 405 -277 471 -296 q 275 -204 339 -258 q 214 -129 229 -165 q 202 -62 199 -93 q 219 -8 206 -31 q 244 28 232 15 q 256 40 256 40 q 359 132 308 83 q 454 228 410 181 q 391 269 422 249 q 328 307 360 289 q 262 374 285 332 q 238 463 239 415 q 261 553 236 510 q 328 619 286 596 q 417 642 369 642 q 507 618 464 643 q 595 565 551 593 q 683 506 639 536 q 737 587 711 544 q 783 675 763 629 q 793 689 783 675 q 822 719 803 703 q 869 744 842 735 q 935 744 897 753 q 1018 699 972 736 q 1118 573 1089 642 q 1148 433 1147 504 q 1130 292 1149 361 q 1083 163 1111 222 m 1075 411 q 1068 517 1083 471 q 1028 594 1053 563 q 984 642 1004 625 q 961 661 964 660 q 920 668 942 672 q 886 644 899 664 q 878 604 874 626 q 901 571 883 582 q 922 552 903 569 q 958 502 942 535 q 968 425 975 469 q 978 385 965 403 q 1014 364 992 367 q 1054 375 1036 361 q 1075 411 1072 389 z "},"モ":{"ha":1389,"x_min":117,"x_max":1274,"o":"m 1103 278 q 1198 239 1158 278 q 1238 143 1238 200 q 1198 48 1238 88 q 1103 8 1158 8 l 817 8 q 820 -6 818 1 q 824 -19 822 -12 l 1014 -19 q 1109 -59 1069 -19 q 1147 -154 1149 -99 q 1108 -250 1147 -211 q 1013 -289 1069 -289 l 693 -287 q 573 -265 629 -297 q 494 -169 517 -232 q 469 -84 481 -129 q 447 8 457 -39 l 300 8 q 205 48 244 8 q 165 143 165 88 q 205 239 165 200 q 300 278 244 278 l 414 278 q 413 290 413 283 q 413 301 413 296 q 345 301 378 301 q 282 301 313 301 q 257 304 282 301 q 199 322 232 307 q 142 370 167 336 q 117 467 117 404 q 120 497 117 467 q 139 574 124 526 q 189 674 154 621 q 288 774 224 726 q 451 851 351 821 q 694 881 550 881 q 939 851 839 881 q 1102 774 1039 821 q 1201 674 1165 726 q 1251 574 1236 621 q 1270 497 1267 526 q 1274 467 1274 467 q 1249 370 1274 404 q 1191 322 1224 336 q 1133 304 1158 307 q 1108 301 1108 301 q 992 301 1054 301 q 873 301 931 301 q 772 301 815 301 q 772 290 772 296 q 774 278 772 283 l 1103 278 m 357 603 q 381 636 375 614 q 374 676 386 658 q 341 700 363 694 q 300 694 319 706 q 224 622 250 663 q 190 542 199 581 q 181 476 181 503 q 181 447 181 450 q 200 411 183 425 q 239 400 217 397 q 275 419 261 403 q 288 458 289 436 q 289 487 288 461 q 305 545 290 513 q 357 603 319 578 z "},"ャ":{"ha":1389,"x_min":258,"x_max":1131,"o":"m 1125 269 q 1126 261 1126 265 q 1128 251 1126 257 q 1119 135 1131 201 q 1079 15 1107 68 q 999 -51 1053 -35 q 896 -42 946 -68 q 833 31 850 -17 q 833 126 815 79 q 753 126 789 126 q 701 126 717 126 q 721 12 708 69 q 753 -92 733 -46 q 752 -195 774 -144 q 679 -268 731 -246 q 576 -267 628 -289 q 504 -193 525 -244 q 456 -35 474 -119 q 431 126 438 50 q 406 126 418 126 q 382 126 393 126 q 363 128 382 126 q 320 142 344 131 q 277 178 296 153 q 258 251 258 204 q 293 386 258 332 q 379 475 328 440 l 375 535 q 409 632 372 590 q 501 676 446 674 q 597 645 556 679 q 643 558 638 611 q 660 560 643 558 q 692 561 678 561 q 897 532 817 561 q 1024 459 978 503 q 1092 372 1071 415 q 1119 299 1114 328 q 1125 269 1125 269 m 439 353 q 457 378 453 361 q 451 408 461 394 q 427 426 443 422 q 396 421 411 431 q 339 367 358 397 q 313 307 319 336 q 306 258 306 278 q 307 236 307 239 q 321 209 308 219 q 350 200 333 199 q 378 215 367 203 q 388 244 389 228 q 388 265 386 246 q 399 310 389 285 q 439 353 410 335 z "},"ヤ":{"ha":1389,"x_min":114,"x_max":1275,"o":"m 1269 438 q 1272 425 1271 431 q 1272 413 1272 419 q 1269 313 1275 368 q 1248 201 1263 258 q 1207 97 1233 144 q 1143 28 1183 53 q 1056 1 1103 4 q 965 22 1008 -1 q 881 119 904 54 q 882 246 857 183 q 774 246 822 246 q 706 246 726 246 q 731 93 714 171 q 774 -46 749 15 q 785 -138 792 -92 q 749 -223 778 -185 q 675 -279 721 -261 q 582 -290 629 -297 q 497 -255 535 -283 q 440 -181 458 -226 q 377 31 400 -83 q 344 246 354 144 q 311 246 328 246 q 279 246 294 246 q 254 249 279 246 q 197 266 229 251 q 139 315 164 281 q 114 411 114 349 q 160 592 114 519 q 275 710 206 664 l 271 789 q 289 881 267 839 q 350 950 311 924 q 439 979 389 976 q 527 962 486 982 q 595 905 568 942 q 628 821 622 868 q 650 823 628 821 q 692 825 672 825 q 928 797 831 825 q 1088 725 1025 769 q 1188 631 1151 681 q 1242 538 1225 582 q 1265 465 1260 493 q 1269 438 1269 438 m 354 547 q 378 581 372 558 q 371 621 383 603 q 338 645 360 640 q 297 639 317 650 q 222 566 247 607 q 187 486 196 525 q 178 421 178 447 q 178 392 178 394 q 197 356 181 369 q 236 344 214 342 q 272 364 258 347 q 285 403 286 381 q 286 431 285 406 q 302 490 288 457 q 354 547 317 522 z "},"ュ":{"ha":1389,"x_min":290,"x_max":1099,"o":"m 964 -1 q 1059 -41 1019 -1 q 1099 -136 1099 -81 q 1059 -231 1099 -192 q 964 -271 1019 -271 l 425 -271 q 330 -231 369 -271 q 290 -136 290 -192 q 330 -41 290 -81 q 425 -1 369 -1 l 669 -1 q 711 179 701 81 q 689 179 711 179 q 647 179 667 179 q 492 179 556 179 q 428 179 428 179 q 410 181 428 179 q 369 194 393 183 q 328 231 346 206 q 308 303 310 257 q 310 325 308 303 q 322 383 313 347 q 351 458 331 418 q 408 533 371 497 q 504 590 446 568 q 647 613 563 613 q 791 590 732 613 q 887 533 850 568 q 944 458 924 497 q 974 383 965 418 q 985 325 983 347 q 988 303 988 303 q 988 301 988 301 q 988 301 988 301 q 988 297 988 300 q 988 293 988 294 q 981 156 988 232 q 953 -1 974 81 l 964 -1 m 483 419 q 501 444 497 428 q 496 475 504 461 q 471 493 486 489 q 440 488 456 497 q 384 431 403 464 q 360 366 365 399 q 355 311 354 333 q 356 288 356 289 q 371 260 358 271 q 400 253 383 250 q 427 267 417 254 q 436 296 438 279 q 436 321 436 297 q 445 373 436 344 q 483 419 454 401 z "},"ユ":{"ha":1389,"x_min":156,"x_max":1233,"o":"m 1053 76 q 1144 52 1103 76 q 1209 -13 1185 28 q 1233 -104 1233 -54 q 1209 -194 1233 -153 q 1144 -259 1185 -235 q 1053 -283 1103 -283 l 335 -283 q 245 -259 286 -283 q 180 -194 204 -235 q 156 -104 156 -153 q 180 -13 156 -54 q 245 52 204 28 q 335 76 286 76 l 661 76 q 695 190 681 129 q 717 315 710 250 q 688 315 717 315 q 632 315 658 315 q 483 315 550 315 q 378 315 417 315 q 339 315 339 315 q 315 318 339 315 q 260 335 292 321 q 205 384 229 350 q 179 481 181 418 q 182 510 179 481 q 197 588 185 540 q 236 687 208 635 q 313 786 264 739 q 441 863 363 833 q 632 893 519 893 q 823 863 744 893 q 951 786 901 833 q 1028 687 1000 739 q 1067 588 1056 635 q 1082 510 1079 540 q 1085 481 1085 481 q 1085 478 1085 479 q 1085 478 1085 478 q 1085 472 1085 475 q 1085 467 1085 469 q 1075 285 1085 386 q 1038 76 1065 183 l 1053 76 m 413 636 q 436 669 431 647 q 429 710 442 692 q 397 734 418 729 q 356 728 375 739 q 281 652 306 696 q 248 565 256 608 q 242 493 240 522 q 243 461 243 464 q 262 425 244 439 q 301 413 279 411 q 338 433 324 415 q 350 472 353 450 q 349 492 350 474 q 353 537 349 510 q 370 591 357 564 q 413 636 383 618 z "}}}
